{"glyphs":{"0":{"ha":982,"x_min":93,"x_max":889,"o":"m 491 -13 q 198 114 302 -13 q 93 514 93 241 q 197 914 93 788 q 491 1041 301 1041 q 785 914 681 1041 q 889 514 889 788 q 784 114 889 241 q 491 -13 680 -13 m 491 88 q 641 127 580 88 q 736 260 703 167 q 770 512 770 354 q 736 766 770 672 q 641 900 703 860 q 491 940 580 940 q 341 901 402 940 q 245 767 279 861 q 212 516 212 674 q 245 262 212 356 q 341 127 279 167 q 491 88 402 88 z "},"1":{"ha":600,"x_min":22,"x_max":458,"o":"m 378 1031 l 458 1031 l 458 0 l 340 0 l 340 883 l 22 658 l 22 776 l 378 1031 z "},"2":{"ha":779,"x_min":38,"x_max":728,"o":"m 728 98 l 728 0 l 51 0 l 51 63 l 385 443 q 508 613 473 544 q 544 748 544 681 q 484 895 544 848 q 300 943 424 943 q 38 899 158 943 l 38 999 q 163 1030 92 1018 q 306 1041 233 1041 q 573 971 483 1041 q 662 759 662 901 q 644 645 662 699 q 588 531 627 591 q 478 394 548 472 l 216 98 l 728 98 z "},"3":{"ha":787,"x_min":42,"x_max":733,"o":"m 504 535 q 674 449 615 513 q 733 284 733 385 q 632 65 733 142 q 324 -13 531 -13 q 179 -2 252 -13 q 42 30 106 9 l 42 123 q 183 91 111 102 q 322 79 255 79 q 620 290 620 79 q 354 481 620 481 l 195 481 l 195 574 l 280 574 q 581 769 581 574 q 518 901 581 854 q 334 949 454 949 q 75 909 200 949 l 75 1002 q 205 1031 135 1021 q 343 1041 274 1041 q 536 1009 456 1041 q 656 918 615 978 q 697 776 697 859 q 645 625 697 688 q 504 535 594 563 z "},"4":{"ha":917,"x_min":36,"x_max":885,"o":"m 885 340 l 885 244 l 726 244 l 726 0 l 616 0 l 616 244 l 36 244 l 36 309 l 487 1028 l 607 1028 l 176 340 l 616 340 l 630 681 l 726 681 l 726 340 l 885 340 z "},"5":{"ha":799,"x_min":61,"x_max":753,"o":"m 290 594 q 559 550 458 585 q 707 451 661 514 q 752 294 753 389 q 649 66 752 144 q 343 -13 546 -13 q 199 -1 272 -13 q 61 31 126 10 l 61 124 q 200 92 128 103 q 340 81 272 81 q 565 134 491 81 q 639 294 639 187 q 604 404 639 361 q 486 471 569 447 q 258 503 403 495 l 106 512 l 143 1028 l 708 1028 l 708 935 l 249 935 l 225 598 l 290 594 z "},"6":{"ha":899,"x_min":98,"x_max":847,"o":"m 491 591 q 754 515 660 591 q 847 289 847 439 q 805 125 847 193 q 684 22 762 57 q 501 -13 606 -13 q 203 108 308 -13 q 98 480 98 228 q 220 899 98 757 q 578 1041 342 1041 q 797 1007 708 1041 l 797 913 q 695 939 751 930 q 585 947 638 947 q 308 840 401 947 q 215 518 216 733 q 342 572 268 552 q 491 591 417 591 m 501 77 q 673 130 610 77 q 737 286 737 182 q 669 448 737 394 q 472 501 601 501 q 337 483 407 501 q 215 430 267 465 q 294 160 222 243 q 501 77 366 77 z "},"7":{"ha":734,"x_min":10,"x_max":692,"o":"m 10 1028 l 692 1028 l 692 965 l 265 0 l 140 0 l 559 930 l 10 930 l 10 1028 z "},"8":{"ha":982,"x_min":82,"x_max":899,"o":"m 674 523 q 846 423 793 484 q 899 271 899 361 q 854 122 899 185 q 718 22 808 58 q 497 -13 628 -13 q 186 58 291 -13 q 82 259 82 128 q 135 422 82 353 q 288 526 189 490 q 160 627 200 567 q 119 769 119 687 q 163 913 119 852 q 290 1008 206 974 q 494 1041 374 1041 q 693 1010 610 1041 q 818 921 775 979 q 861 782 861 863 q 814 628 861 693 q 674 523 767 563 m 234 774 q 262 674 234 715 q 355 606 290 634 q 537 556 421 577 l 571 550 q 710 641 667 588 q 754 770 754 694 q 686 906 754 859 q 491 953 618 953 q 299 906 364 953 q 234 774 234 858 m 498 75 q 713 123 640 75 q 785 264 785 172 q 757 358 785 319 q 664 422 728 396 q 488 469 599 449 q 379 494 428 479 q 242 405 288 463 q 195 273 195 347 q 272 125 195 176 q 498 75 349 75 z "},"9":{"ha":899,"x_min":51,"x_max":801,"o":"m 398 1041 q 695 920 590 1041 q 801 548 801 799 q 678 129 801 271 q 320 -13 556 -13 q 102 21 190 -13 l 102 115 q 204 89 147 98 q 313 81 260 81 q 590 188 498 81 q 684 510 683 294 q 556 456 631 476 q 408 437 482 437 q 145 513 238 437 q 51 739 51 589 q 94 903 51 835 q 215 1006 137 971 q 398 1041 293 1041 m 162 742 q 230 580 162 634 q 427 526 298 526 q 561 544 492 526 q 683 598 631 563 q 605 868 677 785 q 398 951 533 951 q 225 898 289 951 q 162 742 162 846 z "},"\u0000":{"ha":0,"x_min":0,"x_max":0,"o":""},"\r":{"ha":387,"x_min":0,"x_max":0,"o":""}," ":{"ha":387,"x_min":0,"x_max":0,"o":""},"A":{"ha":1057,"x_min":28,"x_max":1029,"o":"m 908 0 l 775 333 l 280 333 l 147 0 l 28 0 l 446 1028 l 611 1028 l 1029 0 l 908 0 m 319 428 l 736 428 l 528 949 l 319 428 z "},"Á":{"ha":1057,"x_min":28,"x_max":1029,"o":"m 908 0 l 775 333 l 280 333 l 147 0 l 28 0 l 446 1028 l 611 1028 l 1029 0 l 908 0 m 319 428 l 736 428 l 528 949 l 319 428 m 472 1117 l 624 1314 l 753 1314 l 583 1117 l 472 1117 z "},"Ă":{"ha":1057,"x_min":28,"x_max":1029,"o":"m 908 0 l 775 333 l 280 333 l 147 0 l 28 0 l 446 1028 l 611 1028 l 1029 0 l 908 0 m 319 428 l 736 428 l 528 949 l 319 428 m 529 1123 q 349 1172 412 1123 q 276 1299 287 1220 l 356 1299 q 406 1219 365 1248 q 529 1191 447 1191 q 652 1219 613 1191 q 701 1299 692 1247 l 781 1299 q 708 1171 770 1219 q 529 1123 647 1123 z "},"Ắ":{"ha":1057,"x_min":28,"x_max":1029,"o":"m 908 0 l 775 333 l 280 333 l 147 0 l 28 0 l 446 1028 l 611 1028 l 1029 0 l 908 0 m 319 428 l 736 428 l 528 949 l 319 428 m 487 1278 l 621 1450 l 721 1450 l 570 1278 l 487 1278 m 529 1123 q 356 1169 417 1123 q 286 1291 296 1215 l 357 1291 q 406 1212 367 1240 q 529 1184 445 1184 q 652 1211 614 1184 q 702 1291 690 1239 l 771 1291 q 701 1169 761 1215 q 529 1123 642 1123 z "},"Ặ":{"ha":1057,"x_min":28,"x_max":1029,"o":"m 908 0 l 775 333 l 280 333 l 147 0 l 28 0 l 446 1028 l 611 1028 l 1029 0 l 908 0 m 319 428 l 736 428 l 528 949 l 319 428 m 529 -242 q 470 -225 491 -242 q 450 -178 450 -208 q 470 -132 450 -149 q 529 -114 491 -114 q 588 -132 567 -114 q 608 -178 608 -149 q 588 -225 608 -208 q 529 -242 567 -242 m 529 1123 q 349 1172 412 1123 q 276 1299 287 1220 l 356 1299 q 406 1219 365 1248 q 529 1191 447 1191 q 652 1219 613 1191 q 701 1299 692 1247 l 781 1299 q 708 1171 770 1219 q 529 1123 647 1123 z "},"Ằ":{"ha":1057,"x_min":28,"x_max":1029,"o":"m 908 0 l 775 333 l 280 333 l 147 0 l 28 0 l 446 1028 l 611 1028 l 1029 0 l 908 0 m 319 428 l 736 428 l 528 949 l 319 428 m 487 1278 l 336 1450 l 436 1450 l 570 1278 l 487 1278 m 528 1123 q 356 1169 415 1123 q 286 1291 296 1215 l 355 1291 q 405 1211 367 1239 q 528 1184 443 1184 q 651 1212 612 1184 q 700 1291 690 1240 l 771 1291 q 701 1169 761 1215 q 528 1123 640 1123 z "},"Ẳ":{"ha":1057,"x_min":28,"x_max":1029,"o":"m 908 0 l 775 333 l 280 333 l 147 0 l 28 0 l 446 1028 l 611 1028 l 1029 0 l 908 0 m 319 428 l 736 428 l 528 949 l 319 428 m 492 1278 q 503 1310 492 1297 q 529 1331 515 1323 q 568 1348 544 1338 q 607 1366 594 1358 q 619 1388 619 1374 q 532 1420 619 1420 q 458 1415 492 1420 q 383 1398 425 1410 l 383 1449 q 538 1471 449 1471 q 652 1450 615 1471 q 689 1392 689 1429 q 670 1350 689 1365 q 618 1322 652 1335 q 579 1301 592 1310 q 564 1278 566 1292 l 492 1278 m 528 1123 q 356 1169 415 1123 q 286 1291 296 1215 l 357 1291 q 405 1211 367 1239 q 528 1184 443 1184 q 651 1211 612 1184 q 702 1291 691 1239 l 771 1291 q 701 1169 761 1215 q 528 1123 640 1123 z "},"Ẵ":{"ha":1057,"x_min":28,"x_max":1029,"o":"m 908 0 l 775 333 l 280 333 l 147 0 l 28 0 l 446 1028 l 611 1028 l 1029 0 l 908 0 m 319 428 l 736 428 l 528 949 l 319 428 m 638 1337 q 583 1343 608 1337 q 515 1363 557 1349 q 460 1380 481 1375 q 419 1385 440 1385 q 351 1374 383 1385 q 286 1338 320 1363 l 286 1403 q 347 1435 315 1425 q 419 1445 380 1445 q 474 1439 449 1445 q 542 1419 500 1433 q 597 1402 576 1407 q 638 1397 617 1397 q 706 1408 675 1397 q 771 1444 737 1419 l 771 1379 q 710 1347 742 1357 q 638 1337 678 1337 m 528 1123 q 356 1169 415 1123 q 286 1291 296 1215 l 357 1291 q 405 1211 367 1239 q 528 1184 443 1184 q 651 1212 612 1184 q 700 1291 690 1240 l 771 1291 q 701 1169 761 1215 q 528 1123 640 1123 z "},"Â":{"ha":1057,"x_min":28,"x_max":1029,"o":"m 908 0 l 775 333 l 280 333 l 147 0 l 28 0 l 446 1028 l 611 1028 l 1029 0 l 908 0 m 319 428 l 736 428 l 528 949 l 319 428 m 788 1117 l 676 1117 l 528 1261 l 381 1117 l 269 1117 l 475 1314 l 582 1314 l 788 1117 z "},"Ấ":{"ha":1057,"x_min":28,"x_max":1029,"o":"m 908 0 l 775 333 l 280 333 l 147 0 l 28 0 l 446 1028 l 611 1028 l 1029 0 l 908 0 m 319 428 l 736 428 l 528 949 l 319 428 m 842 1433 l 942 1433 l 792 1251 l 709 1251 l 842 1433 m 475 1306 l 582 1306 l 788 1117 l 676 1117 l 528 1258 l 381 1117 l 269 1117 l 475 1306 z "},"Ậ":{"ha":1057,"x_min":28,"x_max":1029,"o":"m 908 0 l 775 333 l 280 333 l 147 0 l 28 0 l 446 1028 l 611 1028 l 1029 0 l 908 0 m 319 428 l 736 428 l 528 949 l 319 428 m 529 -242 q 470 -225 491 -242 q 450 -178 450 -208 q 470 -132 450 -149 q 529 -114 491 -114 q 588 -132 567 -114 q 608 -178 608 -149 q 588 -225 608 -208 q 529 -242 567 -242 m 788 1117 l 676 1117 l 528 1261 l 381 1117 l 269 1117 l 475 1314 l 582 1314 l 788 1117 z "},"Ầ":{"ha":1057,"x_min":28,"x_max":1029,"o":"m 908 0 l 775 333 l 280 333 l 147 0 l 28 0 l 446 1028 l 611 1028 l 1029 0 l 908 0 m 319 428 l 736 428 l 528 949 l 319 428 m 809 1251 l 726 1251 l 575 1433 l 675 1433 l 809 1251 m 475 1306 l 582 1306 l 788 1117 l 676 1117 l 528 1258 l 381 1117 l 269 1117 l 475 1306 z "},"Ẩ":{"ha":1057,"x_min":28,"x_max":1029,"o":"m 908 0 l 775 333 l 280 333 l 147 0 l 28 0 l 446 1028 l 611 1028 l 1029 0 l 908 0 m 319 428 l 736 428 l 528 949 l 319 428 m 756 1444 q 870 1423 833 1444 q 907 1365 907 1402 q 889 1323 907 1338 q 836 1294 870 1308 q 797 1274 810 1283 q 781 1251 783 1265 l 710 1251 q 722 1283 710 1270 q 747 1304 733 1297 q 786 1322 762 1312 q 825 1340 813 1332 q 838 1361 838 1348 q 749 1393 838 1393 q 677 1388 710 1393 q 601 1372 644 1383 l 601 1422 q 756 1444 667 1444 m 475 1306 l 582 1306 l 788 1117 l 676 1117 l 528 1258 l 381 1117 l 269 1117 l 475 1306 z "},"Ẫ":{"ha":1057,"x_min":28,"x_max":1029,"o":"m 908 0 l 775 333 l 280 333 l 147 0 l 28 0 l 446 1028 l 611 1028 l 1029 0 l 908 0 m 319 428 l 736 428 l 528 949 l 319 428 m 649 1397 q 720 1408 688 1397 q 788 1444 753 1419 l 788 1379 q 724 1347 758 1357 q 648 1337 690 1337 q 587 1343 616 1337 q 515 1363 558 1350 q 453 1380 476 1375 q 408 1385 431 1385 q 338 1374 370 1385 q 269 1338 305 1363 l 269 1403 q 333 1435 299 1425 q 409 1445 367 1445 q 470 1439 441 1445 q 542 1419 499 1432 q 603 1402 581 1407 q 649 1397 626 1397 m 475 1306 l 582 1306 l 788 1117 l 676 1117 l 528 1258 l 381 1117 l 269 1117 l 475 1306 z "},"Ȁ":{"ha":1057,"x_min":28,"x_max":1029,"o":"m 908 0 l 775 333 l 280 333 l 147 0 l 28 0 l 446 1028 l 611 1028 l 1029 0 l 908 0 m 319 428 l 736 428 l 528 949 l 319 428 m 354 1117 l 235 1314 l 334 1314 l 446 1117 l 354 1117 m 611 1117 l 493 1314 l 591 1314 l 703 1117 l 611 1117 z "},"Ä":{"ha":1057,"x_min":28,"x_max":1029,"o":"m 908 0 l 775 333 l 280 333 l 147 0 l 28 0 l 446 1028 l 611 1028 l 1029 0 l 908 0 m 319 428 l 736 428 l 528 949 l 319 428 m 342 1153 q 288 1170 307 1153 q 269 1216 269 1187 q 288 1264 269 1246 q 342 1281 307 1281 q 395 1264 376 1281 q 414 1216 414 1246 q 395 1170 414 1187 q 342 1153 376 1153 m 715 1153 q 662 1170 681 1153 q 643 1216 643 1187 q 662 1264 643 1246 q 715 1281 681 1281 q 769 1264 750 1281 q 788 1216 788 1246 q 769 1170 788 1187 q 715 1153 750 1153 z "},"Ạ":{"ha":1057,"x_min":28,"x_max":1029,"o":"m 908 0 l 775 333 l 280 333 l 147 0 l 28 0 l 446 1028 l 611 1028 l 1029 0 l 908 0 m 319 428 l 736 428 l 528 949 l 319 428 m 529 -242 q 470 -225 491 -242 q 450 -178 450 -208 q 470 -132 450 -149 q 529 -114 491 -114 q 588 -132 567 -114 q 608 -178 608 -149 q 588 -225 608 -208 q 529 -242 567 -242 z "},"À":{"ha":1057,"x_min":28,"x_max":1029,"o":"m 908 0 l 775 333 l 280 333 l 147 0 l 28 0 l 446 1028 l 611 1028 l 1029 0 l 908 0 m 319 428 l 736 428 l 528 949 l 319 428 m 473 1117 l 303 1314 l 433 1314 l 584 1117 l 473 1117 z "},"Ả":{"ha":1057,"x_min":28,"x_max":1029,"o":"m 908 0 l 775 333 l 280 333 l 147 0 l 28 0 l 446 1028 l 611 1028 l 1029 0 l 908 0 m 319 428 l 736 428 l 528 949 l 319 428 m 492 1117 q 513 1160 493 1145 q 569 1190 533 1175 q 607 1209 595 1200 q 619 1231 619 1217 q 599 1255 619 1247 q 532 1264 579 1264 q 458 1259 492 1264 q 383 1242 425 1254 l 383 1296 q 538 1319 451 1319 q 652 1297 615 1319 q 689 1237 689 1275 q 670 1193 689 1208 q 618 1163 652 1177 q 579 1142 592 1151 q 564 1117 566 1132 l 492 1117 z "},"Ȃ":{"ha":1057,"x_min":28,"x_max":1029,"o":"m 908 0 l 775 333 l 280 333 l 147 0 l 28 0 l 446 1028 l 611 1028 l 1029 0 l 908 0 m 319 428 l 736 428 l 528 949 l 319 428 m 276 1131 q 349 1259 287 1211 q 528 1308 410 1308 q 707 1259 644 1308 q 781 1131 770 1210 l 701 1131 q 651 1211 692 1183 q 528 1240 610 1240 q 405 1211 444 1240 q 356 1131 365 1183 l 276 1131 z "},"Ā":{"ha":1057,"x_min":28,"x_max":1029,"o":"m 908 0 l 775 333 l 280 333 l 147 0 l 28 0 l 446 1028 l 611 1028 l 1029 0 l 908 0 m 319 428 l 736 428 l 528 949 l 319 428 m 295 1178 l 295 1253 l 762 1253 l 762 1178 l 295 1178 z "},"Ą":{"ha":1057,"x_min":28,"x_max":1107,"o":"m 984 -232 q 1039 -226 1011 -232 q 1107 -206 1067 -220 l 1107 -262 q 973 -288 1042 -288 q 845 -255 889 -288 q 801 -160 801 -221 q 827 -74 801 -114 q 913 0 853 -35 l 908 0 l 775 333 l 280 333 l 147 0 l 28 0 l 446 1028 l 611 1028 l 1029 0 q 909 -73 943 -37 q 875 -153 875 -109 q 903 -211 875 -191 q 984 -232 931 -232 m 319 428 l 736 428 l 528 949 l 319 428 z "},"Å":{"ha":1057,"x_min":28,"x_max":1029,"o":"m 908 0 l 775 333 l 280 333 l 147 0 l 28 0 l 446 1028 l 611 1028 l 1029 0 l 908 0 m 319 428 l 736 428 l 528 949 l 319 428 m 528 1112 q 459 1129 490 1112 q 410 1177 428 1147 q 393 1246 393 1208 q 410 1315 393 1284 q 459 1363 428 1346 q 528 1381 490 1381 q 598 1363 567 1381 q 647 1315 629 1346 q 664 1246 664 1284 q 647 1177 664 1208 q 598 1129 629 1147 q 528 1112 567 1112 m 528 1163 q 587 1186 565 1163 q 610 1246 610 1208 q 587 1307 610 1284 q 528 1329 565 1329 q 470 1307 492 1329 q 447 1246 447 1284 q 470 1186 447 1208 q 528 1163 492 1163 z "},"Ǻ":{"ha":1057,"x_min":28,"x_max":1029,"o":"m 908 0 l 775 333 l 280 333 l 147 0 l 28 0 l 446 1028 l 611 1028 l 1029 0 l 908 0 m 319 428 l 736 428 l 528 949 l 319 428 m 640 1326 q 664 1246 664 1292 q 647 1177 664 1208 q 598 1129 629 1147 q 528 1112 567 1112 q 459 1129 490 1112 q 410 1177 428 1147 q 393 1246 393 1208 q 410 1315 393 1284 q 459 1363 428 1346 q 528 1381 490 1381 q 589 1368 559 1381 l 675 1458 l 768 1458 l 640 1326 m 528 1163 q 587 1186 565 1163 q 610 1246 610 1208 q 587 1307 610 1284 q 528 1329 565 1329 q 470 1307 492 1329 q 447 1246 447 1284 q 470 1186 447 1208 q 528 1163 492 1163 z "},"Ã":{"ha":1057,"x_min":28,"x_max":1029,"o":"m 908 0 l 775 333 l 280 333 l 147 0 l 28 0 l 446 1028 l 611 1028 l 1029 0 l 908 0 m 319 428 l 736 428 l 528 949 l 319 428 m 647 1160 q 586 1167 615 1160 q 517 1187 558 1174 q 457 1205 481 1199 q 408 1210 433 1210 q 336 1199 367 1210 q 276 1163 306 1188 l 276 1239 q 333 1273 301 1262 q 410 1283 365 1283 q 471 1276 442 1283 q 540 1256 499 1269 q 599 1238 574 1244 q 649 1232 624 1232 q 720 1243 690 1232 q 781 1280 751 1255 l 781 1203 q 724 1170 756 1181 q 647 1160 692 1160 z "},"Æ":{"ha":1438,"x_min":28,"x_max":1366,"o":"m 835 96 l 1366 96 l 1366 0 l 724 0 l 697 333 l 283 333 l 147 0 l 28 0 l 451 1028 l 1359 1028 l 1359 932 l 762 932 l 793 575 l 1289 575 l 1289 480 l 801 480 l 835 96 m 322 428 l 688 428 l 646 932 l 527 932 l 322 428 z "},"Ǽ":{"ha":1438,"x_min":28,"x_max":1366,"o":"m 835 96 l 1366 96 l 1366 0 l 724 0 l 697 333 l 283 333 l 147 0 l 28 0 l 451 1028 l 1359 1028 l 1359 932 l 762 932 l 793 575 l 1289 575 l 1289 480 l 801 480 l 835 96 m 322 428 l 688 428 l 646 932 l 527 932 l 322 428 m 643 1117 l 794 1314 l 924 1314 l 754 1117 l 643 1117 z "},"B":{"ha":963,"x_min":135,"x_max":906,"o":"m 688 530 q 852 448 797 512 q 906 283 906 383 q 859 122 906 187 q 704 24 811 58 q 422 -9 597 -9 q 135 10 281 -9 l 135 1006 q 290 1031 213 1022 q 456 1039 368 1039 q 776 970 675 1039 q 877 762 877 901 q 830 612 877 672 q 688 530 783 551 m 466 948 q 251 931 344 948 l 251 573 l 500 573 q 700 617 635 573 q 764 758 764 662 q 734 868 764 826 q 639 928 703 909 q 466 948 574 948 m 446 82 q 655 105 578 82 q 763 172 731 128 q 795 288 795 217 q 727 435 795 389 q 515 482 660 482 l 251 482 l 251 94 q 341 85 296 88 q 446 82 386 82 z "},"C":{"ha":922,"x_min":86,"x_max":881,"o":"m 612 -13 q 224 113 362 -13 q 86 512 86 240 q 150 807 86 689 q 334 983 214 925 q 623 1041 453 1041 q 756 1033 694 1041 q 881 1007 817 1024 l 881 906 q 628 940 759 940 q 317 837 422 940 q 211 515 211 735 q 316 188 211 288 q 618 88 420 88 q 750 98 688 88 q 881 130 812 108 l 881 28 q 612 -13 758 -13 z "},"Ć":{"ha":922,"x_min":86,"x_max":881,"o":"m 612 -13 q 224 113 362 -13 q 86 512 86 240 q 150 807 86 689 q 334 983 214 925 q 623 1041 453 1041 q 756 1033 694 1041 q 881 1007 817 1024 l 881 906 q 628 940 759 940 q 317 837 422 940 q 211 515 211 735 q 316 188 211 288 q 618 88 420 88 q 750 98 688 88 q 881 130 812 108 l 881 28 q 612 -13 758 -13 m 492 1117 l 644 1314 l 774 1314 l 603 1117 l 492 1117 z "},"Č":{"ha":922,"x_min":86,"x_max":881,"o":"m 612 -13 q 224 113 362 -13 q 86 512 86 240 q 150 807 86 689 q 334 983 214 925 q 623 1041 453 1041 q 756 1033 694 1041 q 881 1007 817 1024 l 881 906 q 628 940 759 940 q 317 837 422 940 q 211 515 211 735 q 316 188 211 288 q 618 88 420 88 q 750 98 688 88 q 881 130 812 108 l 881 28 q 612 -13 758 -13 m 696 1314 l 808 1314 l 602 1117 l 495 1117 l 290 1314 l 401 1314 l 549 1169 l 696 1314 z "},"Ç":{"ha":922,"x_min":86,"x_max":881,"o":"m 628 940 q 317 837 422 940 q 211 515 211 735 q 316 188 211 288 q 618 88 420 88 q 750 98 688 88 q 881 130 812 108 l 881 28 q 612 -13 758 -13 l 587 -13 l 587 -70 q 685 -102 651 -74 q 720 -178 720 -129 q 677 -260 720 -232 q 557 -288 635 -288 q 481 -281 519 -288 q 413 -262 443 -274 l 413 -206 q 553 -234 485 -234 q 627 -220 602 -234 q 651 -176 651 -206 q 626 -132 651 -146 q 553 -117 601 -117 l 522 -117 l 522 -9 q 200 138 314 12 q 86 512 86 265 q 150 807 86 689 q 334 983 214 925 q 623 1041 453 1041 q 756 1033 694 1041 q 881 1007 817 1024 l 881 906 q 628 940 759 940 z "},"Ḉ":{"ha":922,"x_min":86,"x_max":881,"o":"m 774 1314 l 603 1117 l 492 1117 l 644 1314 l 774 1314 m 628 940 q 317 837 422 940 q 211 515 211 735 q 316 188 211 288 q 618 88 420 88 q 750 98 688 88 q 881 130 812 108 l 881 28 q 612 -13 758 -13 l 587 -13 l 587 -70 q 685 -102 651 -74 q 720 -178 720 -129 q 677 -260 720 -232 q 557 -288 635 -288 q 481 -281 519 -288 q 413 -262 443 -274 l 413 -206 q 553 -234 485 -234 q 627 -220 602 -234 q 651 -176 651 -206 q 626 -132 651 -146 q 553 -117 601 -117 l 522 -117 l 522 -9 q 200 138 314 12 q 86 512 86 265 q 150 807 86 689 q 334 983 214 925 q 623 1041 453 1041 q 756 1033 694 1041 q 881 1007 817 1024 l 881 906 q 628 940 759 940 z "},"Ĉ":{"ha":922,"x_min":86,"x_max":881,"o":"m 612 -13 q 224 113 362 -13 q 86 512 86 240 q 150 807 86 689 q 334 983 214 925 q 623 1041 453 1041 q 756 1033 694 1041 q 881 1007 817 1024 l 881 906 q 628 940 759 940 q 317 837 422 940 q 211 515 211 735 q 316 188 211 288 q 618 88 420 88 q 750 98 688 88 q 881 130 812 108 l 881 28 q 612 -13 758 -13 m 808 1117 l 696 1117 l 549 1261 l 401 1117 l 290 1117 l 495 1314 l 602 1314 l 808 1117 z "},"Ċ":{"ha":922,"x_min":86,"x_max":881,"o":"m 612 -13 q 224 113 362 -13 q 86 512 86 240 q 150 807 86 689 q 334 983 214 925 q 623 1041 453 1041 q 756 1033 694 1041 q 881 1007 817 1024 l 881 906 q 628 940 759 940 q 317 837 422 940 q 211 515 211 735 q 316 188 211 288 q 618 88 420 88 q 750 98 688 88 q 881 130 812 108 l 881 28 q 612 -13 758 -13 m 549 1153 q 490 1170 510 1153 q 469 1216 469 1187 q 490 1264 469 1246 q 549 1281 510 1281 q 607 1264 587 1281 q 628 1216 628 1246 q 607 1170 628 1187 q 549 1153 587 1153 z "},"D":{"ha":1110,"x_min":135,"x_max":1024,"o":"m 424 -8 q 135 10 276 -8 l 135 1006 q 289 1029 206 1021 q 449 1038 373 1038 q 878 907 733 1038 q 1024 514 1024 776 q 874 120 1024 249 q 424 -8 724 -8 m 447 92 q 789 195 677 92 q 901 515 901 298 q 789 835 901 731 q 450 939 677 939 q 253 922 362 939 l 253 103 q 447 92 336 92 z "},"Ǳ":{"ha":1981,"x_min":135,"x_max":1931,"o":"m 424 -8 q 135 10 276 -8 l 135 1006 q 289 1029 206 1021 q 449 1038 373 1038 q 878 907 733 1038 q 1024 514 1024 776 q 874 120 1024 249 q 424 -8 724 -8 m 447 92 q 789 195 677 92 q 901 515 901 298 q 789 835 901 731 q 450 939 677 939 q 253 922 362 939 l 253 103 q 447 92 336 92 m 1279 98 l 1931 98 l 1931 0 l 1121 0 l 1121 65 l 1763 930 l 1130 930 l 1130 1028 l 1922 1028 l 1922 963 l 1279 98 z "},"Ǆ":{"ha":1981,"x_min":135,"x_max":1931,"o":"m 424 -8 q 135 10 276 -8 l 135 1006 q 289 1029 206 1021 q 449 1038 373 1038 q 878 907 733 1038 q 1024 514 1024 776 q 874 120 1024 249 q 424 -8 724 -8 m 447 92 q 789 195 677 92 q 901 515 901 298 q 789 835 901 731 q 450 939 677 939 q 253 922 362 939 l 253 103 q 447 92 336 92 m 1279 98 l 1931 98 l 1931 0 l 1121 0 l 1121 65 l 1763 930 l 1130 930 l 1130 1028 l 1922 1028 l 1922 963 l 1279 98 m 1673 1314 l 1785 1314 l 1579 1117 l 1472 1117 l 1267 1314 l 1378 1314 l 1526 1169 l 1673 1314 z "},"Ð":{"ha":1110,"x_min":5,"x_max":1024,"o":"m 449 1038 q 878 907 733 1038 q 1024 514 1024 776 q 874 120 1024 249 q 424 -8 724 -8 q 135 10 276 -8 l 135 489 l 5 489 l 5 569 l 135 569 l 135 1006 q 289 1029 206 1021 q 449 1038 373 1038 m 447 92 q 789 195 677 92 q 901 515 901 298 q 789 835 901 731 q 450 939 677 939 q 253 922 362 939 l 253 569 l 524 569 l 524 489 l 253 489 l 253 103 q 447 92 336 92 z "},"Ď":{"ha":1110,"x_min":135,"x_max":1024,"o":"m 424 -8 q 135 10 276 -8 l 135 1006 q 289 1029 206 1021 q 449 1038 373 1038 q 878 907 733 1038 q 1024 514 1024 776 q 874 120 1024 249 q 424 -8 724 -8 m 447 92 q 789 195 677 92 q 901 515 901 298 q 789 835 901 731 q 450 939 677 939 q 253 922 362 939 l 253 103 q 447 92 336 92 m 649 1314 l 761 1314 l 556 1117 l 449 1117 l 243 1314 l 355 1314 l 502 1169 l 649 1314 z "},"Đ":{"ha":1110,"x_min":5,"x_max":1024,"o":"m 449 1038 q 878 907 733 1038 q 1024 514 1024 776 q 874 120 1024 249 q 424 -8 724 -8 q 135 10 276 -8 l 135 489 l 5 489 l 5 569 l 135 569 l 135 1006 q 289 1029 206 1021 q 449 1038 373 1038 m 447 92 q 789 195 677 92 q 901 515 901 298 q 789 835 901 731 q 450 939 677 939 q 253 922 362 939 l 253 569 l 524 569 l 524 489 l 253 489 l 253 103 q 447 92 336 92 z "},"Ḍ":{"ha":1110,"x_min":135,"x_max":1024,"o":"m 424 -8 q 135 10 276 -8 l 135 1006 q 289 1029 206 1021 q 449 1038 373 1038 q 878 907 733 1038 q 1024 514 1024 776 q 874 120 1024 249 q 424 -8 724 -8 m 447 92 q 789 195 677 92 q 901 515 901 298 q 789 835 901 731 q 450 939 677 939 q 253 922 362 939 l 253 103 q 447 92 336 92 m 506 -242 q 447 -225 467 -242 q 426 -178 426 -208 q 447 -132 426 -149 q 506 -114 467 -114 q 564 -132 544 -114 q 585 -178 585 -149 q 564 -225 585 -208 q 506 -242 544 -242 z "},"Ḏ":{"ha":1110,"x_min":135,"x_max":1024,"o":"m 424 -8 q 135 10 276 -8 l 135 1006 q 289 1029 206 1021 q 449 1038 373 1038 q 878 907 733 1038 q 1024 514 1024 776 q 874 120 1024 249 q 424 -8 724 -8 m 447 92 q 789 195 677 92 q 901 515 901 298 q 789 835 901 731 q 450 939 677 939 q 253 922 362 939 l 253 103 q 447 92 336 92 m 272 -215 l 272 -140 l 739 -140 l 739 -215 l 272 -215 z "},"ǲ":{"ha":1846,"x_min":135,"x_max":1801,"o":"m 424 -8 q 135 10 276 -8 l 135 1006 q 289 1029 206 1021 q 449 1038 373 1038 q 878 907 733 1038 q 1024 514 1024 776 q 874 120 1024 249 q 424 -8 724 -8 m 447 92 q 789 195 677 92 q 901 515 901 298 q 789 835 901 731 q 450 939 677 939 q 253 922 362 939 l 253 103 q 447 92 336 92 m 1319 97 l 1801 97 l 1801 0 l 1161 0 l 1161 74 l 1633 657 l 1170 657 l 1170 753 l 1792 753 l 1792 680 l 1319 97 z "},"ǅ":{"ha":1846,"x_min":135,"x_max":1801,"o":"m 424 -8 q 135 10 276 -8 l 135 1006 q 289 1029 206 1021 q 449 1038 373 1038 q 878 907 733 1038 q 1024 514 1024 776 q 874 120 1024 249 q 424 -8 724 -8 m 447 92 q 789 195 677 92 q 901 515 901 298 q 789 835 901 731 q 450 939 677 939 q 253 922 362 939 l 253 103 q 447 92 336 92 m 1319 97 l 1801 97 l 1801 0 l 1161 0 l 1161 74 l 1633 657 l 1170 657 l 1170 753 l 1792 753 l 1792 680 l 1319 97 m 1628 1092 l 1740 1092 l 1535 894 l 1428 894 l 1222 1092 l 1334 1092 l 1481 947 l 1628 1092 z "},"E":{"ha":929,"x_min":135,"x_max":858,"o":"m 253 96 l 858 96 l 858 0 l 135 0 l 135 1028 l 851 1028 l 851 932 l 253 932 l 253 575 l 781 575 l 781 480 l 253 480 l 253 96 z "},"É":{"ha":929,"x_min":135,"x_max":858,"o":"m 253 96 l 858 96 l 858 0 l 135 0 l 135 1028 l 851 1028 l 851 932 l 253 932 l 253 575 l 781 575 l 781 480 l 253 480 l 253 96 m 451 1117 l 603 1314 l 733 1314 l 563 1117 l 451 1117 z "},"Ĕ":{"ha":929,"x_min":135,"x_max":858,"o":"m 253 96 l 858 96 l 858 0 l 135 0 l 135 1028 l 851 1028 l 851 932 l 253 932 l 253 575 l 781 575 l 781 480 l 253 480 l 253 96 m 508 1123 q 328 1172 391 1123 q 256 1299 266 1220 l 335 1299 q 385 1219 344 1248 q 508 1191 426 1191 q 631 1219 592 1191 q 681 1299 671 1247 l 760 1299 q 688 1171 749 1219 q 508 1123 626 1123 z "},"Ě":{"ha":929,"x_min":135,"x_max":858,"o":"m 253 96 l 858 96 l 858 0 l 135 0 l 135 1028 l 851 1028 l 851 932 l 253 932 l 253 575 l 781 575 l 781 480 l 253 480 l 253 96 m 655 1314 l 767 1314 l 561 1117 l 454 1117 l 249 1314 l 360 1314 l 508 1169 l 655 1314 z "},"Ḝ":{"ha":929,"x_min":135,"x_max":858,"o":"m 508 1123 q 328 1172 391 1123 q 256 1299 266 1220 l 335 1299 q 385 1219 344 1248 q 508 1191 426 1191 q 631 1219 592 1191 q 681 1299 671 1247 l 760 1299 q 688 1171 749 1219 q 508 1123 626 1123 m 538 0 l 538 -70 q 636 -102 601 -74 q 671 -178 671 -129 q 628 -260 671 -232 q 508 -288 585 -288 q 432 -281 469 -288 q 363 -262 394 -274 l 363 -206 q 504 -234 436 -234 q 577 -220 553 -234 q 602 -176 602 -206 q 577 -132 602 -146 q 503 -117 552 -117 l 473 -117 l 473 0 l 135 0 l 135 1028 l 851 1028 l 851 932 l 253 932 l 253 575 l 781 575 l 781 480 l 253 480 l 253 96 l 858 96 l 858 0 l 538 0 z "},"Ê":{"ha":929,"x_min":135,"x_max":858,"o":"m 253 96 l 858 96 l 858 0 l 135 0 l 135 1028 l 851 1028 l 851 932 l 253 932 l 253 575 l 781 575 l 781 480 l 253 480 l 253 96 m 767 1117 l 655 1117 l 508 1261 l 360 1117 l 249 1117 l 454 1314 l 561 1314 l 767 1117 z "},"Ế":{"ha":929,"x_min":135,"x_max":922,"o":"m 253 96 l 858 96 l 858 0 l 135 0 l 135 1028 l 851 1028 l 851 932 l 253 932 l 253 575 l 781 575 l 781 480 l 253 480 l 253 96 m 822 1433 l 922 1433 l 771 1251 l 688 1251 l 822 1433 m 454 1306 l 561 1306 l 767 1117 l 655 1117 l 508 1258 l 360 1117 l 249 1117 l 454 1306 z "},"Ệ":{"ha":929,"x_min":135,"x_max":858,"o":"m 253 96 l 858 96 l 858 0 l 135 0 l 135 1028 l 851 1028 l 851 932 l 253 932 l 253 575 l 781 575 l 781 480 l 253 480 l 253 96 m 510 -242 q 451 -225 472 -242 q 431 -178 431 -208 q 451 -132 431 -149 q 510 -114 472 -114 q 568 -132 548 -114 q 589 -178 589 -149 q 568 -225 589 -208 q 510 -242 548 -242 m 767 1117 l 655 1117 l 508 1261 l 360 1117 l 249 1117 l 454 1314 l 561 1314 l 767 1117 z "},"Ề":{"ha":929,"x_min":135,"x_max":858,"o":"m 253 96 l 858 96 l 858 0 l 135 0 l 135 1028 l 851 1028 l 851 932 l 253 932 l 253 575 l 781 575 l 781 480 l 253 480 l 253 96 m 788 1251 l 706 1251 l 554 1433 l 654 1433 l 788 1251 m 454 1306 l 561 1306 l 767 1117 l 655 1117 l 508 1258 l 360 1117 l 249 1117 l 454 1306 z "},"Ể":{"ha":929,"x_min":135,"x_max":886,"o":"m 253 96 l 858 96 l 858 0 l 135 0 l 135 1028 l 851 1028 l 851 932 l 253 932 l 253 575 l 781 575 l 781 480 l 253 480 l 253 96 m 735 1444 q 849 1423 812 1444 q 886 1365 886 1402 q 868 1323 886 1338 q 815 1294 849 1308 q 776 1274 789 1283 q 760 1251 763 1265 l 689 1251 q 701 1283 690 1270 q 726 1304 712 1297 q 765 1322 741 1312 q 804 1340 792 1332 q 817 1361 817 1348 q 728 1393 817 1393 q 656 1388 689 1393 q 581 1372 623 1383 l 581 1422 q 735 1444 646 1444 m 454 1306 l 561 1306 l 767 1117 l 655 1117 l 508 1258 l 360 1117 l 249 1117 l 454 1306 z "},"Ễ":{"ha":929,"x_min":135,"x_max":858,"o":"m 253 96 l 858 96 l 858 0 l 135 0 l 135 1028 l 851 1028 l 851 932 l 253 932 l 253 575 l 781 575 l 781 480 l 253 480 l 253 96 m 628 1397 q 699 1408 667 1397 q 767 1444 732 1419 l 767 1379 q 703 1347 737 1357 q 627 1337 669 1337 q 566 1343 595 1337 q 494 1363 538 1350 q 433 1380 455 1375 q 388 1385 410 1385 q 317 1374 349 1385 q 249 1338 284 1363 l 249 1403 q 313 1435 278 1425 q 388 1445 347 1445 q 449 1439 420 1445 q 522 1419 478 1432 q 583 1402 560 1407 q 628 1397 605 1397 m 454 1306 l 561 1306 l 767 1117 l 655 1117 l 508 1258 l 360 1117 l 249 1117 l 454 1306 z "},"Ȅ":{"ha":929,"x_min":135,"x_max":858,"o":"m 253 96 l 858 96 l 858 0 l 135 0 l 135 1028 l 851 1028 l 851 932 l 253 932 l 253 575 l 781 575 l 781 480 l 253 480 l 253 96 m 333 1117 l 215 1314 l 313 1314 l 425 1117 l 333 1117 m 590 1117 l 472 1314 l 570 1314 l 682 1117 l 590 1117 z "},"Ë":{"ha":929,"x_min":135,"x_max":858,"o":"m 253 96 l 858 96 l 858 0 l 135 0 l 135 1028 l 851 1028 l 851 932 l 253 932 l 253 575 l 781 575 l 781 480 l 253 480 l 253 96 m 321 1153 q 267 1170 286 1153 q 249 1216 249 1187 q 267 1264 249 1246 q 321 1281 286 1281 q 374 1264 356 1281 q 393 1216 393 1246 q 374 1170 393 1187 q 321 1153 356 1153 m 694 1153 q 641 1170 660 1153 q 622 1216 622 1187 q 641 1264 622 1246 q 694 1281 660 1281 q 748 1264 729 1281 q 767 1216 767 1246 q 748 1170 767 1187 q 694 1153 729 1153 z "},"Ė":{"ha":929,"x_min":135,"x_max":858,"o":"m 253 96 l 858 96 l 858 0 l 135 0 l 135 1028 l 851 1028 l 851 932 l 253 932 l 253 575 l 781 575 l 781 480 l 253 480 l 253 96 m 508 1153 q 449 1170 469 1153 q 428 1216 428 1187 q 449 1264 428 1246 q 508 1281 469 1281 q 566 1264 546 1281 q 587 1216 587 1246 q 566 1170 587 1187 q 508 1153 546 1153 z "},"Ẹ":{"ha":929,"x_min":135,"x_max":858,"o":"m 253 96 l 858 96 l 858 0 l 135 0 l 135 1028 l 851 1028 l 851 932 l 253 932 l 253 575 l 781 575 l 781 480 l 253 480 l 253 96 m 510 -242 q 451 -225 472 -242 q 431 -178 431 -208 q 451 -132 431 -149 q 510 -114 472 -114 q 568 -132 548 -114 q 589 -178 589 -149 q 568 -225 589 -208 q 510 -242 548 -242 z "},"È":{"ha":929,"x_min":135,"x_max":858,"o":"m 253 96 l 858 96 l 858 0 l 135 0 l 135 1028 l 851 1028 l 851 932 l 253 932 l 253 575 l 781 575 l 781 480 l 253 480 l 253 96 m 452 1117 l 282 1314 l 412 1314 l 563 1117 l 452 1117 z "},"Ẻ":{"ha":929,"x_min":135,"x_max":858,"o":"m 253 96 l 858 96 l 858 0 l 135 0 l 135 1028 l 851 1028 l 851 932 l 253 932 l 253 575 l 781 575 l 781 480 l 253 480 l 253 96 m 471 1117 q 492 1160 472 1145 q 548 1190 512 1175 q 586 1209 574 1200 q 599 1231 599 1217 q 578 1255 599 1247 q 511 1264 558 1264 q 438 1259 471 1264 q 363 1242 404 1254 l 363 1296 q 517 1319 430 1319 q 631 1297 594 1319 q 668 1237 668 1275 q 650 1193 668 1208 q 597 1163 631 1177 q 558 1142 572 1151 q 543 1117 545 1132 l 471 1117 z "},"Ȇ":{"ha":929,"x_min":135,"x_max":858,"o":"m 253 96 l 858 96 l 858 0 l 135 0 l 135 1028 l 851 1028 l 851 932 l 253 932 l 253 575 l 781 575 l 781 480 l 253 480 l 253 96 m 256 1131 q 328 1259 266 1211 q 507 1308 390 1308 q 686 1259 624 1308 q 760 1131 749 1210 l 681 1131 q 630 1211 671 1183 q 507 1240 590 1240 q 384 1211 424 1240 q 335 1131 344 1183 l 256 1131 z "},"Ē":{"ha":929,"x_min":135,"x_max":858,"o":"m 253 96 l 858 96 l 858 0 l 135 0 l 135 1028 l 851 1028 l 851 932 l 253 932 l 253 575 l 781 575 l 781 480 l 253 480 l 253 96 m 274 1178 l 274 1253 l 741 1253 l 741 1178 l 274 1178 z "},"Ḗ":{"ha":929,"x_min":135,"x_max":858,"o":"m 253 96 l 858 96 l 858 0 l 135 0 l 135 1028 l 851 1028 l 851 932 l 253 932 l 253 575 l 781 575 l 781 480 l 253 480 l 253 96 m 447 1326 l 597 1488 l 739 1488 l 569 1326 l 447 1326 m 274 1178 l 274 1253 l 741 1253 l 741 1178 l 274 1178 z "},"Ḕ":{"ha":929,"x_min":135,"x_max":858,"o":"m 253 96 l 858 96 l 858 0 l 135 0 l 135 1028 l 851 1028 l 851 932 l 253 932 l 253 575 l 781 575 l 781 480 l 253 480 l 253 96 m 447 1326 l 276 1488 l 417 1488 l 569 1326 l 447 1326 m 274 1178 l 274 1253 l 741 1253 l 741 1178 l 274 1178 z "},"Ę":{"ha":929,"x_min":135,"x_max":877,"o":"m 754 -232 q 809 -226 781 -232 q 877 -206 838 -220 l 877 -262 q 743 -288 812 -288 q 615 -255 659 -288 q 571 -160 571 -221 q 597 -74 571 -114 q 683 0 623 -35 l 135 0 l 135 1028 l 851 1028 l 851 932 l 253 932 l 253 575 l 781 575 l 781 480 l 253 480 l 253 96 l 858 96 l 858 0 l 799 0 q 679 -73 713 -37 q 645 -153 645 -109 q 673 -211 645 -191 q 754 -232 701 -232 z "},"Ẽ":{"ha":929,"x_min":135,"x_max":858,"o":"m 253 96 l 858 96 l 858 0 l 135 0 l 135 1028 l 851 1028 l 851 932 l 253 932 l 253 575 l 781 575 l 781 480 l 253 480 l 253 96 m 626 1160 q 565 1167 594 1160 q 497 1187 537 1174 q 436 1205 460 1199 q 388 1210 413 1210 q 316 1199 347 1210 q 256 1163 285 1188 l 256 1239 q 312 1273 280 1262 q 390 1283 344 1283 q 450 1276 422 1283 q 519 1256 478 1269 q 578 1238 553 1244 q 628 1232 603 1232 q 700 1243 669 1232 q 760 1280 731 1255 l 760 1203 q 703 1170 735 1181 q 626 1160 671 1160 z "},"F":{"ha":901,"x_min":135,"x_max":846,"o":"m 846 931 l 253 931 l 253 567 l 774 567 l 774 470 l 253 470 l 253 0 l 135 0 l 135 1028 l 846 1028 l 846 931 z "},"G":{"ha":1071,"x_min":86,"x_max":942,"o":"m 942 500 l 942 14 q 802 -4 865 1 q 671 -9 740 -9 q 234 122 381 -9 q 86 511 87 253 q 155 806 86 688 q 350 983 224 925 q 648 1041 476 1041 q 911 1007 774 1041 l 911 906 q 779 932 840 924 q 656 940 718 940 q 328 836 445 940 q 210 515 210 733 q 666 92 210 92 q 829 101 751 92 l 829 500 l 942 500 z "},"Ǵ":{"ha":1071,"x_min":86,"x_max":942,"o":"m 942 500 l 942 14 q 802 -4 865 1 q 671 -9 740 -9 q 234 122 381 -9 q 86 511 87 253 q 155 806 86 688 q 350 983 224 925 q 648 1041 476 1041 q 911 1007 774 1041 l 911 906 q 779 932 840 924 q 656 940 718 940 q 328 836 445 940 q 210 515 210 733 q 666 92 210 92 q 829 101 751 92 l 829 500 l 942 500 m 524 1117 l 675 1314 l 805 1314 l 635 1117 l 524 1117 z "},"Ğ":{"ha":1071,"x_min":86,"x_max":942,"o":"m 942 500 l 942 14 q 802 -4 865 1 q 671 -9 740 -9 q 234 122 381 -9 q 86 511 87 253 q 155 806 86 688 q 350 983 224 925 q 648 1041 476 1041 q 911 1007 774 1041 l 911 906 q 779 932 840 924 q 656 940 718 940 q 328 836 445 940 q 210 515 210 733 q 666 92 210 92 q 829 101 751 92 l 829 500 l 942 500 m 581 1123 q 401 1172 463 1123 q 328 1299 338 1220 l 407 1299 q 457 1219 417 1248 q 581 1191 498 1191 q 703 1219 664 1191 q 753 1299 743 1247 l 832 1299 q 760 1171 822 1219 q 581 1123 698 1123 z "},"Ǧ":{"ha":1071,"x_min":86,"x_max":942,"o":"m 942 500 l 942 14 q 802 -4 865 1 q 671 -9 740 -9 q 234 122 381 -9 q 86 511 87 253 q 155 806 86 688 q 350 983 224 925 q 648 1041 476 1041 q 911 1007 774 1041 l 911 906 q 779 932 840 924 q 656 940 718 940 q 328 836 445 940 q 210 515 210 733 q 666 92 210 92 q 829 101 751 92 l 829 500 l 942 500 m 727 1314 l 839 1314 l 633 1117 l 526 1117 l 321 1314 l 433 1314 l 580 1169 l 727 1314 z "},"Ĝ":{"ha":1071,"x_min":86,"x_max":942,"o":"m 942 500 l 942 14 q 802 -4 865 1 q 671 -9 740 -9 q 234 122 381 -9 q 86 511 87 253 q 155 806 86 688 q 350 983 224 925 q 648 1041 476 1041 q 911 1007 774 1041 l 911 906 q 779 932 840 924 q 656 940 718 940 q 328 836 445 940 q 210 515 210 733 q 666 92 210 92 q 829 101 751 92 l 829 500 l 942 500 m 839 1117 l 727 1117 l 580 1261 l 433 1117 l 321 1117 l 526 1314 l 633 1314 l 839 1117 z "},"Ģ":{"ha":1071,"x_min":86,"x_max":942,"o":"m 942 500 l 942 14 q 802 -4 865 1 q 671 -9 740 -9 q 234 122 381 -9 q 86 511 87 253 q 155 806 86 688 q 350 983 224 925 q 648 1041 476 1041 q 911 1007 774 1041 l 911 906 q 779 932 840 924 q 656 940 718 940 q 328 836 445 940 q 210 515 210 733 q 666 92 210 92 q 829 101 751 92 l 829 500 l 942 500 m 578 -114 q 656 -190 656 -114 q 645 -256 656 -220 q 616 -324 635 -292 l 544 -324 q 573 -226 567 -272 q 522 -210 539 -225 q 504 -169 504 -195 q 523 -129 504 -144 q 578 -114 542 -114 z "},"Ġ":{"ha":1071,"x_min":86,"x_max":942,"o":"m 942 500 l 942 14 q 802 -4 865 1 q 671 -9 740 -9 q 234 122 381 -9 q 86 511 87 253 q 155 806 86 688 q 350 983 224 925 q 648 1041 476 1041 q 911 1007 774 1041 l 911 906 q 779 932 840 924 q 656 940 718 940 q 328 836 445 940 q 210 515 210 733 q 666 92 210 92 q 829 101 751 92 l 829 500 l 942 500 m 580 1153 q 521 1170 542 1153 q 501 1216 501 1187 q 521 1264 501 1246 q 580 1281 542 1281 q 639 1264 618 1281 q 659 1216 659 1246 q 639 1170 659 1187 q 580 1153 618 1153 z "},"Ḡ":{"ha":1071,"x_min":86,"x_max":942,"o":"m 942 500 l 942 14 q 802 -4 865 1 q 671 -9 740 -9 q 234 122 381 -9 q 86 511 87 253 q 155 806 86 688 q 350 983 224 925 q 648 1041 476 1041 q 911 1007 774 1041 l 911 906 q 779 932 840 924 q 656 940 718 940 q 328 836 445 940 q 210 515 210 733 q 666 92 210 92 q 829 101 751 92 l 829 500 l 942 500 m 347 1178 l 347 1253 l 813 1253 l 813 1178 l 347 1178 z "},"H":{"ha":1133,"x_min":135,"x_max":998,"o":"m 135 0 l 135 1028 l 253 1028 l 253 580 l 879 580 l 879 1028 l 998 1028 l 998 0 l 879 0 l 879 475 l 253 475 l 253 0 l 135 0 z "},"Ħ":{"ha":1133,"x_min":6,"x_max":1127,"o":"m 1127 847 l 1127 766 l 998 766 l 998 0 l 879 0 l 879 475 l 253 475 l 253 0 l 135 0 l 135 766 l 6 766 l 6 847 l 135 847 l 135 1028 l 253 1028 l 253 847 l 879 847 l 879 1028 l 998 1028 l 998 847 l 1127 847 m 879 580 l 879 766 l 253 766 l 253 580 l 879 580 z "},"Ḫ":{"ha":1133,"x_min":135,"x_max":998,"o":"m 135 0 l 135 1028 l 253 1028 l 253 580 l 879 580 l 879 1028 l 998 1028 l 998 0 l 879 0 l 879 475 l 253 475 l 253 0 l 135 0 m 567 -287 q 430 -263 485 -287 q 346 -199 374 -240 q 315 -107 318 -158 l 394 -107 q 567 -219 406 -219 q 694 -190 653 -219 q 740 -107 734 -160 l 819 -107 q 751 -237 814 -187 q 567 -287 689 -287 z "},"Ĥ":{"ha":1133,"x_min":135,"x_max":998,"o":"m 135 0 l 135 1028 l 253 1028 l 253 580 l 879 580 l 879 1028 l 998 1028 l 998 0 l 879 0 l 879 475 l 253 475 l 253 0 l 135 0 m 826 1117 l 714 1117 l 567 1261 l 419 1117 l 308 1117 l 513 1314 l 620 1314 l 826 1117 z "},"Ḥ":{"ha":1133,"x_min":135,"x_max":998,"o":"m 135 0 l 135 1028 l 253 1028 l 253 580 l 879 580 l 879 1028 l 998 1028 l 998 0 l 879 0 l 879 475 l 253 475 l 253 0 l 135 0 m 567 -242 q 508 -225 528 -242 q 488 -178 488 -208 q 508 -132 488 -149 q 567 -114 528 -114 q 625 -132 605 -114 q 646 -178 646 -149 q 625 -225 646 -208 q 567 -242 605 -242 z "},"I":{"ha":389,"x_min":135,"x_max":253,"o":"m 135 0 l 135 1028 l 253 1028 l 253 0 l 135 0 z "},"Í":{"ha":389,"x_min":135,"x_max":419,"o":"m 135 0 l 135 1028 l 253 1028 l 253 0 l 135 0 m 138 1117 l 290 1314 l 419 1314 l 249 1117 l 138 1117 z "},"Ĭ":{"ha":389,"x_min":-58,"x_max":447,"o":"m 135 0 l 135 1028 l 253 1028 l 253 0 l 135 0 m 195 1123 q 15 1172 78 1123 q -58 1299 -47 1220 l 22 1299 q 72 1219 31 1248 q 195 1191 113 1191 q 318 1219 278 1191 q 367 1299 358 1247 l 447 1299 q 374 1171 436 1219 q 195 1123 313 1123 z "},"Î":{"ha":389,"x_min":-65,"x_max":453,"o":"m 135 0 l 135 1028 l 253 1028 l 253 0 l 135 0 m 453 1117 l 342 1117 l 194 1261 l 47 1117 l -65 1117 l 141 1314 l 248 1314 l 453 1117 z "},"Ȉ":{"ha":389,"x_min":-99,"x_max":369,"o":"m 135 0 l 135 1028 l 253 1028 l 253 0 l 135 0 m 20 1117 l -99 1314 l 0 1314 l 112 1117 l 20 1117 m 277 1117 l 159 1314 l 257 1314 l 369 1117 l 277 1117 z "},"Ï":{"ha":389,"x_min":-65,"x_max":453,"o":"m 135 0 l 135 1028 l 253 1028 l 253 0 l 135 0 m 8 1153 q -46 1170 -27 1153 q -65 1216 -65 1187 q -46 1264 -65 1246 q 8 1281 -27 1281 q 61 1264 42 1281 q 80 1216 80 1246 q 61 1170 80 1187 q 8 1153 42 1153 m 381 1153 q 328 1170 347 1153 q 309 1216 309 1187 q 328 1264 309 1246 q 381 1281 347 1281 q 435 1264 416 1281 q 453 1216 453 1246 q 435 1170 453 1187 q 381 1153 416 1153 z "},"Ḯ":{"ha":389,"x_min":-65,"x_max":453,"o":"m 135 0 l 135 1028 l 253 1028 l 253 0 l 135 0 m 133 1326 l 283 1488 l 426 1488 l 256 1326 l 133 1326 m 8 1153 q -46 1170 -27 1153 q -65 1216 -65 1187 q -46 1264 -65 1246 q 8 1281 -27 1281 q 61 1264 42 1281 q 80 1216 80 1246 q 61 1170 80 1187 q 8 1153 42 1153 m 381 1153 q 328 1170 347 1153 q 309 1216 309 1187 q 328 1264 309 1246 q 381 1281 347 1281 q 435 1264 416 1281 q 453 1216 453 1246 q 435 1170 453 1187 q 381 1153 416 1153 z "},"İ":{"ha":389,"x_min":115,"x_max":274,"o":"m 135 0 l 135 1028 l 253 1028 l 253 0 l 135 0 m 194 1153 q 136 1170 156 1153 q 115 1216 115 1187 q 136 1264 115 1246 q 194 1281 156 1281 q 253 1264 233 1281 q 274 1216 274 1246 q 253 1170 274 1187 q 194 1153 233 1153 z "},"Ị":{"ha":389,"x_min":115,"x_max":273,"o":"m 135 0 l 135 1028 l 253 1028 l 253 0 l 135 0 m 194 -242 q 135 -225 156 -242 q 115 -178 115 -208 q 135 -132 115 -149 q 194 -114 156 -114 q 252 -132 232 -114 q 273 -178 273 -149 q 252 -225 273 -208 q 194 -242 232 -242 z "},"Ì":{"ha":389,"x_min":-31,"x_max":253,"o":"m 135 0 l 135 1028 l 253 1028 l 253 0 l 135 0 m 139 1117 l -31 1314 l 99 1314 l 250 1117 l 139 1117 z "},"Ỉ":{"ha":389,"x_min":49,"x_max":355,"o":"m 135 0 l 135 1028 l 253 1028 l 253 0 l 135 0 m 158 1117 q 179 1160 159 1145 q 235 1190 199 1175 q 273 1209 261 1200 q 285 1231 285 1217 q 265 1255 285 1247 q 198 1264 245 1264 q 124 1259 158 1264 q 49 1242 91 1254 l 49 1296 q 203 1319 117 1319 q 318 1297 281 1319 q 355 1237 355 1275 q 336 1193 355 1208 q 284 1163 318 1177 q 245 1142 258 1151 q 230 1117 232 1132 l 158 1117 z "},"Ȋ":{"ha":389,"x_min":-58,"x_max":447,"o":"m 135 0 l 135 1028 l 253 1028 l 253 0 l 135 0 m -58 1131 q 15 1259 -47 1211 q 194 1308 76 1308 q 373 1259 310 1308 q 447 1131 436 1210 l 367 1131 q 317 1211 358 1183 q 194 1240 276 1240 q 71 1211 110 1240 q 22 1131 31 1183 l -58 1131 z "},"Ī":{"ha":389,"x_min":-39,"x_max":428,"o":"m 135 0 l 135 1028 l 253 1028 l 253 0 l 135 0 m -39 1178 l -39 1253 l 428 1253 l 428 1178 l -39 1178 z "},"Į":{"ha":389,"x_min":25,"x_max":331,"o":"m 208 -232 q 264 -226 235 -232 q 331 -206 292 -220 l 331 -262 q 197 -288 266 -288 q 69 -255 113 -288 q 25 -160 25 -221 q 51 -74 25 -114 q 137 0 77 -35 l 135 0 l 135 1028 l 253 1028 l 253 0 q 133 -73 167 -37 q 99 -153 99 -109 q 127 -211 99 -191 q 208 -232 155 -232 z "},"Ĩ":{"ha":389,"x_min":-58,"x_max":447,"o":"m 135 0 l 135 1028 l 253 1028 l 253 0 l 135 0 m 313 1160 q 252 1167 281 1160 q 183 1187 224 1174 q 123 1205 147 1199 q 74 1210 99 1210 q 2 1199 33 1210 q -58 1163 -28 1188 l -58 1239 q -1 1273 -33 1262 q 76 1283 31 1283 q 137 1276 108 1283 q 206 1256 165 1269 q 265 1238 240 1244 q 315 1232 290 1232 q 386 1243 356 1232 q 447 1280 417 1255 l 447 1203 q 390 1170 422 1181 q 313 1160 358 1160 z "},"J":{"ha":389,"x_min":0,"x_max":253,"o":"m 0 -186 q 103 -8 71 -101 q 135 201 135 84 l 135 1028 l 253 1028 l 253 185 q 208 -40 248 60 q 76 -240 168 -139 l 0 -186 z "},"Ĵ":{"ha":389,"x_min":-65,"x_max":453,"o":"m 0 -186 q 103 -8 71 -101 q 135 201 135 84 l 135 1028 l 253 1028 l 253 185 q 208 -40 248 60 q 76 -240 168 -139 l 0 -186 m 453 1117 l 342 1117 l 194 1261 l 47 1117 l -65 1117 l 141 1314 l 248 1314 l 453 1117 z "},"K":{"ha":960,"x_min":135,"x_max":959,"o":"m 823 0 l 438 475 l 253 475 l 253 0 l 135 0 l 135 1028 l 253 1028 l 253 580 l 440 580 l 797 1028 l 928 1028 l 531 530 l 959 0 l 823 0 z "},"Ķ":{"ha":960,"x_min":135,"x_max":959,"o":"m 823 0 l 438 475 l 253 475 l 253 0 l 135 0 l 135 1028 l 253 1028 l 253 580 l 440 580 l 797 1028 l 928 1028 l 531 530 l 959 0 l 823 0 m 492 -114 q 569 -190 569 -114 q 559 -256 569 -220 q 530 -324 549 -292 l 458 -324 q 487 -226 481 -272 q 435 -210 453 -225 q 418 -169 418 -195 q 437 -129 418 -144 q 492 -114 456 -114 z "},"L":{"ha":843,"x_min":135,"x_max":830,"o":"m 135 0 l 135 1028 l 253 1028 l 253 99 l 830 99 l 830 0 l 135 0 z "},"Ǉ":{"ha":1232,"x_min":135,"x_max":1097,"o":"m 135 0 l 135 1028 l 253 1028 l 253 99 l 830 99 l 830 0 l 135 0 m 843 -186 q 946 -8 914 -101 q 978 201 978 84 l 978 1028 l 1097 1028 l 1097 185 q 1051 -40 1091 60 q 919 -240 1011 -139 l 843 -186 z "},"Ĺ":{"ha":843,"x_min":135,"x_max":830,"o":"m 135 0 l 135 1028 l 253 1028 l 253 99 l 830 99 l 830 0 l 135 0 m 138 1117 l 290 1314 l 419 1314 l 249 1117 l 138 1117 z "},"Ľ":{"ha":843,"x_min":135,"x_max":830,"o":"m 135 0 l 135 1028 l 253 1028 l 253 99 l 830 99 l 830 0 l 135 0 m 537 792 q 549 941 546 862 q 552 1122 552 1021 l 637 1122 q 603 792 637 926 l 537 792 z "},"Ļ":{"ha":843,"x_min":135,"x_max":830,"o":"m 135 0 l 135 1028 l 253 1028 l 253 99 l 830 99 l 830 0 l 135 0 m 481 -114 q 558 -190 558 -114 q 548 -256 558 -220 q 519 -324 538 -292 l 447 -324 q 476 -226 470 -272 q 424 -210 442 -225 q 407 -169 407 -195 q 426 -129 407 -144 q 481 -114 445 -114 z "},"Ŀ":{"ha":843,"x_min":135,"x_max":830,"o":"m 135 0 l 135 1028 l 253 1028 l 253 99 l 830 99 l 830 0 l 135 0 m 605 494 q 545 513 566 494 q 524 564 524 531 q 545 616 524 597 q 605 634 566 634 q 664 616 644 634 q 685 564 685 597 q 664 513 685 531 q 605 494 644 494 z "},"Ḷ":{"ha":843,"x_min":135,"x_max":830,"o":"m 135 0 l 135 1028 l 253 1028 l 253 99 l 830 99 l 830 0 l 135 0 m 483 -242 q 424 -225 444 -242 q 403 -178 403 -208 q 424 -132 403 -149 q 483 -114 444 -114 q 541 -132 521 -114 q 562 -178 562 -149 q 541 -225 562 -208 q 483 -242 521 -242 z "},"ǈ":{"ha":1204,"x_min":135,"x_max":1102,"o":"m 135 0 l 135 1028 l 253 1028 l 253 99 l 830 99 l 830 0 l 135 0 m 829 -270 q 933 -91 901 -184 q 965 118 965 1 l 965 753 l 1082 753 l 1082 123 q 1040 -113 1082 -8 q 905 -322 998 -219 l 829 -270 m 1022 924 q 962 942 983 924 q 941 993 941 960 q 962 1045 941 1026 q 1022 1063 983 1063 q 1081 1045 1060 1063 q 1102 993 1102 1026 q 1081 942 1102 960 q 1022 924 1060 924 z "},"Ḻ":{"ha":843,"x_min":135,"x_max":830,"o":"m 135 0 l 135 1028 l 253 1028 l 253 99 l 830 99 l 830 0 l 135 0 m 249 -215 l 249 -140 l 716 -140 l 716 -215 l 249 -215 z "},"Ł":{"ha":843,"x_min":-8,"x_max":830,"o":"m 253 99 l 830 99 l 830 0 l 135 0 l 135 460 l 33 392 l -8 460 l 135 556 l 135 1028 l 253 1028 l 253 636 l 469 782 l 510 713 l 253 540 l 253 99 z "},"M":{"ha":1351,"x_min":138,"x_max":1213,"o":"m 1074 1028 l 1213 1028 l 1213 0 l 1101 0 l 1101 863 l 730 142 l 622 142 l 250 853 l 250 0 l 138 0 l 138 1028 l 278 1028 l 678 253 l 1074 1028 z "},"Ṃ":{"ha":1351,"x_min":138,"x_max":1213,"o":"m 1074 1028 l 1213 1028 l 1213 0 l 1101 0 l 1101 863 l 730 142 l 622 142 l 250 853 l 250 0 l 138 0 l 138 1028 l 278 1028 l 678 253 l 1074 1028 m 681 -242 q 623 -225 643 -242 q 602 -178 602 -208 q 623 -132 602 -149 q 681 -114 643 -114 q 740 -132 719 -114 q 760 -178 760 -149 q 740 -225 760 -208 q 681 -242 719 -242 z "},"N":{"ha":1150,"x_min":135,"x_max":1015,"o":"m 902 1028 l 1015 1028 l 1015 0 l 893 0 l 248 863 l 248 0 l 135 0 l 135 1028 l 257 1028 l 902 165 l 902 1028 z "},"Ǌ":{"ha":1539,"x_min":135,"x_max":1403,"o":"m 902 1028 l 1015 1028 l 1015 0 l 893 0 l 248 863 l 248 0 l 135 0 l 135 1028 l 257 1028 l 902 165 l 902 1028 m 1150 -186 q 1253 -8 1221 -101 q 1285 201 1285 84 l 1285 1028 l 1403 1028 l 1403 185 q 1358 -40 1398 60 q 1226 -240 1318 -139 l 1150 -186 z "},"Ń":{"ha":1150,"x_min":135,"x_max":1015,"o":"m 902 1028 l 1015 1028 l 1015 0 l 893 0 l 248 863 l 248 0 l 135 0 l 135 1028 l 257 1028 l 902 165 l 902 1028 m 519 1117 l 671 1314 l 801 1314 l 631 1117 l 519 1117 z "},"Ň":{"ha":1150,"x_min":135,"x_max":1015,"o":"m 902 1028 l 1015 1028 l 1015 0 l 893 0 l 248 863 l 248 0 l 135 0 l 135 1028 l 257 1028 l 902 165 l 902 1028 m 723 1314 l 835 1314 l 629 1117 l 522 1117 l 317 1314 l 428 1314 l 576 1169 l 723 1314 z "},"Ņ":{"ha":1150,"x_min":135,"x_max":1015,"o":"m 902 1028 l 1015 1028 l 1015 0 l 893 0 l 248 863 l 248 0 l 135 0 l 135 1028 l 257 1028 l 902 165 l 902 1028 m 574 -114 q 651 -190 651 -114 q 641 -256 651 -220 q 612 -324 631 -292 l 540 -324 q 569 -226 563 -272 q 517 -210 535 -225 q 500 -169 500 -195 q 519 -129 500 -144 q 574 -114 538 -114 z "},"Ṅ":{"ha":1150,"x_min":135,"x_max":1015,"o":"m 902 1028 l 1015 1028 l 1015 0 l 893 0 l 248 863 l 248 0 l 135 0 l 135 1028 l 257 1028 l 902 165 l 902 1028 m 576 1153 q 517 1170 538 1153 q 497 1216 497 1187 q 517 1264 497 1246 q 576 1281 538 1281 q 634 1264 614 1281 q 655 1216 655 1246 q 634 1170 655 1187 q 576 1153 614 1153 z "},"Ṇ":{"ha":1150,"x_min":135,"x_max":1015,"o":"m 902 1028 l 1015 1028 l 1015 0 l 893 0 l 248 863 l 248 0 l 135 0 l 135 1028 l 257 1028 l 902 165 l 902 1028 m 576 -242 q 517 -225 538 -242 q 497 -178 497 -208 q 517 -132 497 -149 q 576 -114 538 -114 q 634 -132 614 -114 q 655 -178 655 -149 q 634 -225 655 -208 q 576 -242 614 -242 z "},"Ŋ":{"ha":1150,"x_min":135,"x_max":1015,"o":"m 1015 1028 l 1015 130 q 974 -112 1015 -6 q 838 -322 932 -219 l 763 -270 q 848 -140 816 -206 q 892 1 879 -74 l 248 861 l 248 0 l 135 0 l 135 1028 l 257 1028 l 902 167 l 902 1028 l 1015 1028 z "},"ǋ":{"ha":1511,"x_min":135,"x_max":1409,"o":"m 902 1028 l 1015 1028 l 1015 0 l 893 0 l 248 863 l 248 0 l 135 0 l 135 1028 l 257 1028 l 902 165 l 902 1028 m 1136 -270 q 1240 -91 1208 -184 q 1272 118 1272 1 l 1272 753 l 1389 753 l 1389 123 q 1347 -113 1389 -8 q 1212 -322 1305 -219 l 1136 -270 m 1328 924 q 1269 942 1290 924 q 1248 993 1248 960 q 1269 1045 1248 1026 q 1328 1063 1290 1063 q 1388 1045 1367 1063 q 1409 993 1409 1026 q 1388 942 1409 960 q 1328 924 1367 924 z "},"Ṉ":{"ha":1150,"x_min":135,"x_max":1015,"o":"m 902 1028 l 1015 1028 l 1015 0 l 893 0 l 248 863 l 248 0 l 135 0 l 135 1028 l 257 1028 l 902 165 l 902 1028 m 342 -215 l 342 -140 l 809 -140 l 809 -215 l 342 -215 z "},"Ñ":{"ha":1150,"x_min":135,"x_max":1015,"o":"m 902 1028 l 1015 1028 l 1015 0 l 893 0 l 248 863 l 248 0 l 135 0 l 135 1028 l 257 1028 l 902 165 l 902 1028 m 694 1160 q 633 1167 662 1160 q 565 1187 605 1174 q 504 1205 528 1199 q 456 1210 481 1210 q 384 1199 415 1210 q 324 1163 353 1188 l 324 1239 q 380 1273 348 1262 q 458 1283 413 1283 q 518 1276 490 1283 q 587 1256 547 1269 q 646 1238 622 1244 q 696 1232 671 1232 q 768 1243 737 1232 q 828 1280 799 1255 l 828 1203 q 771 1170 803 1181 q 694 1160 739 1160 z "},"O":{"ha":1148,"x_min":86,"x_max":1061,"o":"m 574 -13 q 316 45 425 -13 q 146 221 206 103 q 86 514 86 339 q 147 807 86 689 q 317 983 208 925 q 574 1041 426 1041 q 832 983 722 1041 q 1001 807 941 925 q 1061 514 1061 689 q 1000 221 1061 340 q 830 45 940 103 q 574 -13 721 -13 m 574 87 q 842 190 746 87 q 939 510 939 294 q 842 836 939 731 q 574 941 746 941 q 305 838 402 941 q 208 517 208 734 q 305 191 208 295 q 574 87 401 87 z "},"Ó":{"ha":1148,"x_min":86,"x_max":1061,"o":"m 574 -13 q 316 45 425 -13 q 146 221 206 103 q 86 514 86 339 q 147 807 86 689 q 317 983 208 925 q 574 1041 426 1041 q 832 983 722 1041 q 1001 807 941 925 q 1061 514 1061 689 q 1000 221 1061 340 q 830 45 940 103 q 574 -13 721 -13 m 574 87 q 842 190 746 87 q 939 510 939 294 q 842 836 939 731 q 574 941 746 941 q 305 838 402 941 q 208 517 208 734 q 305 191 208 295 q 574 87 401 87 m 517 1117 l 669 1314 l 799 1314 l 628 1117 l 517 1117 z "},"Ŏ":{"ha":1148,"x_min":86,"x_max":1061,"o":"m 574 -13 q 316 45 425 -13 q 146 221 206 103 q 86 514 86 339 q 147 807 86 689 q 317 983 208 925 q 574 1041 426 1041 q 832 983 722 1041 q 1001 807 941 925 q 1061 514 1061 689 q 1000 221 1061 340 q 830 45 940 103 q 574 -13 721 -13 m 574 87 q 842 190 746 87 q 939 510 939 294 q 842 836 939 731 q 574 941 746 941 q 305 838 402 941 q 208 517 208 734 q 305 191 208 295 q 574 87 401 87 m 574 1123 q 394 1172 457 1123 q 322 1299 332 1220 l 401 1299 q 451 1219 410 1248 q 574 1191 492 1191 q 697 1219 658 1191 q 747 1299 737 1247 l 826 1299 q 753 1171 815 1219 q 574 1123 692 1123 z "},"Ô":{"ha":1148,"x_min":86,"x_max":1061,"o":"m 574 -13 q 316 45 425 -13 q 146 221 206 103 q 86 514 86 339 q 147 807 86 689 q 317 983 208 925 q 574 1041 426 1041 q 832 983 722 1041 q 1001 807 941 925 q 1061 514 1061 689 q 1000 221 1061 340 q 830 45 940 103 q 574 -13 721 -13 m 574 87 q 842 190 746 87 q 939 510 939 294 q 842 836 939 731 q 574 941 746 941 q 305 838 402 941 q 208 517 208 734 q 305 191 208 295 q 574 87 401 87 m 833 1117 l 721 1117 l 574 1261 l 426 1117 l 315 1117 l 520 1314 l 627 1314 l 833 1117 z "},"Ố":{"ha":1148,"x_min":86,"x_max":1061,"o":"m 574 -13 q 316 45 425 -13 q 146 221 206 103 q 86 514 86 339 q 147 807 86 689 q 317 983 208 925 q 574 1041 426 1041 q 832 983 722 1041 q 1001 807 941 925 q 1061 514 1061 689 q 1000 221 1061 340 q 830 45 940 103 q 574 -13 721 -13 m 574 87 q 842 190 746 87 q 939 510 939 294 q 842 836 939 731 q 574 941 746 941 q 305 838 402 941 q 208 517 208 734 q 305 191 208 295 q 574 87 401 87 m 888 1433 l 988 1433 l 837 1251 l 754 1251 l 888 1433 m 520 1306 l 627 1306 l 833 1117 l 721 1117 l 574 1258 l 426 1117 l 315 1117 l 520 1306 z "},"Ộ":{"ha":1148,"x_min":86,"x_max":1061,"o":"m 574 -13 q 316 45 425 -13 q 146 221 206 103 q 86 514 86 339 q 147 807 86 689 q 317 983 208 925 q 574 1041 426 1041 q 832 983 722 1041 q 1001 807 941 925 q 1061 514 1061 689 q 1000 221 1061 340 q 830 45 940 103 q 574 -13 721 -13 m 574 87 q 842 190 746 87 q 939 510 939 294 q 842 836 939 731 q 574 941 746 941 q 305 838 402 941 q 208 517 208 734 q 305 191 208 295 q 574 87 401 87 m 574 -242 q 515 -225 535 -242 q 494 -178 494 -208 q 515 -132 494 -149 q 574 -114 535 -114 q 632 -132 612 -114 q 653 -178 653 -149 q 632 -225 653 -208 q 574 -242 612 -242 m 833 1117 l 721 1117 l 574 1261 l 426 1117 l 315 1117 l 520 1314 l 627 1314 l 833 1117 z "},"Ồ":{"ha":1148,"x_min":86,"x_max":1061,"o":"m 574 -13 q 316 45 425 -13 q 146 221 206 103 q 86 514 86 339 q 147 807 86 689 q 317 983 208 925 q 574 1041 426 1041 q 832 983 722 1041 q 1001 807 941 925 q 1061 514 1061 689 q 1000 221 1061 340 q 830 45 940 103 q 574 -13 721 -13 m 574 87 q 842 190 746 87 q 939 510 939 294 q 842 836 939 731 q 574 941 746 941 q 305 838 402 941 q 208 517 208 734 q 305 191 208 295 q 574 87 401 87 m 854 1251 l 772 1251 l 620 1433 l 720 1433 l 854 1251 m 520 1306 l 627 1306 l 833 1117 l 721 1117 l 574 1258 l 426 1117 l 315 1117 l 520 1306 z "},"Ổ":{"ha":1148,"x_min":86,"x_max":1061,"o":"m 574 -13 q 316 45 425 -13 q 146 221 206 103 q 86 514 86 339 q 147 807 86 689 q 317 983 208 925 q 574 1041 426 1041 q 832 983 722 1041 q 1001 807 941 925 q 1061 514 1061 689 q 1000 221 1061 340 q 830 45 940 103 q 574 -13 721 -13 m 574 87 q 842 190 746 87 q 939 510 939 294 q 842 836 939 731 q 574 941 746 941 q 305 838 402 941 q 208 517 208 734 q 305 191 208 295 q 574 87 401 87 m 801 1444 q 915 1423 878 1444 q 952 1365 952 1402 q 934 1323 952 1338 q 881 1294 915 1308 q 842 1274 855 1283 q 826 1251 828 1265 l 755 1251 q 767 1283 756 1270 q 792 1304 778 1297 q 831 1322 807 1312 q 870 1340 858 1332 q 883 1361 883 1348 q 794 1393 883 1393 q 722 1388 755 1393 q 647 1372 689 1383 l 647 1422 q 801 1444 712 1444 m 520 1306 l 627 1306 l 833 1117 l 721 1117 l 574 1258 l 426 1117 l 315 1117 l 520 1306 z "},"Ỗ":{"ha":1148,"x_min":86,"x_max":1061,"o":"m 574 -13 q 316 45 425 -13 q 146 221 206 103 q 86 514 86 339 q 147 807 86 689 q 317 983 208 925 q 574 1041 426 1041 q 832 983 722 1041 q 1001 807 941 925 q 1061 514 1061 689 q 1000 221 1061 340 q 830 45 940 103 q 574 -13 721 -13 m 574 87 q 842 190 746 87 q 939 510 939 294 q 842 836 939 731 q 574 941 746 941 q 305 838 402 941 q 208 517 208 734 q 305 191 208 295 q 574 87 401 87 m 694 1397 q 765 1408 733 1397 q 833 1444 798 1419 l 833 1379 q 769 1347 803 1357 q 693 1337 735 1337 q 632 1343 661 1337 q 560 1363 603 1350 q 499 1380 521 1375 q 453 1385 476 1385 q 383 1374 415 1385 q 315 1338 350 1363 l 315 1403 q 378 1435 344 1425 q 454 1445 413 1445 q 515 1439 486 1445 q 588 1419 544 1432 q 649 1402 626 1407 q 694 1397 671 1397 m 520 1306 l 627 1306 l 833 1117 l 721 1117 l 574 1258 l 426 1117 l 315 1117 l 520 1306 z "},"Ȍ":{"ha":1148,"x_min":86,"x_max":1061,"o":"m 574 -13 q 316 45 425 -13 q 146 221 206 103 q 86 514 86 339 q 147 807 86 689 q 317 983 208 925 q 574 1041 426 1041 q 832 983 722 1041 q 1001 807 941 925 q 1061 514 1061 689 q 1000 221 1061 340 q 830 45 940 103 q 574 -13 721 -13 m 574 87 q 842 190 746 87 q 939 510 939 294 q 842 836 939 731 q 574 941 746 941 q 305 838 402 941 q 208 517 208 734 q 305 191 208 295 q 574 87 401 87 m 399 1117 l 281 1314 l 379 1314 l 491 1117 l 399 1117 m 656 1117 l 538 1314 l 636 1314 l 748 1117 l 656 1117 z "},"Ö":{"ha":1148,"x_min":86,"x_max":1061,"o":"m 574 -13 q 316 45 425 -13 q 146 221 206 103 q 86 514 86 339 q 147 807 86 689 q 317 983 208 925 q 574 1041 426 1041 q 832 983 722 1041 q 1001 807 941 925 q 1061 514 1061 689 q 1000 221 1061 340 q 830 45 940 103 q 574 -13 721 -13 m 574 87 q 842 190 746 87 q 939 510 939 294 q 842 836 939 731 q 574 941 746 941 q 305 838 402 941 q 208 517 208 734 q 305 191 208 295 q 574 87 401 87 m 387 1153 q 333 1170 352 1153 q 315 1216 315 1187 q 333 1264 315 1246 q 387 1281 352 1281 q 440 1264 422 1281 q 459 1216 459 1246 q 440 1170 459 1187 q 387 1153 422 1153 m 760 1153 q 707 1170 726 1153 q 688 1216 688 1187 q 707 1264 688 1246 q 760 1281 726 1281 q 814 1264 795 1281 q 833 1216 833 1246 q 814 1170 833 1187 q 760 1153 795 1153 z "},"Ȫ":{"ha":1148,"x_min":86,"x_max":1061,"o":"m 574 -13 q 316 45 425 -13 q 146 221 206 103 q 86 514 86 339 q 147 807 86 689 q 317 983 208 925 q 574 1041 426 1041 q 832 983 722 1041 q 1001 807 941 925 q 1061 514 1061 689 q 1000 221 1061 340 q 830 45 940 103 q 574 -13 721 -13 m 574 87 q 842 190 746 87 q 939 510 939 294 q 842 836 939 731 q 574 941 746 941 q 305 838 402 941 q 208 517 208 734 q 305 191 208 295 q 574 87 401 87 m 387 1153 q 333 1170 352 1153 q 315 1216 315 1187 q 333 1264 315 1246 q 387 1281 352 1281 q 440 1264 422 1281 q 459 1216 459 1246 q 440 1170 459 1187 q 387 1153 422 1153 m 760 1153 q 707 1170 726 1153 q 688 1216 688 1187 q 707 1264 688 1246 q 760 1281 726 1281 q 814 1264 795 1281 q 833 1216 833 1246 q 814 1170 833 1187 q 760 1153 795 1153 m 340 1387 l 340 1462 l 807 1462 l 807 1387 l 340 1387 z "},"Ȱ":{"ha":1148,"x_min":86,"x_max":1061,"o":"m 574 -13 q 316 45 425 -13 q 146 221 206 103 q 86 514 86 339 q 147 807 86 689 q 317 983 208 925 q 574 1041 426 1041 q 832 983 722 1041 q 1001 807 941 925 q 1061 514 1061 689 q 1000 221 1061 340 q 830 45 940 103 q 574 -13 721 -13 m 574 87 q 842 190 746 87 q 939 510 939 294 q 842 836 939 731 q 574 941 746 941 q 305 838 402 941 q 208 517 208 734 q 305 191 208 295 q 574 87 401 87 m 574 1153 q 515 1170 535 1153 q 494 1216 494 1187 q 515 1264 494 1246 q 574 1281 535 1281 q 632 1264 612 1281 q 653 1216 653 1246 q 632 1170 653 1187 q 574 1153 612 1153 m 340 1387 l 340 1462 l 807 1462 l 807 1387 l 340 1387 z "},"Ọ":{"ha":1148,"x_min":86,"x_max":1061,"o":"m 574 -13 q 316 45 425 -13 q 146 221 206 103 q 86 514 86 339 q 147 807 86 689 q 317 983 208 925 q 574 1041 426 1041 q 832 983 722 1041 q 1001 807 941 925 q 1061 514 1061 689 q 1000 221 1061 340 q 830 45 940 103 q 574 -13 721 -13 m 574 87 q 842 190 746 87 q 939 510 939 294 q 842 836 939 731 q 574 941 746 941 q 305 838 402 941 q 208 517 208 734 q 305 191 208 295 q 574 87 401 87 m 574 -242 q 515 -225 535 -242 q 494 -178 494 -208 q 515 -132 494 -149 q 574 -114 535 -114 q 632 -132 612 -114 q 653 -178 653 -149 q 632 -225 653 -208 q 574 -242 612 -242 z "},"Ò":{"ha":1148,"x_min":86,"x_max":1061,"o":"m 574 -13 q 316 45 425 -13 q 146 221 206 103 q 86 514 86 339 q 147 807 86 689 q 317 983 208 925 q 574 1041 426 1041 q 832 983 722 1041 q 1001 807 941 925 q 1061 514 1061 689 q 1000 221 1061 340 q 830 45 940 103 q 574 -13 721 -13 m 574 87 q 842 190 746 87 q 939 510 939 294 q 842 836 939 731 q 574 941 746 941 q 305 838 402 941 q 208 517 208 734 q 305 191 208 295 q 574 87 401 87 m 518 1117 l 348 1314 l 478 1314 l 629 1117 l 518 1117 z "},"Ỏ":{"ha":1148,"x_min":86,"x_max":1061,"o":"m 574 -13 q 316 45 425 -13 q 146 221 206 103 q 86 514 86 339 q 147 807 86 689 q 317 983 208 925 q 574 1041 426 1041 q 832 983 722 1041 q 1001 807 941 925 q 1061 514 1061 689 q 1000 221 1061 340 q 830 45 940 103 q 574 -13 721 -13 m 574 87 q 842 190 746 87 q 939 510 939 294 q 842 836 939 731 q 574 941 746 941 q 305 838 402 941 q 208 517 208 734 q 305 191 208 295 q 574 87 401 87 m 537 1117 q 558 1160 538 1145 q 614 1190 578 1175 q 652 1209 640 1200 q 665 1231 665 1217 q 644 1255 665 1247 q 577 1264 624 1264 q 503 1259 537 1264 q 428 1242 470 1254 l 428 1296 q 583 1319 496 1319 q 697 1297 660 1319 q 734 1237 734 1275 q 716 1193 734 1208 q 663 1163 697 1177 q 624 1142 638 1151 q 609 1117 611 1132 l 537 1117 z "},"Ơ":{"ha":1148,"x_min":86,"x_max":1064,"o":"m 878 955 q 1014 782 966 892 q 1061 514 1061 672 q 1001 218 1061 336 q 832 44 941 101 q 574 -13 723 -13 q 316 45 425 -13 q 146 221 206 103 q 86 514 86 339 q 147 807 86 689 q 317 983 208 925 q 574 1041 426 1041 q 630 1039 600 1041 q 689 1033 660 1036 q 757 1026 721 1029 q 826 1024 792 1024 q 940 1051 901 1024 q 978 1135 978 1078 q 974 1182 978 1160 q 963 1233 970 1205 l 1048 1233 q 1060 1184 1057 1207 q 1064 1132 1064 1161 q 1016 1008 1064 1053 q 878 955 968 962 m 574 87 q 842 190 746 87 q 939 510 939 294 q 842 836 939 731 q 574 941 746 941 q 305 838 402 941 q 208 517 208 734 q 305 191 208 295 q 574 87 401 87 z "},"Ớ":{"ha":1148,"x_min":86,"x_max":1064,"o":"m 878 955 q 1014 782 966 892 q 1061 514 1061 672 q 1001 218 1061 336 q 832 44 941 101 q 574 -13 723 -13 q 316 45 425 -13 q 146 221 206 103 q 86 514 86 339 q 147 807 86 689 q 317 983 208 925 q 574 1041 426 1041 q 630 1039 600 1041 q 689 1033 660 1036 q 757 1026 721 1029 q 826 1024 792 1024 q 940 1051 901 1024 q 978 1135 978 1078 q 974 1182 978 1160 q 963 1233 970 1205 l 1048 1233 q 1060 1184 1057 1207 q 1064 1132 1064 1161 q 1016 1008 1064 1053 q 878 955 968 962 m 574 87 q 842 190 746 87 q 939 510 939 294 q 842 836 939 731 q 574 941 746 941 q 305 838 402 941 q 208 517 208 734 q 305 191 208 295 q 574 87 401 87 m 517 1117 l 669 1314 l 799 1314 l 628 1117 l 517 1117 z "},"Ợ":{"ha":1148,"x_min":86,"x_max":1064,"o":"m 878 955 q 1014 782 966 892 q 1061 514 1061 672 q 1001 218 1061 336 q 832 44 941 101 q 574 -13 723 -13 q 316 45 425 -13 q 146 221 206 103 q 86 514 86 339 q 147 807 86 689 q 317 983 208 925 q 574 1041 426 1041 q 630 1039 600 1041 q 689 1033 660 1036 q 757 1026 721 1029 q 826 1024 792 1024 q 940 1051 901 1024 q 978 1135 978 1078 q 974 1182 978 1160 q 963 1233 970 1205 l 1048 1233 q 1060 1184 1057 1207 q 1064 1132 1064 1161 q 1016 1008 1064 1053 q 878 955 968 962 m 574 87 q 842 190 746 87 q 939 510 939 294 q 842 836 939 731 q 574 941 746 941 q 305 838 402 941 q 208 517 208 734 q 305 191 208 295 q 574 87 401 87 m 574 -242 q 515 -225 535 -242 q 494 -178 494 -208 q 515 -132 494 -149 q 574 -114 535 -114 q 632 -132 612 -114 q 653 -178 653 -149 q 632 -225 653 -208 q 574 -242 612 -242 z "},"Ờ":{"ha":1148,"x_min":86,"x_max":1064,"o":"m 878 955 q 1014 782 966 892 q 1061 514 1061 672 q 1001 218 1061 336 q 832 44 941 101 q 574 -13 723 -13 q 316 45 425 -13 q 146 221 206 103 q 86 514 86 339 q 147 807 86 689 q 317 983 208 925 q 574 1041 426 1041 q 630 1039 600 1041 q 689 1033 660 1036 q 757 1026 721 1029 q 826 1024 792 1024 q 940 1051 901 1024 q 978 1135 978 1078 q 974 1182 978 1160 q 963 1233 970 1205 l 1048 1233 q 1060 1184 1057 1207 q 1064 1132 1064 1161 q 1016 1008 1064 1053 q 878 955 968 962 m 574 87 q 842 190 746 87 q 939 510 939 294 q 842 836 939 731 q 574 941 746 941 q 305 838 402 941 q 208 517 208 734 q 305 191 208 295 q 574 87 401 87 m 518 1117 l 348 1314 l 478 1314 l 629 1117 l 518 1117 z "},"Ở":{"ha":1148,"x_min":86,"x_max":1064,"o":"m 878 955 q 1014 782 966 892 q 1061 514 1061 672 q 1001 218 1061 336 q 832 44 941 101 q 574 -13 723 -13 q 316 45 425 -13 q 146 221 206 103 q 86 514 86 339 q 147 807 86 689 q 317 983 208 925 q 574 1041 426 1041 q 630 1039 600 1041 q 689 1033 660 1036 q 757 1026 721 1029 q 826 1024 792 1024 q 940 1051 901 1024 q 978 1135 978 1078 q 974 1182 978 1160 q 963 1233 970 1205 l 1048 1233 q 1060 1184 1057 1207 q 1064 1132 1064 1161 q 1016 1008 1064 1053 q 878 955 968 962 m 574 87 q 842 190 746 87 q 939 510 939 294 q 842 836 939 731 q 574 941 746 941 q 305 838 402 941 q 208 517 208 734 q 305 191 208 295 q 574 87 401 87 m 537 1117 q 558 1160 538 1145 q 614 1190 578 1175 q 652 1209 640 1200 q 665 1231 665 1217 q 644 1255 665 1247 q 577 1264 624 1264 q 503 1259 537 1264 q 428 1242 470 1254 l 428 1296 q 583 1319 496 1319 q 697 1297 660 1319 q 734 1237 734 1275 q 716 1193 734 1208 q 663 1163 697 1177 q 624 1142 638 1151 q 609 1117 611 1132 l 537 1117 z "},"Ỡ":{"ha":1148,"x_min":86,"x_max":1064,"o":"m 692 1160 q 631 1167 660 1160 q 563 1187 603 1174 q 502 1205 525 1199 q 454 1210 479 1210 q 382 1199 413 1210 q 322 1163 351 1188 l 322 1239 q 379 1273 347 1262 q 456 1283 411 1283 q 516 1276 488 1283 q 585 1256 544 1269 q 645 1238 621 1244 q 694 1232 669 1232 q 766 1243 735 1232 q 826 1280 797 1255 l 826 1203 q 769 1170 802 1181 q 692 1160 737 1160 m 878 955 q 1014 782 966 892 q 1061 514 1061 672 q 1001 218 1061 336 q 832 44 941 101 q 574 -13 723 -13 q 316 45 425 -13 q 146 221 206 103 q 86 514 86 339 q 147 807 86 689 q 317 983 208 925 q 574 1041 426 1041 q 630 1039 600 1041 q 689 1033 660 1036 q 757 1026 721 1029 q 826 1024 792 1024 q 940 1051 901 1024 q 978 1135 978 1078 q 974 1182 978 1160 q 963 1233 970 1205 l 1048 1233 q 1060 1184 1057 1207 q 1064 1132 1064 1161 q 1016 1008 1064 1053 q 878 955 968 962 m 574 87 q 842 190 746 87 q 939 510 939 294 q 842 836 939 731 q 574 941 746 941 q 305 838 402 941 q 208 517 208 734 q 305 191 208 295 q 574 87 401 87 z "},"Ő":{"ha":1148,"x_min":86,"x_max":1061,"o":"m 574 -13 q 316 45 425 -13 q 146 221 206 103 q 86 514 86 339 q 147 807 86 689 q 317 983 208 925 q 574 1041 426 1041 q 832 983 722 1041 q 1001 807 941 925 q 1061 514 1061 689 q 1000 221 1061 340 q 830 45 940 103 q 574 -13 721 -13 m 574 87 q 842 190 746 87 q 939 510 939 294 q 842 836 939 731 q 574 941 746 941 q 305 838 402 941 q 208 517 208 734 q 305 191 208 295 q 574 87 401 87 m 399 1117 l 511 1314 l 609 1314 l 491 1117 l 399 1117 m 656 1117 l 768 1314 l 867 1314 l 748 1117 l 656 1117 z "},"Ȏ":{"ha":1148,"x_min":86,"x_max":1061,"o":"m 574 -13 q 316 45 425 -13 q 146 221 206 103 q 86 514 86 339 q 147 807 86 689 q 317 983 208 925 q 574 1041 426 1041 q 832 983 722 1041 q 1001 807 941 925 q 1061 514 1061 689 q 1000 221 1061 340 q 830 45 940 103 q 574 -13 721 -13 m 574 87 q 842 190 746 87 q 939 510 939 294 q 842 836 939 731 q 574 941 746 941 q 305 838 402 941 q 208 517 208 734 q 305 191 208 295 q 574 87 401 87 m 322 1131 q 394 1259 332 1211 q 573 1308 456 1308 q 752 1259 690 1308 q 826 1131 815 1210 l 747 1131 q 696 1211 737 1183 q 573 1240 656 1240 q 450 1211 490 1240 q 401 1131 410 1183 l 322 1131 z "},"Ō":{"ha":1148,"x_min":86,"x_max":1061,"o":"m 574 -13 q 316 45 425 -13 q 146 221 206 103 q 86 514 86 339 q 147 807 86 689 q 317 983 208 925 q 574 1041 426 1041 q 832 983 722 1041 q 1001 807 941 925 q 1061 514 1061 689 q 1000 221 1061 340 q 830 45 940 103 q 574 -13 721 -13 m 574 87 q 842 190 746 87 q 939 510 939 294 q 842 836 939 731 q 574 941 746 941 q 305 838 402 941 q 208 517 208 734 q 305 191 208 295 q 574 87 401 87 m 340 1178 l 340 1253 l 807 1253 l 807 1178 l 340 1178 z "},"Ṓ":{"ha":1148,"x_min":86,"x_max":1061,"o":"m 574 -13 q 316 45 425 -13 q 146 221 206 103 q 86 514 86 339 q 147 807 86 689 q 317 983 208 925 q 574 1041 426 1041 q 832 983 722 1041 q 1001 807 941 925 q 1061 514 1061 689 q 1000 221 1061 340 q 830 45 940 103 q 574 -13 721 -13 m 574 87 q 842 190 746 87 q 939 510 939 294 q 842 836 939 731 q 574 941 746 941 q 305 838 402 941 q 208 517 208 734 q 305 191 208 295 q 574 87 401 87 m 513 1326 l 663 1488 l 805 1488 l 635 1326 l 513 1326 m 340 1178 l 340 1253 l 807 1253 l 807 1178 l 340 1178 z "},"Ṑ":{"ha":1148,"x_min":86,"x_max":1061,"o":"m 574 -13 q 316 45 425 -13 q 146 221 206 103 q 86 514 86 339 q 147 807 86 689 q 317 983 208 925 q 574 1041 426 1041 q 832 983 722 1041 q 1001 807 941 925 q 1061 514 1061 689 q 1000 221 1061 340 q 830 45 940 103 q 574 -13 721 -13 m 574 87 q 842 190 746 87 q 939 510 939 294 q 842 836 939 731 q 574 941 746 941 q 305 838 402 941 q 208 517 208 734 q 305 191 208 295 q 574 87 401 87 m 513 1326 l 342 1488 l 483 1488 l 635 1326 l 513 1326 m 340 1178 l 340 1253 l 807 1253 l 807 1178 l 340 1178 z "},"Ǫ":{"ha":1148,"x_min":86,"x_max":1061,"o":"m 749 11 q 594 -64 638 -23 q 551 -153 551 -104 q 579 -211 551 -191 q 660 -232 607 -232 q 716 -226 688 -232 q 783 -206 744 -220 l 783 -262 q 650 -288 718 -288 q 521 -255 566 -288 q 476 -160 476 -221 q 499 -80 476 -116 q 573 -13 522 -43 q 314 46 423 -12 q 145 222 205 104 q 86 514 86 339 q 147 807 86 689 q 317 983 208 925 q 574 1041 426 1041 q 831 984 722 1041 q 1001 809 940 927 q 1061 514 1061 691 q 976 177 1061 301 q 749 11 891 53 m 208 517 q 305 191 208 295 q 574 87 401 87 q 842 190 746 87 q 939 510 939 294 q 842 836 939 731 q 574 941 746 941 q 305 838 402 941 q 208 517 208 734 z "},"Ø":{"ha":1148,"x_min":86,"x_max":1061,"o":"m 947 890 q 1061 514 1061 754 q 1000 221 1061 340 q 830 45 940 103 q 574 -13 721 -13 q 395 12 476 -13 q 252 88 313 37 l 160 -19 l 106 28 l 201 138 q 86 514 86 274 q 147 807 86 689 q 317 983 208 925 q 574 1041 426 1041 q 895 940 773 1041 l 988 1047 l 1042 999 l 947 890 m 208 517 q 278 227 208 333 l 822 856 q 574 941 731 941 q 305 838 402 941 q 208 517 208 734 m 574 87 q 842 190 746 87 q 939 510 939 294 q 869 800 939 692 l 324 171 q 574 87 415 87 z "},"Ǿ":{"ha":1148,"x_min":86,"x_max":1061,"o":"m 947 890 q 1061 514 1061 754 q 1000 221 1061 340 q 830 45 940 103 q 574 -13 721 -13 q 395 12 476 -13 q 252 88 313 37 l 160 -19 l 106 28 l 201 138 q 86 514 86 274 q 147 807 86 689 q 317 983 208 925 q 574 1041 426 1041 q 895 940 773 1041 l 988 1047 l 1042 999 l 947 890 m 208 517 q 278 227 208 333 l 822 856 q 574 941 731 941 q 305 838 402 941 q 208 517 208 734 m 574 87 q 842 190 746 87 q 939 510 939 294 q 869 800 939 692 l 324 171 q 574 87 415 87 m 512 1117 l 663 1314 l 793 1314 l 623 1117 l 512 1117 z "},"Õ":{"ha":1148,"x_min":86,"x_max":1061,"o":"m 574 -13 q 316 45 425 -13 q 146 221 206 103 q 86 514 86 339 q 147 807 86 689 q 317 983 208 925 q 574 1041 426 1041 q 832 983 722 1041 q 1001 807 941 925 q 1061 514 1061 689 q 1000 221 1061 340 q 830 45 940 103 q 574 -13 721 -13 m 574 87 q 842 190 746 87 q 939 510 939 294 q 842 836 939 731 q 574 941 746 941 q 305 838 402 941 q 208 517 208 734 q 305 191 208 295 q 574 87 401 87 m 692 1160 q 631 1167 660 1160 q 563 1187 603 1174 q 502 1205 526 1199 q 453 1210 478 1210 q 382 1199 413 1210 q 322 1163 351 1188 l 322 1239 q 378 1273 346 1262 q 456 1283 410 1283 q 516 1276 488 1283 q 585 1256 544 1269 q 644 1238 619 1244 q 694 1232 669 1232 q 766 1243 735 1232 q 826 1280 797 1255 l 826 1203 q 769 1170 801 1181 q 692 1160 737 1160 z "},"Ṍ":{"ha":1148,"x_min":86,"x_max":1061,"o":"m 574 -13 q 316 45 425 -13 q 146 221 206 103 q 86 514 86 339 q 147 807 86 689 q 317 983 208 925 q 574 1041 426 1041 q 832 983 722 1041 q 1001 807 941 925 q 1061 514 1061 689 q 1000 221 1061 340 q 830 45 940 103 q 574 -13 721 -13 m 574 87 q 842 190 746 87 q 939 510 939 294 q 842 836 939 731 q 574 941 746 941 q 305 838 402 941 q 208 517 208 734 q 305 191 208 295 q 574 87 401 87 m 513 1326 l 663 1488 l 805 1488 l 635 1326 l 513 1326 m 692 1160 q 631 1167 660 1160 q 563 1187 603 1174 q 502 1205 526 1199 q 453 1210 478 1210 q 382 1199 413 1210 q 322 1163 351 1188 l 322 1239 q 378 1273 346 1262 q 456 1283 410 1283 q 516 1276 488 1283 q 585 1256 544 1269 q 644 1238 619 1244 q 694 1232 669 1232 q 766 1243 735 1232 q 826 1280 797 1255 l 826 1203 q 769 1170 801 1181 q 692 1160 737 1160 z "},"Ṏ":{"ha":1148,"x_min":86,"x_max":1061,"o":"m 574 -13 q 316 45 425 -13 q 146 221 206 103 q 86 514 86 339 q 147 807 86 689 q 317 983 208 925 q 574 1041 426 1041 q 832 983 722 1041 q 1001 807 941 925 q 1061 514 1061 689 q 1000 221 1061 340 q 830 45 940 103 q 574 -13 721 -13 m 574 87 q 842 190 746 87 q 939 510 939 294 q 842 836 939 731 q 574 941 746 941 q 305 838 402 941 q 208 517 208 734 q 305 191 208 295 q 574 87 401 87 m 692 1160 q 631 1167 660 1160 q 563 1187 603 1174 q 502 1205 526 1199 q 453 1210 478 1210 q 382 1199 413 1210 q 322 1163 351 1188 l 322 1239 q 378 1273 346 1262 q 456 1283 410 1283 q 516 1276 488 1283 q 585 1256 544 1269 q 644 1238 619 1244 q 694 1232 669 1232 q 766 1243 735 1232 q 826 1280 797 1255 l 826 1203 q 769 1170 801 1181 q 692 1160 737 1160 m 387 1362 q 333 1379 352 1362 q 315 1425 315 1396 q 333 1473 315 1455 q 387 1490 352 1490 q 440 1473 422 1490 q 459 1425 459 1455 q 440 1379 459 1396 q 387 1362 422 1362 m 760 1362 q 707 1379 726 1362 q 688 1425 688 1396 q 707 1473 688 1455 q 760 1490 726 1490 q 814 1473 795 1490 q 833 1425 833 1455 q 814 1379 833 1396 q 760 1362 795 1362 z "},"Ȭ":{"ha":1148,"x_min":86,"x_max":1061,"o":"m 574 -13 q 316 45 425 -13 q 146 221 206 103 q 86 514 86 339 q 147 807 86 689 q 317 983 208 925 q 574 1041 426 1041 q 832 983 722 1041 q 1001 807 941 925 q 1061 514 1061 689 q 1000 221 1061 340 q 830 45 940 103 q 574 -13 721 -13 m 574 87 q 842 190 746 87 q 939 510 939 294 q 842 836 939 731 q 574 941 746 941 q 305 838 402 941 q 208 517 208 734 q 305 191 208 295 q 574 87 401 87 m 692 1160 q 631 1167 660 1160 q 563 1187 603 1174 q 502 1205 526 1199 q 453 1210 478 1210 q 382 1199 413 1210 q 322 1163 351 1188 l 322 1239 q 378 1273 346 1262 q 456 1283 410 1283 q 516 1276 488 1283 q 585 1256 544 1269 q 644 1238 619 1244 q 694 1232 669 1232 q 766 1243 735 1232 q 826 1280 797 1255 l 826 1203 q 769 1170 801 1181 q 692 1160 737 1160 m 340 1387 l 340 1462 l 807 1462 l 807 1387 l 340 1387 z "},"Œ":{"ha":1599,"x_min":86,"x_max":1528,"o":"m 1528 96 l 1528 0 l 932 0 q 866 -1 906 0 q 806 -3 826 -3 q 674 -8 713 -8 q 233 121 379 -8 q 86 514 86 249 q 233 907 86 776 q 666 1038 380 1038 q 792 1033 716 1038 q 848 1030 806 1032 q 922 1028 890 1028 l 1521 1028 l 1521 932 l 950 932 l 950 575 l 1451 575 l 1451 480 l 950 480 l 950 96 l 1528 96 m 833 929 q 649 938 737 938 q 319 834 429 938 q 208 513 208 729 q 319 195 208 299 q 649 92 429 92 q 833 99 771 92 l 833 929 z "},"P":{"ha":950,"x_min":135,"x_max":881,"o":"m 135 1009 q 285 1032 214 1024 q 435 1039 356 1039 q 769 954 657 1039 q 881 690 881 869 q 768 426 881 515 q 417 337 654 337 q 253 344 347 337 l 253 0 l 135 0 l 135 1009 m 417 428 q 617 457 541 428 q 729 543 694 485 q 764 689 764 600 q 685 885 764 822 q 443 947 606 947 q 253 931 341 947 l 253 439 q 417 428 333 428 z "},"Þ":{"ha":957,"x_min":135,"x_max":881,"o":"m 135 1028 l 253 1028 l 253 864 q 437 878 341 878 q 769 794 658 878 q 881 530 881 709 q 768 266 881 356 q 417 177 654 177 q 253 185 335 177 l 253 0 l 135 0 l 135 1028 m 417 268 q 617 297 541 268 q 729 382 694 325 q 764 528 764 440 q 685 725 764 663 q 443 788 606 788 q 253 772 341 788 l 253 278 q 417 268 333 268 z "},"Q":{"ha":1148,"x_min":86,"x_max":1061,"o":"m 1061 514 q 952 143 1061 276 q 634 -3 844 10 q 1044 -67 804 -47 l 1027 -162 q 459 -43 664 -125 q 170 172 255 39 q 86 510 86 305 q 147 806 86 687 q 317 983 208 924 q 574 1041 426 1041 q 831 984 722 1041 q 1001 809 940 927 q 1061 514 1061 691 m 208 517 q 305 191 208 295 q 574 87 401 87 q 842 190 746 87 q 939 510 939 294 q 842 836 939 731 q 574 941 746 941 q 305 838 402 941 q 208 517 208 734 z "},"R":{"ha":1008,"x_min":135,"x_max":960,"o":"m 824 0 l 477 424 q 428 424 461 424 q 252 432 356 424 l 252 0 l 135 0 l 135 1006 q 445 1039 294 1039 q 690 1007 594 1039 q 834 908 786 976 q 881 733 881 841 q 810 539 881 613 q 601 438 740 465 l 960 0 l 824 0 m 252 524 q 341 517 304 519 q 432 515 378 515 q 689 568 608 515 q 769 731 769 621 q 736 858 769 811 q 634 926 703 906 q 452 947 565 947 q 347 943 392 947 q 252 929 301 938 l 252 524 z "},"Ŕ":{"ha":1008,"x_min":135,"x_max":960,"o":"m 824 0 l 477 424 q 428 424 461 424 q 252 432 356 424 l 252 0 l 135 0 l 135 1006 q 445 1039 294 1039 q 690 1007 594 1039 q 834 908 786 976 q 881 733 881 841 q 810 539 881 613 q 601 438 740 465 l 960 0 l 824 0 m 252 524 q 341 517 304 519 q 432 515 378 515 q 689 568 608 515 q 769 731 769 621 q 736 858 769 811 q 634 926 703 906 q 452 947 565 947 q 347 943 392 947 q 252 929 301 938 l 252 524 m 435 1117 l 587 1314 l 717 1314 l 547 1117 l 435 1117 z "},"Ř":{"ha":1008,"x_min":135,"x_max":960,"o":"m 824 0 l 477 424 q 428 424 461 424 q 252 432 356 424 l 252 0 l 135 0 l 135 1006 q 445 1039 294 1039 q 690 1007 594 1039 q 834 908 786 976 q 881 733 881 841 q 810 539 881 613 q 601 438 740 465 l 960 0 l 824 0 m 252 524 q 341 517 304 519 q 432 515 378 515 q 689 568 608 515 q 769 731 769 621 q 736 858 769 811 q 634 926 703 906 q 452 947 565 947 q 347 943 392 947 q 252 929 301 938 l 252 524 m 639 1314 l 751 1314 l 545 1117 l 438 1117 l 233 1314 l 344 1314 l 492 1169 l 639 1314 z "},"Ŗ":{"ha":1008,"x_min":135,"x_max":960,"o":"m 824 0 l 477 424 q 428 424 461 424 q 252 432 356 424 l 252 0 l 135 0 l 135 1006 q 445 1039 294 1039 q 690 1007 594 1039 q 834 908 786 976 q 881 733 881 841 q 810 539 881 613 q 601 438 740 465 l 960 0 l 824 0 m 252 524 q 341 517 304 519 q 432 515 378 515 q 689 568 608 515 q 769 731 769 621 q 736 858 769 811 q 634 926 703 906 q 452 947 565 947 q 347 943 392 947 q 252 929 301 938 l 252 524 m 517 -114 q 595 -190 595 -114 q 585 -256 595 -220 q 556 -324 574 -292 l 483 -324 q 513 -226 507 -272 q 461 -210 478 -225 q 444 -169 444 -195 q 463 -129 444 -144 q 517 -114 482 -114 z "},"Ȑ":{"ha":1008,"x_min":135,"x_max":960,"o":"m 824 0 l 477 424 q 428 424 461 424 q 252 432 356 424 l 252 0 l 135 0 l 135 1006 q 445 1039 294 1039 q 690 1007 594 1039 q 834 908 786 976 q 881 733 881 841 q 810 539 881 613 q 601 438 740 465 l 960 0 l 824 0 m 252 524 q 341 517 304 519 q 432 515 378 515 q 689 568 608 515 q 769 731 769 621 q 736 858 769 811 q 634 926 703 906 q 452 947 565 947 q 347 943 392 947 q 252 929 301 938 l 252 524 m 317 1117 l 199 1314 l 297 1314 l 409 1117 l 317 1117 m 574 1117 l 456 1314 l 554 1314 l 666 1117 l 574 1117 z "},"Ṛ":{"ha":1008,"x_min":135,"x_max":960,"o":"m 824 0 l 477 424 q 428 424 461 424 q 252 432 356 424 l 252 0 l 135 0 l 135 1006 q 445 1039 294 1039 q 690 1007 594 1039 q 834 908 786 976 q 881 733 881 841 q 810 539 881 613 q 601 438 740 465 l 960 0 l 824 0 m 252 524 q 341 517 304 519 q 432 515 378 515 q 689 568 608 515 q 769 731 769 621 q 736 858 769 811 q 634 926 703 906 q 452 947 565 947 q 347 943 392 947 q 252 929 301 938 l 252 524 m 519 -242 q 461 -225 481 -242 q 440 -178 440 -208 q 461 -132 440 -149 q 519 -114 481 -114 q 578 -132 558 -114 q 599 -178 599 -149 q 578 -225 599 -208 q 519 -242 558 -242 z "},"Ȓ":{"ha":1008,"x_min":135,"x_max":960,"o":"m 824 0 l 477 424 q 428 424 461 424 q 252 432 356 424 l 252 0 l 135 0 l 135 1006 q 445 1039 294 1039 q 690 1007 594 1039 q 834 908 786 976 q 881 733 881 841 q 810 539 881 613 q 601 438 740 465 l 960 0 l 824 0 m 252 524 q 341 517 304 519 q 432 515 378 515 q 689 568 608 515 q 769 731 769 621 q 736 858 769 811 q 634 926 703 906 q 452 947 565 947 q 347 943 392 947 q 252 929 301 938 l 252 524 m 240 1131 q 312 1259 250 1211 q 491 1308 374 1308 q 670 1259 608 1308 q 744 1131 733 1210 l 665 1131 q 614 1211 655 1183 q 491 1240 574 1240 q 368 1211 408 1240 q 319 1131 328 1183 l 240 1131 z "},"Ṟ":{"ha":1008,"x_min":135,"x_max":960,"o":"m 824 0 l 477 424 q 428 424 461 424 q 252 432 356 424 l 252 0 l 135 0 l 135 1006 q 445 1039 294 1039 q 690 1007 594 1039 q 834 908 786 976 q 881 733 881 841 q 810 539 881 613 q 601 438 740 465 l 960 0 l 824 0 m 252 524 q 341 517 304 519 q 432 515 378 515 q 689 568 608 515 q 769 731 769 621 q 736 858 769 811 q 634 926 703 906 q 452 947 565 947 q 347 943 392 947 q 252 929 301 938 l 252 524 m 286 -215 l 286 -140 l 753 -140 l 753 -215 l 286 -215 z "},"S":{"ha":841,"x_min":64,"x_max":776,"o":"m 374 -13 q 224 -1 299 -13 q 81 33 149 10 l 81 133 q 230 97 152 109 q 376 85 307 85 q 658 276 658 85 q 635 363 658 328 q 562 420 612 397 q 427 459 513 442 l 365 471 q 136 570 208 501 q 64 752 64 638 q 109 907 64 842 q 244 1006 154 972 q 466 1041 334 1041 q 729 1005 607 1041 l 729 905 q 467 943 604 943 q 253 895 323 943 q 183 757 183 847 q 203 670 183 705 q 269 613 224 635 q 394 574 315 590 l 456 562 q 641 502 571 540 q 744 410 712 465 q 776 281 776 356 q 729 122 776 188 q 591 21 682 56 q 374 -13 501 -13 z "},"Ś":{"ha":841,"x_min":64,"x_max":776,"o":"m 374 -13 q 224 -1 299 -13 q 81 33 149 10 l 81 133 q 230 97 152 109 q 376 85 307 85 q 658 276 658 85 q 635 363 658 328 q 562 420 612 397 q 427 459 513 442 l 365 471 q 136 570 208 501 q 64 752 64 638 q 109 907 64 842 q 244 1006 154 972 q 466 1041 334 1041 q 729 1005 607 1041 l 729 905 q 467 943 604 943 q 253 895 323 943 q 183 757 183 847 q 203 670 183 705 q 269 613 224 635 q 394 574 315 590 l 456 562 q 641 502 571 540 q 744 410 712 465 q 776 281 776 356 q 729 122 776 188 q 591 21 682 56 q 374 -13 501 -13 m 370 1117 l 522 1314 l 651 1314 l 481 1117 l 370 1117 z "},"Ṥ":{"ha":841,"x_min":64,"x_max":776,"o":"m 374 -13 q 224 -1 299 -13 q 81 33 149 10 l 81 133 q 230 97 152 109 q 376 85 307 85 q 658 276 658 85 q 635 363 658 328 q 562 420 612 397 q 427 459 513 442 l 365 471 q 136 570 208 501 q 64 752 64 638 q 109 907 64 842 q 244 1006 154 972 q 466 1041 334 1041 q 729 1005 607 1041 l 729 905 q 467 943 604 943 q 253 895 323 943 q 183 757 183 847 q 203 670 183 705 q 269 613 224 635 q 394 574 315 590 l 456 562 q 641 502 571 540 q 744 410 712 465 q 776 281 776 356 q 729 122 776 188 q 591 21 682 56 q 374 -13 501 -13 m 353 1286 q 301 1301 319 1286 q 283 1343 283 1317 q 301 1385 283 1369 q 353 1401 319 1401 q 405 1385 386 1401 q 423 1343 423 1369 q 405 1301 423 1317 q 353 1286 386 1286 m 370 1117 l 522 1314 l 651 1314 l 481 1117 l 370 1117 z "},"Š":{"ha":841,"x_min":64,"x_max":776,"o":"m 374 -13 q 224 -1 299 -13 q 81 33 149 10 l 81 133 q 230 97 152 109 q 376 85 307 85 q 658 276 658 85 q 635 363 658 328 q 562 420 612 397 q 427 459 513 442 l 365 471 q 136 570 208 501 q 64 752 64 638 q 109 907 64 842 q 244 1006 154 972 q 466 1041 334 1041 q 729 1005 607 1041 l 729 905 q 467 943 604 943 q 253 895 323 943 q 183 757 183 847 q 203 670 183 705 q 269 613 224 635 q 394 574 315 590 l 456 562 q 641 502 571 540 q 744 410 712 465 q 776 281 776 356 q 729 122 776 188 q 591 21 682 56 q 374 -13 501 -13 m 574 1314 l 685 1314 l 480 1117 l 373 1117 l 167 1314 l 279 1314 l 426 1169 l 574 1314 z "},"Ṧ":{"ha":841,"x_min":64,"x_max":776,"o":"m 374 -13 q 224 -1 299 -13 q 81 33 149 10 l 81 133 q 230 97 152 109 q 376 85 307 85 q 658 276 658 85 q 635 363 658 328 q 562 420 612 397 q 427 459 513 442 l 365 471 q 136 570 208 501 q 64 752 64 638 q 109 907 64 842 q 244 1006 154 972 q 466 1041 334 1041 q 729 1005 607 1041 l 729 905 q 467 943 604 943 q 253 895 323 943 q 183 757 183 847 q 203 670 183 705 q 269 613 224 635 q 394 574 315 590 l 456 562 q 641 502 571 540 q 744 410 712 465 q 776 281 776 356 q 729 122 776 188 q 591 21 682 56 q 374 -13 501 -13 m 426 1321 q 375 1336 393 1321 q 357 1378 357 1351 q 375 1421 357 1405 q 426 1437 393 1437 q 478 1421 460 1437 q 496 1378 496 1405 q 478 1336 496 1351 q 426 1321 460 1321 m 574 1314 l 685 1314 l 480 1117 l 373 1117 l 167 1314 l 279 1314 l 426 1169 l 574 1314 z "},"Ş":{"ha":841,"x_min":64,"x_max":776,"o":"m 776 281 q 693 81 776 156 q 454 -9 609 6 l 454 -70 q 553 -102 518 -74 q 588 -178 588 -129 q 545 -260 588 -232 q 424 -288 502 -288 q 348 -281 386 -288 q 280 -262 310 -274 l 280 -206 q 421 -234 353 -234 q 494 -220 469 -234 q 519 -176 519 -206 q 494 -132 519 -146 q 420 -117 469 -117 l 390 -117 l 390 -13 l 374 -13 q 224 -1 299 -13 q 81 33 149 10 l 81 133 q 230 97 152 109 q 376 85 307 85 q 658 276 658 85 q 635 363 658 328 q 562 420 612 397 q 427 459 513 442 l 365 471 q 136 570 208 501 q 64 752 64 638 q 109 907 64 842 q 244 1006 154 972 q 466 1041 334 1041 q 729 1005 607 1041 l 729 905 q 467 943 604 943 q 253 895 323 943 q 183 757 183 847 q 203 670 183 705 q 269 613 224 635 q 394 574 315 590 l 456 562 q 641 502 571 540 q 744 410 712 465 q 776 281 776 356 z "},"Ŝ":{"ha":841,"x_min":64,"x_max":776,"o":"m 374 -13 q 224 -1 299 -13 q 81 33 149 10 l 81 133 q 230 97 152 109 q 376 85 307 85 q 658 276 658 85 q 635 363 658 328 q 562 420 612 397 q 427 459 513 442 l 365 471 q 136 570 208 501 q 64 752 64 638 q 109 907 64 842 q 244 1006 154 972 q 466 1041 334 1041 q 729 1005 607 1041 l 729 905 q 467 943 604 943 q 253 895 323 943 q 183 757 183 847 q 203 670 183 705 q 269 613 224 635 q 394 574 315 590 l 456 562 q 641 502 571 540 q 744 410 712 465 q 776 281 776 356 q 729 122 776 188 q 591 21 682 56 q 374 -13 501 -13 m 685 1117 l 574 1117 l 426 1261 l 279 1117 l 167 1117 l 373 1314 l 480 1314 l 685 1117 z "},"Ș":{"ha":841,"x_min":64,"x_max":776,"o":"m 374 -13 q 224 -1 299 -13 q 81 33 149 10 l 81 133 q 230 97 152 109 q 376 85 307 85 q 658 276 658 85 q 635 363 658 328 q 562 420 612 397 q 427 459 513 442 l 365 471 q 136 570 208 501 q 64 752 64 638 q 109 907 64 842 q 244 1006 154 972 q 466 1041 334 1041 q 729 1005 607 1041 l 729 905 q 467 943 604 943 q 253 895 323 943 q 183 757 183 847 q 203 670 183 705 q 269 613 224 635 q 394 574 315 590 l 456 562 q 641 502 571 540 q 744 410 712 465 q 776 281 776 356 q 729 122 776 188 q 591 21 682 56 q 374 -13 501 -13 m 424 -114 q 502 -190 502 -114 q 492 -256 502 -220 q 463 -324 481 -292 l 390 -324 q 419 -226 414 -272 q 368 -210 385 -225 q 351 -169 351 -195 q 370 -129 351 -144 q 424 -114 389 -114 z "},"Ṡ":{"ha":841,"x_min":64,"x_max":776,"o":"m 374 -13 q 224 -1 299 -13 q 81 33 149 10 l 81 133 q 230 97 152 109 q 376 85 307 85 q 658 276 658 85 q 635 363 658 328 q 562 420 612 397 q 427 459 513 442 l 365 471 q 136 570 208 501 q 64 752 64 638 q 109 907 64 842 q 244 1006 154 972 q 466 1041 334 1041 q 729 1005 607 1041 l 729 905 q 467 943 604 943 q 253 895 323 943 q 183 757 183 847 q 203 670 183 705 q 269 613 224 635 q 394 574 315 590 l 456 562 q 641 502 571 540 q 744 410 712 465 q 776 281 776 356 q 729 122 776 188 q 591 21 682 56 q 374 -13 501 -13 m 426 1153 q 368 1170 388 1153 q 347 1216 347 1187 q 368 1264 347 1246 q 426 1281 388 1281 q 485 1264 465 1281 q 506 1216 506 1246 q 485 1170 506 1187 q 426 1153 465 1153 z "},"Ṣ":{"ha":841,"x_min":64,"x_max":776,"o":"m 374 -13 q 224 -1 299 -13 q 81 33 149 10 l 81 133 q 230 97 152 109 q 376 85 307 85 q 658 276 658 85 q 635 363 658 328 q 562 420 612 397 q 427 459 513 442 l 365 471 q 136 570 208 501 q 64 752 64 638 q 109 907 64 842 q 244 1006 154 972 q 466 1041 334 1041 q 729 1005 607 1041 l 729 905 q 467 943 604 943 q 253 895 323 943 q 183 757 183 847 q 203 670 183 705 q 269 613 224 635 q 394 574 315 590 l 456 562 q 641 502 571 540 q 744 410 712 465 q 776 281 776 356 q 729 122 776 188 q 591 21 682 56 q 374 -13 501 -13 m 426 -242 q 368 -225 388 -242 q 347 -178 347 -208 q 368 -132 347 -149 q 426 -114 388 -114 q 485 -132 465 -114 q 506 -178 506 -149 q 485 -225 506 -208 q 426 -242 465 -242 z "},"Ṩ":{"ha":841,"x_min":64,"x_max":776,"o":"m 374 -13 q 224 -1 299 -13 q 81 33 149 10 l 81 133 q 230 97 152 109 q 376 85 307 85 q 658 276 658 85 q 635 363 658 328 q 562 420 612 397 q 427 459 513 442 l 365 471 q 136 570 208 501 q 64 752 64 638 q 109 907 64 842 q 244 1006 154 972 q 466 1041 334 1041 q 729 1005 607 1041 l 729 905 q 467 943 604 943 q 253 895 323 943 q 183 757 183 847 q 203 670 183 705 q 269 613 224 635 q 394 574 315 590 l 456 562 q 641 502 571 540 q 744 410 712 465 q 776 281 776 356 q 729 122 776 188 q 591 21 682 56 q 374 -13 501 -13 m 426 -242 q 368 -225 388 -242 q 347 -178 347 -208 q 368 -132 347 -149 q 426 -114 388 -114 q 485 -132 465 -114 q 506 -178 506 -149 q 485 -225 506 -208 q 426 -242 465 -242 m 426 1153 q 368 1170 388 1153 q 347 1216 347 1187 q 368 1264 347 1246 q 426 1281 388 1281 q 485 1264 465 1281 q 506 1216 506 1246 q 485 1170 506 1187 q 426 1153 465 1153 z "},"ẞ":{"ha":1335,"x_min":135,"x_max":1270,"o":"m 954 562 q 1137 502 1067 540 q 1238 410 1206 465 q 1270 281 1270 356 q 1223 122 1270 188 q 1087 21 1176 56 q 872 -13 998 -13 q 726 -2 800 -13 q 585 31 652 10 l 585 131 q 731 96 655 108 q 872 85 806 85 q 1084 133 1015 85 q 1153 276 1153 181 q 1130 363 1153 328 q 1059 420 1108 397 q 926 459 1010 442 l 865 471 q 640 570 711 501 q 569 752 569 638 q 636 935 569 864 q 551 942 599 942 q 326 869 399 942 q 253 638 253 796 l 253 0 l 135 0 l 135 623 q 237 939 135 836 q 551 1041 340 1041 q 750 1008 667 1041 q 966 1041 840 1041 q 1224 1006 1106 1041 l 1224 906 q 967 943 1098 943 q 756 895 825 943 q 686 757 686 847 q 706 670 686 705 q 771 612 726 635 q 893 574 816 589 l 954 562 z "},"Ə":{"ha":1143,"x_min":79,"x_max":1056,"o":"m 455 1041 q 902 911 747 1041 q 1056 509 1056 781 q 997 217 1056 333 q 831 43 938 100 q 578 -13 724 -13 q 313 43 425 -13 q 140 215 201 99 q 79 503 79 331 l 79 558 l 937 558 q 799 851 923 760 q 450 942 676 942 q 294 933 376 942 q 141 906 213 924 l 141 1006 q 455 1041 285 1041 m 578 83 q 835 175 741 83 q 938 467 929 267 l 201 467 q 307 175 210 267 q 578 83 403 83 z "},"T":{"ha":915,"x_min":15,"x_max":900,"o":"m 398 0 l 398 929 l 15 929 l 15 1028 l 900 1028 l 900 929 l 517 929 l 517 0 l 398 0 z "},"Ŧ":{"ha":915,"x_min":15,"x_max":900,"o":"m 900 929 l 517 929 l 517 578 l 769 578 l 769 498 l 517 498 l 517 0 l 398 0 l 398 498 l 144 498 l 144 578 l 398 578 l 398 929 l 15 929 l 15 1028 l 900 1028 l 900 929 z "},"Ť":{"ha":915,"x_min":15,"x_max":900,"o":"m 398 0 l 398 929 l 15 929 l 15 1028 l 900 1028 l 900 929 l 517 929 l 517 0 l 398 0 m 604 1314 l 716 1314 l 510 1117 l 403 1117 l 198 1314 l 310 1314 l 457 1169 l 604 1314 z "},"Ţ":{"ha":915,"x_min":15,"x_max":900,"o":"m 485 0 l 485 -70 q 583 -102 549 -74 q 618 -178 618 -129 q 575 -260 618 -232 q 455 -288 533 -288 q 379 -281 417 -288 q 310 -262 341 -274 l 310 -206 q 451 -234 383 -234 q 525 -220 500 -234 q 549 -176 549 -206 q 524 -132 549 -146 q 451 -117 499 -117 l 420 -117 l 420 0 l 398 0 l 398 929 l 15 929 l 15 1028 l 900 1028 l 900 929 l 517 929 l 517 0 l 485 0 z "},"Ț":{"ha":915,"x_min":15,"x_max":900,"o":"m 398 0 l 398 929 l 15 929 l 15 1028 l 900 1028 l 900 929 l 517 929 l 517 0 l 398 0 m 455 -114 q 533 -190 533 -114 q 522 -256 533 -220 q 493 -324 512 -292 l 421 -324 q 450 -226 444 -272 q 399 -210 416 -225 q 381 -169 381 -195 q 400 -129 381 -144 q 455 -114 419 -114 z "},"Ṭ":{"ha":915,"x_min":15,"x_max":900,"o":"m 398 0 l 398 929 l 15 929 l 15 1028 l 900 1028 l 900 929 l 517 929 l 517 0 l 398 0 m 457 -242 q 398 -225 419 -242 q 378 -178 378 -208 q 398 -132 378 -149 q 457 -114 419 -114 q 516 -132 495 -114 q 536 -178 536 -149 q 516 -225 536 -208 q 457 -242 495 -242 z "},"Ṯ":{"ha":915,"x_min":15,"x_max":900,"o":"m 398 0 l 398 929 l 15 929 l 15 1028 l 900 1028 l 900 929 l 517 929 l 517 0 l 398 0 m 224 -215 l 224 -140 l 690 -140 l 690 -215 l 224 -215 z "},"U":{"ha":1110,"x_min":130,"x_max":981,"o":"m 556 -13 q 233 91 337 -13 q 130 415 130 196 l 130 1028 l 249 1028 l 249 403 q 323 163 249 239 q 556 88 398 88 q 790 163 715 88 q 865 403 865 239 l 865 1028 l 981 1028 l 981 415 q 877 91 981 196 q 556 -13 774 -13 z "},"Ú":{"ha":1110,"x_min":130,"x_max":981,"o":"m 556 -13 q 233 91 337 -13 q 130 415 130 196 l 130 1028 l 249 1028 l 249 403 q 323 163 249 239 q 556 88 398 88 q 790 163 715 88 q 865 403 865 239 l 865 1028 l 981 1028 l 981 415 q 877 91 981 196 q 556 -13 774 -13 m 500 1117 l 651 1314 l 781 1314 l 611 1117 l 500 1117 z "},"Ŭ":{"ha":1110,"x_min":130,"x_max":981,"o":"m 556 -13 q 233 91 337 -13 q 130 415 130 196 l 130 1028 l 249 1028 l 249 403 q 323 163 249 239 q 556 88 398 88 q 790 163 715 88 q 865 403 865 239 l 865 1028 l 981 1028 l 981 415 q 877 91 981 196 q 556 -13 774 -13 m 557 1123 q 377 1172 440 1123 q 304 1299 315 1220 l 383 1299 q 434 1219 393 1248 q 557 1191 474 1191 q 680 1219 640 1191 q 729 1299 719 1247 l 808 1299 q 736 1171 798 1219 q 557 1123 674 1123 z "},"Û":{"ha":1110,"x_min":130,"x_max":981,"o":"m 556 -13 q 233 91 337 -13 q 130 415 130 196 l 130 1028 l 249 1028 l 249 403 q 323 163 249 239 q 556 88 398 88 q 790 163 715 88 q 865 403 865 239 l 865 1028 l 981 1028 l 981 415 q 877 91 981 196 q 556 -13 774 -13 m 815 1117 l 703 1117 l 556 1261 l 409 1117 l 297 1117 l 503 1314 l 610 1314 l 815 1117 z "},"Ȕ":{"ha":1110,"x_min":130,"x_max":981,"o":"m 556 -13 q 233 91 337 -13 q 130 415 130 196 l 130 1028 l 249 1028 l 249 403 q 323 163 249 239 q 556 88 398 88 q 790 163 715 88 q 865 403 865 239 l 865 1028 l 981 1028 l 981 415 q 877 91 981 196 q 556 -13 774 -13 m 382 1117 l 263 1314 l 362 1314 l 474 1117 l 382 1117 m 639 1117 l 521 1314 l 619 1314 l 731 1117 l 639 1117 z "},"Ü":{"ha":1110,"x_min":130,"x_max":981,"o":"m 556 -13 q 233 91 337 -13 q 130 415 130 196 l 130 1028 l 249 1028 l 249 403 q 323 163 249 239 q 556 88 398 88 q 790 163 715 88 q 865 403 865 239 l 865 1028 l 981 1028 l 981 415 q 877 91 981 196 q 556 -13 774 -13 m 369 1153 q 316 1170 335 1153 q 297 1216 297 1187 q 316 1264 297 1246 q 369 1281 335 1281 q 423 1264 404 1281 q 442 1216 442 1246 q 423 1170 442 1187 q 369 1153 404 1153 m 743 1153 q 690 1170 708 1153 q 671 1216 671 1187 q 690 1264 671 1246 q 743 1281 708 1281 q 797 1264 778 1281 q 815 1216 815 1246 q 797 1170 815 1187 q 743 1153 778 1153 z "},"Ụ":{"ha":1110,"x_min":130,"x_max":981,"o":"m 556 -13 q 233 91 337 -13 q 130 415 130 196 l 130 1028 l 249 1028 l 249 403 q 323 163 249 239 q 556 88 398 88 q 790 163 715 88 q 865 403 865 239 l 865 1028 l 981 1028 l 981 415 q 877 91 981 196 q 556 -13 774 -13 m 556 -242 q 498 -225 518 -242 q 477 -178 477 -208 q 498 -132 477 -149 q 556 -114 518 -114 q 615 -132 594 -114 q 635 -178 635 -149 q 615 -225 635 -208 q 556 -242 594 -242 z "},"Ù":{"ha":1110,"x_min":130,"x_max":981,"o":"m 556 -13 q 233 91 337 -13 q 130 415 130 196 l 130 1028 l 249 1028 l 249 403 q 323 163 249 239 q 556 88 398 88 q 790 163 715 88 q 865 403 865 239 l 865 1028 l 981 1028 l 981 415 q 877 91 981 196 q 556 -13 774 -13 m 501 1117 l 331 1314 l 460 1314 l 612 1117 l 501 1117 z "},"Ủ":{"ha":1110,"x_min":130,"x_max":981,"o":"m 556 -13 q 233 91 337 -13 q 130 415 130 196 l 130 1028 l 249 1028 l 249 403 q 323 163 249 239 q 556 88 398 88 q 790 163 715 88 q 865 403 865 239 l 865 1028 l 981 1028 l 981 415 q 877 91 981 196 q 556 -13 774 -13 m 519 1117 q 541 1160 521 1145 q 597 1190 560 1175 q 635 1209 623 1200 q 647 1231 647 1217 q 627 1255 647 1247 q 560 1264 607 1264 q 486 1259 519 1264 q 411 1242 453 1254 l 411 1296 q 565 1319 478 1319 q 680 1297 642 1319 q 717 1237 717 1275 q 698 1193 717 1208 q 646 1163 680 1177 q 607 1142 620 1151 q 592 1117 594 1132 l 519 1117 z "},"Ư":{"ha":1110,"x_min":130,"x_max":1144,"o":"m 556 -13 q 233 91 337 -13 q 130 415 130 196 l 130 1028 l 249 1028 l 249 403 q 323 163 249 239 q 556 88 398 88 q 790 163 715 88 q 865 403 865 239 l 865 1028 l 906 1028 q 1020 1053 983 1028 q 1058 1135 1058 1079 q 1055 1182 1058 1160 q 1043 1233 1051 1205 l 1128 1233 q 1141 1184 1137 1207 q 1144 1132 1144 1161 q 1102 1017 1144 1060 q 981 965 1060 974 l 981 415 q 877 91 981 196 q 556 -13 774 -13 z "},"Ứ":{"ha":1110,"x_min":130,"x_max":1144,"o":"m 556 -13 q 233 91 337 -13 q 130 415 130 196 l 130 1028 l 249 1028 l 249 403 q 323 163 249 239 q 556 88 398 88 q 790 163 715 88 q 865 403 865 239 l 865 1028 l 906 1028 q 1020 1053 983 1028 q 1058 1135 1058 1079 q 1055 1182 1058 1160 q 1043 1233 1051 1205 l 1128 1233 q 1141 1184 1137 1207 q 1144 1132 1144 1161 q 1102 1017 1144 1060 q 981 965 1060 974 l 981 415 q 877 91 981 196 q 556 -13 774 -13 m 499 1117 l 651 1314 l 781 1314 l 610 1117 l 499 1117 z "},"Ự":{"ha":1110,"x_min":130,"x_max":1144,"o":"m 556 -13 q 233 91 337 -13 q 130 415 130 196 l 130 1028 l 249 1028 l 249 403 q 323 163 249 239 q 556 88 398 88 q 790 163 715 88 q 865 403 865 239 l 865 1028 l 906 1028 q 1020 1053 983 1028 q 1058 1135 1058 1079 q 1055 1182 1058 1160 q 1043 1233 1051 1205 l 1128 1233 q 1141 1184 1137 1207 q 1144 1132 1144 1161 q 1102 1017 1144 1060 q 981 965 1060 974 l 981 415 q 877 91 981 196 q 556 -13 774 -13 m 556 -242 q 497 -225 517 -242 q 476 -178 476 -208 q 497 -132 476 -149 q 556 -114 517 -114 q 614 -132 594 -114 q 635 -178 635 -149 q 614 -225 635 -208 q 556 -242 594 -242 z "},"Ừ":{"ha":1110,"x_min":130,"x_max":1144,"o":"m 556 -13 q 233 91 337 -13 q 130 415 130 196 l 130 1028 l 249 1028 l 249 403 q 323 163 249 239 q 556 88 398 88 q 790 163 715 88 q 865 403 865 239 l 865 1028 l 906 1028 q 1020 1053 983 1028 q 1058 1135 1058 1079 q 1055 1182 1058 1160 q 1043 1233 1051 1205 l 1128 1233 q 1141 1184 1137 1207 q 1144 1132 1144 1161 q 1102 1017 1144 1060 q 981 965 1060 974 l 981 415 q 877 91 981 196 q 556 -13 774 -13 m 500 1117 l 330 1314 l 460 1314 l 611 1117 l 500 1117 z "},"Ử":{"ha":1110,"x_min":130,"x_max":1144,"o":"m 556 -13 q 233 91 337 -13 q 130 415 130 196 l 130 1028 l 249 1028 l 249 403 q 323 163 249 239 q 556 88 398 88 q 790 163 715 88 q 865 403 865 239 l 865 1028 l 906 1028 q 1020 1053 983 1028 q 1058 1135 1058 1079 q 1055 1182 1058 1160 q 1043 1233 1051 1205 l 1128 1233 q 1141 1184 1137 1207 q 1144 1132 1144 1161 q 1102 1017 1144 1060 q 981 965 1060 974 l 981 415 q 877 91 981 196 q 556 -13 774 -13 m 519 1117 q 540 1160 520 1145 q 596 1190 560 1175 q 634 1209 622 1200 q 647 1231 647 1217 q 626 1255 647 1247 q 559 1264 606 1264 q 485 1259 519 1264 q 410 1242 452 1254 l 410 1296 q 565 1319 478 1319 q 679 1297 642 1319 q 716 1237 716 1275 q 698 1193 716 1208 q 645 1163 679 1177 q 606 1142 619 1151 q 591 1117 593 1132 l 519 1117 z "},"Ữ":{"ha":1110,"x_min":130,"x_max":1144,"o":"m 556 -13 q 233 91 337 -13 q 130 415 130 196 l 130 1028 l 249 1028 l 249 403 q 323 163 249 239 q 556 88 398 88 q 790 163 715 88 q 865 403 865 239 l 865 1028 l 906 1028 q 1020 1053 983 1028 q 1058 1135 1058 1079 q 1055 1182 1058 1160 q 1043 1233 1051 1205 l 1128 1233 q 1141 1184 1137 1207 q 1144 1132 1144 1161 q 1102 1017 1144 1060 q 981 965 1060 974 l 981 415 q 877 91 981 196 q 556 -13 774 -13 m 674 1160 q 613 1167 642 1160 q 544 1187 585 1174 q 484 1205 508 1199 q 435 1210 460 1210 q 364 1199 394 1210 q 303 1163 333 1188 l 303 1239 q 360 1273 328 1262 q 438 1283 392 1283 q 498 1276 469 1283 q 567 1256 526 1269 q 626 1238 601 1244 q 676 1232 651 1232 q 748 1243 717 1232 q 808 1280 778 1255 l 808 1203 q 751 1170 783 1181 q 674 1160 719 1160 z "},"Ű":{"ha":1110,"x_min":130,"x_max":981,"o":"m 556 -13 q 233 91 337 -13 q 130 415 130 196 l 130 1028 l 249 1028 l 249 403 q 323 163 249 239 q 556 88 398 88 q 790 163 715 88 q 865 403 865 239 l 865 1028 l 981 1028 l 981 415 q 877 91 981 196 q 556 -13 774 -13 m 382 1117 l 494 1314 l 592 1314 l 474 1117 l 382 1117 m 639 1117 l 751 1314 l 849 1314 l 731 1117 l 639 1117 z "},"Ȗ":{"ha":1110,"x_min":130,"x_max":981,"o":"m 556 -13 q 233 91 337 -13 q 130 415 130 196 l 130 1028 l 249 1028 l 249 403 q 323 163 249 239 q 556 88 398 88 q 790 163 715 88 q 865 403 865 239 l 865 1028 l 981 1028 l 981 415 q 877 91 981 196 q 556 -13 774 -13 m 304 1131 q 376 1259 315 1211 q 556 1308 438 1308 q 735 1259 672 1308 q 808 1131 798 1210 l 729 1131 q 679 1211 719 1183 q 556 1240 638 1240 q 433 1211 472 1240 q 383 1131 393 1183 l 304 1131 z "},"Ū":{"ha":1110,"x_min":130,"x_max":981,"o":"m 556 -13 q 233 91 337 -13 q 130 415 130 196 l 130 1028 l 249 1028 l 249 403 q 323 163 249 239 q 556 88 398 88 q 790 163 715 88 q 865 403 865 239 l 865 1028 l 981 1028 l 981 415 q 877 91 981 196 q 556 -13 774 -13 m 323 1178 l 323 1253 l 790 1253 l 790 1178 l 323 1178 z "},"Ṻ":{"ha":1110,"x_min":130,"x_max":981,"o":"m 556 -13 q 233 91 337 -13 q 130 415 130 196 l 130 1028 l 249 1028 l 249 403 q 323 163 249 239 q 556 88 398 88 q 790 163 715 88 q 865 403 865 239 l 865 1028 l 981 1028 l 981 415 q 877 91 981 196 q 556 -13 774 -13 m 323 1178 l 323 1253 l 790 1253 l 790 1178 l 323 1178 m 369 1362 q 316 1379 335 1362 q 297 1425 297 1396 q 316 1473 297 1455 q 369 1490 335 1490 q 423 1473 404 1490 q 442 1425 442 1455 q 423 1379 442 1396 q 369 1362 404 1362 m 743 1362 q 690 1379 708 1362 q 671 1425 671 1396 q 690 1473 671 1455 q 743 1490 708 1490 q 797 1473 778 1490 q 815 1425 815 1455 q 797 1379 815 1396 q 743 1362 778 1362 z "},"Ų":{"ha":1110,"x_min":130,"x_max":981,"o":"m 981 1028 l 981 415 q 918 142 981 242 q 722 6 855 42 q 572 -60 618 -22 q 526 -149 526 -99 q 554 -209 526 -188 q 635 -230 582 -230 q 691 -224 663 -230 q 758 -204 719 -218 l 758 -260 q 625 -286 693 -286 q 496 -252 540 -286 q 452 -154 452 -217 q 475 -77 452 -113 q 547 -13 497 -40 q 231 93 333 -11 q 130 415 130 198 l 130 1028 l 249 1028 l 249 403 q 323 163 249 239 q 556 88 398 88 q 790 163 715 88 q 865 403 865 239 l 865 1028 l 981 1028 z "},"Ů":{"ha":1110,"x_min":130,"x_max":981,"o":"m 556 -13 q 233 91 337 -13 q 130 415 130 196 l 130 1028 l 249 1028 l 249 403 q 323 163 249 239 q 556 88 398 88 q 790 163 715 88 q 865 403 865 239 l 865 1028 l 981 1028 l 981 415 q 877 91 981 196 q 556 -13 774 -13 m 556 1112 q 486 1129 517 1112 q 438 1177 456 1147 q 421 1246 421 1208 q 438 1315 421 1284 q 486 1363 456 1346 q 556 1381 517 1381 q 626 1363 595 1381 q 674 1315 657 1346 q 692 1246 692 1284 q 674 1177 692 1208 q 626 1129 657 1147 q 556 1112 595 1112 m 556 1163 q 615 1186 592 1163 q 638 1246 638 1208 q 615 1307 638 1284 q 556 1329 592 1329 q 498 1307 520 1329 q 475 1246 475 1284 q 498 1186 475 1208 q 556 1163 520 1163 z "},"Ũ":{"ha":1110,"x_min":130,"x_max":981,"o":"m 556 -13 q 233 91 337 -13 q 130 415 130 196 l 130 1028 l 249 1028 l 249 403 q 323 163 249 239 q 556 88 398 88 q 790 163 715 88 q 865 403 865 239 l 865 1028 l 981 1028 l 981 415 q 877 91 981 196 q 556 -13 774 -13 m 674 1160 q 614 1167 642 1160 q 545 1187 585 1174 q 485 1205 508 1199 q 436 1210 461 1210 q 364 1199 395 1210 q 304 1163 333 1188 l 304 1239 q 361 1273 328 1262 q 438 1283 393 1283 q 499 1276 470 1283 q 567 1256 527 1269 q 627 1238 602 1244 q 676 1232 651 1232 q 748 1243 717 1232 q 808 1280 779 1255 l 808 1203 q 752 1170 784 1181 q 674 1160 719 1160 z "},"Ṹ":{"ha":1110,"x_min":130,"x_max":981,"o":"m 556 -13 q 233 91 337 -13 q 130 415 130 196 l 130 1028 l 249 1028 l 249 403 q 323 163 249 239 q 556 88 398 88 q 790 163 715 88 q 865 403 865 239 l 865 1028 l 981 1028 l 981 415 q 877 91 981 196 q 556 -13 774 -13 m 495 1326 l 645 1488 l 788 1488 l 618 1326 l 495 1326 m 674 1160 q 614 1167 642 1160 q 545 1187 585 1174 q 485 1205 508 1199 q 436 1210 461 1210 q 364 1199 395 1210 q 304 1163 333 1188 l 304 1239 q 361 1273 328 1262 q 438 1283 393 1283 q 499 1276 470 1283 q 567 1256 527 1269 q 627 1238 602 1244 q 676 1232 651 1232 q 748 1243 717 1232 q 808 1280 779 1255 l 808 1203 q 752 1170 784 1181 q 674 1160 719 1160 z "},"V":{"ha":1028,"x_min":13,"x_max":1015,"o":"m 896 1028 l 1015 1028 l 599 0 l 430 0 l 13 1028 l 141 1028 l 518 90 l 896 1028 z "},"W":{"ha":1660,"x_min":47,"x_max":1613,"o":"m 1497 1028 l 1613 1028 l 1283 0 l 1128 0 l 831 910 l 532 0 l 378 0 l 47 1028 l 169 1028 l 461 104 l 763 1028 l 902 1028 l 1202 100 l 1497 1028 z "},"Ẃ":{"ha":1660,"x_min":47,"x_max":1613,"o":"m 1497 1028 l 1613 1028 l 1283 0 l 1128 0 l 831 910 l 532 0 l 378 0 l 47 1028 l 169 1028 l 461 104 l 763 1028 l 902 1028 l 1202 100 l 1497 1028 m 774 1117 l 926 1314 l 1056 1314 l 885 1117 l 774 1117 z "},"Ŵ":{"ha":1660,"x_min":47,"x_max":1613,"o":"m 1497 1028 l 1613 1028 l 1283 0 l 1128 0 l 831 910 l 532 0 l 378 0 l 47 1028 l 169 1028 l 461 104 l 763 1028 l 902 1028 l 1202 100 l 1497 1028 m 1090 1117 l 978 1117 l 831 1261 l 683 1117 l 572 1117 l 777 1314 l 884 1314 l 1090 1117 z "},"Ẅ":{"ha":1660,"x_min":47,"x_max":1613,"o":"m 1497 1028 l 1613 1028 l 1283 0 l 1128 0 l 831 910 l 532 0 l 378 0 l 47 1028 l 169 1028 l 461 104 l 763 1028 l 902 1028 l 1202 100 l 1497 1028 m 644 1153 q 590 1170 609 1153 q 572 1216 572 1187 q 590 1264 572 1246 q 644 1281 609 1281 q 697 1264 678 1281 q 716 1216 716 1246 q 697 1170 716 1187 q 644 1153 678 1153 m 1017 1153 q 964 1170 983 1153 q 945 1216 945 1187 q 964 1264 945 1246 q 1017 1281 983 1281 q 1071 1264 1052 1281 q 1090 1216 1090 1246 q 1071 1170 1090 1187 q 1017 1153 1052 1153 z "},"Ẁ":{"ha":1660,"x_min":47,"x_max":1613,"o":"m 1497 1028 l 1613 1028 l 1283 0 l 1128 0 l 831 910 l 532 0 l 378 0 l 47 1028 l 169 1028 l 461 104 l 763 1028 l 902 1028 l 1202 100 l 1497 1028 m 775 1117 l 605 1314 l 735 1314 l 886 1117 l 775 1117 z "},"X":{"ha":990,"x_min":8,"x_max":981,"o":"m 565 526 l 981 0 l 842 0 l 492 442 l 143 0 l 8 0 l 422 523 l 21 1028 l 160 1028 l 495 607 l 831 1028 l 965 1028 l 565 526 z "},"Y":{"ha":915,"x_min":-19,"x_max":926,"o":"m 926 1028 l 517 457 l 517 0 l 399 0 l 399 456 l -19 1028 l 115 1028 l 460 555 l 800 1028 l 926 1028 z "},"Ý":{"ha":915,"x_min":-19,"x_max":926,"o":"m 926 1028 l 517 457 l 517 0 l 399 0 l 399 456 l -19 1028 l 115 1028 l 460 555 l 800 1028 l 926 1028 m 401 1117 l 552 1314 l 682 1314 l 512 1117 l 401 1117 z "},"Ŷ":{"ha":915,"x_min":-19,"x_max":926,"o":"m 926 1028 l 517 457 l 517 0 l 399 0 l 399 456 l -19 1028 l 115 1028 l 460 555 l 800 1028 l 926 1028 m 716 1117 l 604 1117 l 457 1261 l 310 1117 l 198 1117 l 403 1314 l 510 1314 l 716 1117 z "},"Ÿ":{"ha":915,"x_min":-19,"x_max":926,"o":"m 926 1028 l 517 457 l 517 0 l 399 0 l 399 456 l -19 1028 l 115 1028 l 460 555 l 800 1028 l 926 1028 m 270 1153 q 217 1170 235 1153 q 198 1216 198 1187 q 217 1264 198 1246 q 270 1281 235 1281 q 324 1264 305 1281 q 342 1216 342 1246 q 324 1170 342 1187 q 270 1153 305 1153 m 644 1153 q 590 1170 609 1153 q 572 1216 572 1187 q 590 1264 572 1246 q 644 1281 609 1281 q 697 1264 678 1281 q 716 1216 716 1246 q 697 1170 716 1187 q 644 1153 678 1153 z "},"Ẏ":{"ha":915,"x_min":-19,"x_max":926,"o":"m 926 1028 l 517 457 l 517 0 l 399 0 l 399 456 l -19 1028 l 115 1028 l 460 555 l 800 1028 l 926 1028 m 457 1153 q 398 1170 419 1153 q 378 1216 378 1187 q 398 1264 378 1246 q 457 1281 419 1281 q 516 1264 495 1281 q 536 1216 536 1246 q 516 1170 536 1187 q 457 1153 495 1153 z "},"Ỵ":{"ha":915,"x_min":-19,"x_max":926,"o":"m 926 1028 l 517 457 l 517 0 l 399 0 l 399 456 l -19 1028 l 115 1028 l 460 555 l 800 1028 l 926 1028 m 457 -242 q 398 -225 419 -242 q 378 -178 378 -208 q 398 -132 378 -149 q 457 -114 419 -114 q 516 -132 495 -114 q 536 -178 536 -149 q 516 -225 536 -208 q 457 -242 495 -242 z "},"Ỳ":{"ha":915,"x_min":-19,"x_max":926,"o":"m 926 1028 l 517 457 l 517 0 l 399 0 l 399 456 l -19 1028 l 115 1028 l 460 555 l 800 1028 l 926 1028 m 401 1117 l 231 1314 l 361 1314 l 513 1117 l 401 1117 z "},"Ỷ":{"ha":915,"x_min":-19,"x_max":926,"o":"m 926 1028 l 517 457 l 517 0 l 399 0 l 399 456 l -19 1028 l 115 1028 l 460 555 l 800 1028 l 926 1028 m 420 1117 q 441 1160 422 1145 q 497 1190 461 1175 q 536 1209 524 1200 q 548 1231 548 1217 q 528 1255 548 1247 q 460 1264 508 1264 q 387 1259 420 1264 q 312 1242 353 1254 l 312 1296 q 466 1319 379 1319 q 580 1297 543 1319 q 617 1237 617 1275 q 599 1193 617 1208 q 547 1163 581 1177 q 508 1142 521 1151 q 492 1117 494 1132 l 420 1117 z "},"Ȳ":{"ha":915,"x_min":-19,"x_max":926,"o":"m 926 1028 l 517 457 l 517 0 l 399 0 l 399 456 l -19 1028 l 115 1028 l 460 555 l 800 1028 l 926 1028 m 224 1178 l 224 1253 l 690 1253 l 690 1178 l 224 1178 z "},"Ỹ":{"ha":915,"x_min":-19,"x_max":926,"o":"m 926 1028 l 517 457 l 517 0 l 399 0 l 399 456 l -19 1028 l 115 1028 l 460 555 l 800 1028 l 926 1028 m 575 1160 q 515 1167 543 1160 q 446 1187 486 1174 q 385 1205 409 1199 q 337 1210 362 1210 q 265 1199 296 1210 q 205 1163 234 1188 l 205 1239 q 261 1273 229 1262 q 339 1283 294 1283 q 399 1276 371 1283 q 468 1256 428 1269 q 527 1238 503 1244 q 577 1232 552 1232 q 649 1243 618 1232 q 709 1280 680 1255 l 709 1203 q 652 1170 685 1181 q 575 1160 620 1160 z "},"Z":{"ha":912,"x_min":51,"x_max":861,"o":"m 210 98 l 861 98 l 861 0 l 51 0 l 51 65 l 693 930 l 60 930 l 60 1028 l 852 1028 l 852 963 l 210 98 z "},"Ź":{"ha":912,"x_min":51,"x_max":861,"o":"m 210 98 l 861 98 l 861 0 l 51 0 l 51 65 l 693 930 l 60 930 l 60 1028 l 852 1028 l 852 963 l 210 98 m 400 1117 l 551 1314 l 681 1314 l 511 1117 l 400 1117 z "},"Ž":{"ha":912,"x_min":51,"x_max":861,"o":"m 210 98 l 861 98 l 861 0 l 51 0 l 51 65 l 693 930 l 60 930 l 60 1028 l 852 1028 l 852 963 l 210 98 m 603 1314 l 715 1314 l 510 1117 l 403 1117 l 197 1314 l 309 1314 l 456 1169 l 603 1314 z "},"Ż":{"ha":912,"x_min":51,"x_max":861,"o":"m 210 98 l 861 98 l 861 0 l 51 0 l 51 65 l 693 930 l 60 930 l 60 1028 l 852 1028 l 852 963 l 210 98 m 456 1153 q 398 1170 418 1153 q 377 1216 377 1187 q 398 1264 377 1246 q 456 1281 418 1281 q 515 1264 494 1281 q 535 1216 535 1246 q 515 1170 535 1187 q 456 1153 494 1153 z "},"Ẓ":{"ha":912,"x_min":51,"x_max":861,"o":"m 210 98 l 861 98 l 861 0 l 51 0 l 51 65 l 693 930 l 60 930 l 60 1028 l 852 1028 l 852 963 l 210 98 m 456 -242 q 398 -225 418 -242 q 377 -178 377 -208 q 398 -132 377 -149 q 456 -114 418 -114 q 515 -132 494 -114 q 535 -178 535 -149 q 515 -225 535 -208 q 456 -242 494 -242 z "},"a":{"ha":810,"x_min":80,"x_max":699,"o":"m 376 765 q 557 739 486 765 q 663 651 627 713 q 699 484 699 589 l 699 0 l 600 0 l 592 85 l 584 85 q 475 14 542 40 q 334 -12 408 -12 q 196 13 253 -12 q 109 85 139 38 q 80 194 80 131 q 151 345 80 292 q 379 415 222 399 l 583 437 l 583 490 q 559 601 583 561 q 487 657 535 641 q 363 673 440 673 q 249 664 309 673 q 132 636 188 655 l 132 728 q 250 756 185 746 q 376 765 315 765 m 360 74 q 481 97 423 74 q 583 166 538 120 l 583 361 l 386 340 q 242 295 285 328 q 199 203 199 263 q 239 107 199 141 q 360 74 279 74 z "},"á":{"ha":810,"x_min":80,"x_max":699,"o":"m 376 765 q 557 739 486 765 q 663 651 627 713 q 699 484 699 589 l 699 0 l 600 0 l 592 85 l 584 85 q 475 14 542 40 q 334 -12 408 -12 q 196 13 253 -12 q 109 85 139 38 q 80 194 80 131 q 151 345 80 292 q 379 415 222 399 l 583 437 l 583 490 q 559 601 583 561 q 487 657 535 641 q 363 673 440 673 q 249 664 309 673 q 132 636 188 655 l 132 728 q 250 756 185 746 q 376 765 315 765 m 360 74 q 481 97 423 74 q 583 166 538 120 l 583 361 l 386 340 q 242 295 285 328 q 199 203 199 263 q 239 107 199 141 q 360 74 279 74 m 346 870 l 530 1122 l 663 1122 l 460 870 l 346 870 z "},"ă":{"ha":810,"x_min":80,"x_max":699,"o":"m 376 765 q 557 739 486 765 q 663 651 627 713 q 699 484 699 589 l 699 0 l 600 0 l 592 85 l 584 85 q 475 14 542 40 q 334 -12 408 -12 q 196 13 253 -12 q 109 85 139 38 q 80 194 80 131 q 151 345 80 292 q 379 415 222 399 l 583 437 l 583 490 q 559 601 583 561 q 487 657 535 641 q 363 673 440 673 q 249 664 309 673 q 132 636 188 655 l 132 728 q 250 756 185 746 q 376 765 315 765 m 360 74 q 481 97 423 74 q 583 166 538 120 l 583 361 l 386 340 q 242 295 285 328 q 199 203 199 263 q 239 107 199 141 q 360 74 279 74 m 403 877 q 277 906 330 877 q 197 985 225 934 q 165 1104 169 1036 l 244 1104 q 289 987 250 1029 q 403 945 327 945 q 562 1104 549 945 l 640 1104 q 574 939 635 1000 q 403 877 513 877 z "},"ắ":{"ha":810,"x_min":80,"x_max":699,"o":"m 376 765 q 557 739 486 765 q 663 651 627 713 q 699 484 699 589 l 699 0 l 600 0 l 592 85 l 584 85 q 475 14 542 40 q 334 -12 408 -12 q 196 13 253 -12 q 109 85 139 38 q 80 194 80 131 q 151 345 80 292 q 379 415 222 399 l 583 437 l 583 490 q 559 601 583 561 q 487 657 535 641 q 363 673 440 673 q 249 664 309 673 q 132 636 188 655 l 132 728 q 250 756 185 746 q 376 765 315 765 m 360 74 q 481 97 423 74 q 583 166 538 120 l 583 361 l 386 340 q 242 295 285 328 q 199 203 199 263 q 239 107 199 141 q 360 74 279 74 m 356 1109 l 506 1297 l 619 1297 l 449 1109 l 356 1109 m 403 878 q 276 906 328 878 q 194 983 223 934 q 161 1096 166 1032 l 240 1096 q 287 985 247 1026 q 403 945 326 945 q 565 1096 550 945 l 644 1096 q 576 938 637 997 q 403 878 515 878 z "},"ặ":{"ha":810,"x_min":80,"x_max":699,"o":"m 376 765 q 557 739 486 765 q 663 651 627 713 q 699 484 699 589 l 699 0 l 600 0 l 592 85 l 584 85 q 475 14 542 40 q 334 -12 408 -12 q 196 13 253 -12 q 109 85 139 38 q 80 194 80 131 q 151 345 80 292 q 379 415 222 399 l 583 437 l 583 490 q 559 601 583 561 q 487 657 535 641 q 363 673 440 673 q 249 664 309 673 q 132 636 188 655 l 132 728 q 250 756 185 746 q 376 765 315 765 m 360 74 q 481 97 423 74 q 583 166 538 120 l 583 361 l 386 340 q 242 295 285 328 q 199 203 199 263 q 239 107 199 141 q 360 74 279 74 m 415 -249 q 361 -231 381 -249 q 342 -182 342 -212 q 361 -132 342 -151 q 415 -114 381 -114 q 469 -132 450 -114 q 488 -182 488 -151 q 469 -231 488 -212 q 415 -249 450 -249 m 403 877 q 277 906 330 877 q 197 985 225 934 q 165 1104 169 1036 l 244 1104 q 289 987 250 1029 q 403 945 327 945 q 562 1104 549 945 l 640 1104 q 574 939 635 1000 q 403 877 513 877 z "},"ằ":{"ha":810,"x_min":80,"x_max":699,"o":"m 376 765 q 557 739 486 765 q 663 651 627 713 q 699 484 699 589 l 699 0 l 600 0 l 592 85 l 584 85 q 475 14 542 40 q 334 -12 408 -12 q 196 13 253 -12 q 109 85 139 38 q 80 194 80 131 q 151 345 80 292 q 379 415 222 399 l 583 437 l 583 490 q 559 601 583 561 q 487 657 535 641 q 363 673 440 673 q 249 664 309 673 q 132 636 188 655 l 132 728 q 250 756 185 746 q 376 765 315 765 m 360 74 q 481 97 423 74 q 583 166 538 120 l 583 361 l 386 340 q 242 295 285 328 q 199 203 199 263 q 239 107 199 141 q 360 74 279 74 m 357 1109 l 187 1297 l 299 1297 l 450 1109 l 357 1109 m 403 878 q 276 906 328 878 q 194 983 223 934 q 161 1096 166 1032 l 240 1096 q 287 985 247 1026 q 403 945 326 945 q 565 1096 550 945 l 644 1096 q 576 938 637 997 q 403 878 515 878 z "},"ẳ":{"ha":810,"x_min":80,"x_max":699,"o":"m 376 765 q 557 739 486 765 q 663 651 627 713 q 699 484 699 589 l 699 0 l 600 0 l 592 85 l 584 85 q 475 14 542 40 q 334 -12 408 -12 q 196 13 253 -12 q 109 85 139 38 q 80 194 80 131 q 151 345 80 292 q 379 415 222 399 l 583 437 l 583 490 q 559 601 583 561 q 487 657 535 641 q 363 673 440 673 q 249 664 309 673 q 132 636 188 655 l 132 728 q 250 756 185 746 q 376 765 315 765 m 360 74 q 481 97 423 74 q 583 166 538 120 l 583 361 l 386 340 q 242 295 285 328 q 199 203 199 263 q 239 107 199 141 q 360 74 279 74 m 366 1109 q 378 1141 367 1128 q 403 1162 389 1154 q 442 1179 418 1169 q 481 1198 469 1190 q 494 1219 494 1206 q 474 1242 494 1234 q 406 1251 453 1251 q 332 1246 365 1251 q 258 1229 299 1241 l 258 1280 q 412 1302 326 1302 q 526 1281 489 1302 q 563 1224 563 1260 q 545 1182 563 1197 q 492 1153 526 1167 q 453 1133 466 1142 q 438 1109 440 1124 l 366 1109 m 403 878 q 276 906 328 878 q 194 983 223 934 q 161 1096 166 1032 l 240 1096 q 287 985 247 1026 q 403 945 326 945 q 565 1096 550 945 l 644 1096 q 576 938 637 997 q 403 878 515 878 z "},"ẵ":{"ha":810,"x_min":80,"x_max":699,"o":"m 376 765 q 557 739 486 765 q 663 651 627 713 q 699 484 699 589 l 699 0 l 600 0 l 592 85 l 584 85 q 475 14 542 40 q 334 -12 408 -12 q 196 13 253 -12 q 109 85 139 38 q 80 194 80 131 q 151 345 80 292 q 379 415 222 399 l 583 437 l 583 490 q 559 601 583 561 q 487 657 535 641 q 363 673 440 673 q 249 664 309 673 q 132 636 188 655 l 132 728 q 250 756 185 746 q 376 765 315 765 m 360 74 q 481 97 423 74 q 583 166 538 120 l 583 361 l 386 340 q 242 295 285 328 q 199 203 199 263 q 239 107 199 141 q 360 74 279 74 m 519 1150 q 458 1157 488 1150 q 391 1176 429 1164 q 332 1194 356 1188 q 285 1199 309 1199 q 215 1188 246 1199 q 154 1153 183 1177 l 154 1224 q 287 1266 203 1266 q 347 1259 318 1266 q 415 1240 376 1252 q 473 1222 450 1228 q 521 1217 497 1217 q 591 1228 560 1217 q 651 1263 622 1239 l 651 1192 q 594 1160 626 1171 q 519 1150 562 1150 m 403 878 q 276 906 328 878 q 194 983 223 934 q 161 1096 166 1032 l 240 1096 q 287 985 247 1026 q 403 945 326 945 q 565 1096 550 945 l 644 1096 q 576 938 637 997 q 403 878 515 878 z "},"â":{"ha":810,"x_min":80,"x_max":699,"o":"m 376 765 q 557 739 486 765 q 663 651 627 713 q 699 484 699 589 l 699 0 l 600 0 l 592 85 l 584 85 q 475 14 542 40 q 334 -12 408 -12 q 196 13 253 -12 q 109 85 139 38 q 80 194 80 131 q 151 345 80 292 q 379 415 222 399 l 583 437 l 583 490 q 559 601 583 561 q 487 657 535 641 q 363 673 440 673 q 249 664 309 673 q 132 636 188 655 l 132 728 q 250 756 185 746 q 376 765 315 765 m 360 74 q 481 97 423 74 q 583 166 538 120 l 583 361 l 386 340 q 242 295 285 328 q 199 203 199 263 q 239 107 199 141 q 360 74 279 74 m 639 870 l 540 870 l 403 1060 l 266 870 l 167 870 l 352 1122 l 453 1122 l 639 870 z "},"ấ":{"ha":810,"x_min":80,"x_max":826,"o":"m 376 765 q 557 739 486 765 q 663 651 627 713 q 699 484 699 589 l 699 0 l 600 0 l 592 85 l 584 85 q 475 14 542 40 q 334 -12 408 -12 q 196 13 253 -12 q 109 85 139 38 q 80 194 80 131 q 151 345 80 292 q 379 415 222 399 l 583 437 l 583 490 q 559 601 583 561 q 487 657 535 641 q 363 673 440 673 q 249 664 309 673 q 132 636 188 655 l 132 728 q 250 756 185 746 q 376 765 315 765 m 360 74 q 481 97 423 74 q 583 166 538 120 l 583 361 l 386 340 q 242 295 285 328 q 199 203 199 263 q 239 107 199 141 q 360 74 279 74 m 714 1297 l 826 1297 l 656 1109 l 563 1109 l 714 1297 m 352 1122 l 453 1122 l 639 870 l 540 870 l 403 1060 l 266 870 l 167 870 l 352 1122 z "},"ậ":{"ha":810,"x_min":80,"x_max":699,"o":"m 376 765 q 557 739 486 765 q 663 651 627 713 q 699 484 699 589 l 699 0 l 600 0 l 592 85 l 584 85 q 475 14 542 40 q 334 -12 408 -12 q 196 13 253 -12 q 109 85 139 38 q 80 194 80 131 q 151 345 80 292 q 379 415 222 399 l 583 437 l 583 490 q 559 601 583 561 q 487 657 535 641 q 363 673 440 673 q 249 664 309 673 q 132 636 188 655 l 132 728 q 250 756 185 746 q 376 765 315 765 m 360 74 q 481 97 423 74 q 583 166 538 120 l 583 361 l 386 340 q 242 295 285 328 q 199 203 199 263 q 239 107 199 141 q 360 74 279 74 m 415 -249 q 361 -231 381 -249 q 342 -182 342 -212 q 361 -132 342 -151 q 415 -114 381 -114 q 469 -132 450 -114 q 488 -182 488 -151 q 469 -231 488 -212 q 415 -249 450 -249 m 639 870 l 540 870 l 403 1060 l 266 870 l 167 870 l 352 1122 l 453 1122 l 639 870 z "},"ầ":{"ha":810,"x_min":80,"x_max":699,"o":"m 376 765 q 557 739 486 765 q 663 651 627 713 q 699 484 699 589 l 699 0 l 600 0 l 592 85 l 584 85 q 475 14 542 40 q 334 -12 408 -12 q 196 13 253 -12 q 109 85 139 38 q 80 194 80 131 q 151 345 80 292 q 379 415 222 399 l 583 437 l 583 490 q 559 601 583 561 q 487 657 535 641 q 363 673 440 673 q 249 664 309 673 q 132 636 188 655 l 132 728 q 250 756 185 746 q 376 765 315 765 m 360 74 q 481 97 423 74 q 583 166 538 120 l 583 361 l 386 340 q 242 295 285 328 q 199 203 199 263 q 239 107 199 141 q 360 74 279 74 m 677 1109 l 583 1109 l 413 1297 l 526 1297 l 677 1109 m 352 1122 l 453 1122 l 639 870 l 540 870 l 403 1060 l 266 870 l 167 870 l 352 1122 z "},"ẩ":{"ha":810,"x_min":80,"x_max":755,"o":"m 376 765 q 557 739 486 765 q 663 651 627 713 q 699 484 699 589 l 699 0 l 600 0 l 592 85 l 584 85 q 475 14 542 40 q 334 -12 408 -12 q 196 13 253 -12 q 109 85 139 38 q 80 194 80 131 q 151 345 80 292 q 379 415 222 399 l 583 437 l 583 490 q 559 601 583 561 q 487 657 535 641 q 363 673 440 673 q 249 664 309 673 q 132 636 188 655 l 132 728 q 250 756 185 746 q 376 765 315 765 m 360 74 q 481 97 423 74 q 583 166 538 120 l 583 361 l 386 340 q 242 295 285 328 q 199 203 199 263 q 239 107 199 141 q 360 74 279 74 m 610 1302 q 720 1282 685 1302 q 755 1224 755 1261 q 739 1185 755 1198 q 690 1158 723 1172 q 650 1136 664 1147 q 634 1109 636 1126 l 567 1109 q 579 1143 568 1129 q 604 1164 590 1156 q 642 1182 618 1172 q 677 1199 665 1191 q 688 1219 688 1206 q 669 1243 688 1235 q 605 1251 651 1251 q 532 1247 565 1251 q 462 1230 499 1242 l 462 1280 q 610 1302 526 1302 m 352 1122 l 453 1122 l 639 870 l 540 870 l 403 1060 l 266 870 l 167 870 l 352 1122 z "},"ẫ":{"ha":810,"x_min":80,"x_max":699,"o":"m 376 765 q 557 739 486 765 q 663 651 627 713 q 699 484 699 589 l 699 0 l 600 0 l 592 85 l 584 85 q 475 14 542 40 q 334 -12 408 -12 q 196 13 253 -12 q 109 85 139 38 q 80 194 80 131 q 151 345 80 292 q 379 415 222 399 l 583 437 l 583 490 q 559 601 583 561 q 487 657 535 641 q 363 673 440 673 q 249 664 309 673 q 132 636 188 655 l 132 728 q 250 756 185 746 q 376 765 315 765 m 360 74 q 481 97 423 74 q 583 166 538 120 l 583 361 l 386 340 q 242 295 285 328 q 199 203 199 263 q 239 107 199 141 q 360 74 279 74 m 515 1150 q 457 1157 485 1150 q 392 1176 428 1164 q 335 1193 358 1188 q 288 1199 312 1199 q 220 1188 251 1199 q 161 1153 190 1177 l 161 1224 q 290 1266 208 1266 q 349 1259 321 1266 q 414 1240 377 1252 q 470 1223 447 1228 q 517 1217 494 1217 q 586 1227 556 1217 q 644 1263 616 1238 l 644 1192 q 515 1150 597 1150 m 649 870 l 545 870 l 403 1053 l 260 870 l 156 870 l 349 1108 l 456 1108 l 649 870 z "},"ȁ":{"ha":810,"x_min":80,"x_max":699,"o":"m 376 765 q 557 739 486 765 q 663 651 627 713 q 699 484 699 589 l 699 0 l 600 0 l 592 85 l 584 85 q 475 14 542 40 q 334 -12 408 -12 q 196 13 253 -12 q 109 85 139 38 q 80 194 80 131 q 151 345 80 292 q 379 415 222 399 l 583 437 l 583 490 q 559 601 583 561 q 487 657 535 641 q 363 673 440 673 q 249 664 309 673 q 132 636 188 655 l 132 728 q 250 756 185 746 q 376 765 315 765 m 360 74 q 481 97 423 74 q 583 166 538 120 l 583 361 l 386 340 q 242 295 285 328 q 199 203 199 263 q 239 107 199 141 q 360 74 279 74 m 228 870 l 98 1122 l 197 1122 l 320 870 l 228 870 m 485 870 l 355 1122 l 454 1122 l 577 870 l 485 870 z "},"ä":{"ha":810,"x_min":80,"x_max":699,"o":"m 376 765 q 557 739 486 765 q 663 651 627 713 q 699 484 699 589 l 699 0 l 600 0 l 592 85 l 584 85 q 475 14 542 40 q 334 -12 408 -12 q 196 13 253 -12 q 109 85 139 38 q 80 194 80 131 q 151 345 80 292 q 379 415 222 399 l 583 437 l 583 490 q 559 601 583 561 q 487 657 535 641 q 363 673 440 673 q 249 664 309 673 q 132 636 188 655 l 132 728 q 250 756 185 746 q 376 765 315 765 m 360 74 q 481 97 423 74 q 583 166 538 120 l 583 361 l 386 340 q 242 295 285 328 q 199 203 199 263 q 239 107 199 141 q 360 74 279 74 m 228 918 q 174 936 193 918 q 155 987 155 955 q 174 1038 155 1019 q 228 1056 193 1056 q 282 1038 263 1056 q 301 987 301 1019 q 282 936 301 955 q 228 918 263 918 m 578 918 q 523 936 542 918 q 504 987 504 955 q 524 1038 504 1019 q 578 1056 543 1056 q 632 1038 613 1056 q 651 987 651 1019 q 632 936 651 955 q 578 918 613 918 z "},"ạ":{"ha":810,"x_min":80,"x_max":699,"o":"m 376 765 q 557 739 486 765 q 663 651 627 713 q 699 484 699 589 l 699 0 l 600 0 l 592 85 l 584 85 q 475 14 542 40 q 334 -12 408 -12 q 196 13 253 -12 q 109 85 139 38 q 80 194 80 131 q 151 345 80 292 q 379 415 222 399 l 583 437 l 583 490 q 559 601 583 561 q 487 657 535 641 q 363 673 440 673 q 249 664 309 673 q 132 636 188 655 l 132 728 q 250 756 185 746 q 376 765 315 765 m 360 74 q 481 97 423 74 q 583 166 538 120 l 583 361 l 386 340 q 242 295 285 328 q 199 203 199 263 q 239 107 199 141 q 360 74 279 74 m 415 -249 q 361 -231 381 -249 q 342 -182 342 -212 q 361 -132 342 -151 q 415 -114 381 -114 q 469 -132 450 -114 q 488 -182 488 -151 q 469 -231 488 -212 q 415 -249 450 -249 z "},"à":{"ha":810,"x_min":80,"x_max":699,"o":"m 376 765 q 557 739 486 765 q 663 651 627 713 q 699 484 699 589 l 699 0 l 600 0 l 592 85 l 584 85 q 475 14 542 40 q 334 -12 408 -12 q 196 13 253 -12 q 109 85 139 38 q 80 194 80 131 q 151 345 80 292 q 379 415 222 399 l 583 437 l 583 490 q 559 601 583 561 q 487 657 535 641 q 363 673 440 673 q 249 664 309 673 q 132 636 188 655 l 132 728 q 250 756 185 746 q 376 765 315 765 m 360 74 q 481 97 423 74 q 583 166 538 120 l 583 361 l 386 340 q 242 295 285 328 q 199 203 199 263 q 239 107 199 141 q 360 74 279 74 m 346 870 l 143 1122 l 276 1122 l 460 870 l 346 870 z "},"ả":{"ha":810,"x_min":80,"x_max":699,"o":"m 376 765 q 557 739 486 765 q 663 651 627 713 q 699 484 699 589 l 699 0 l 600 0 l 592 85 l 584 85 q 475 14 542 40 q 334 -12 408 -12 q 196 13 253 -12 q 109 85 139 38 q 80 194 80 131 q 151 345 80 292 q 379 415 222 399 l 583 437 l 583 490 q 559 601 583 561 q 487 657 535 641 q 363 673 440 673 q 249 664 309 673 q 132 636 188 655 l 132 728 q 250 756 185 746 q 376 765 315 765 m 360 74 q 481 97 423 74 q 583 166 538 120 l 583 361 l 386 340 q 242 295 285 328 q 199 203 199 263 q 239 107 199 141 q 360 74 279 74 m 368 870 q 380 916 369 897 q 406 947 391 935 q 442 973 420 959 q 478 1000 467 989 q 490 1028 490 1011 q 467 1063 490 1052 q 398 1074 445 1074 q 338 1070 369 1074 q 278 1058 306 1066 l 278 1113 q 335 1126 301 1122 q 401 1131 369 1131 q 559 1033 559 1131 q 543 982 559 1000 q 497 944 528 964 q 454 911 468 926 q 438 870 440 896 l 368 870 z "},"ȃ":{"ha":810,"x_min":80,"x_max":699,"o":"m 376 765 q 557 739 486 765 q 663 651 627 713 q 699 484 699 589 l 699 0 l 600 0 l 592 85 l 584 85 q 475 14 542 40 q 334 -12 408 -12 q 196 13 253 -12 q 109 85 139 38 q 80 194 80 131 q 151 345 80 292 q 379 415 222 399 l 583 437 l 583 490 q 559 601 583 561 q 487 657 535 641 q 363 673 440 673 q 249 664 309 673 q 132 636 188 655 l 132 728 q 250 756 185 746 q 376 765 315 765 m 360 74 q 481 97 423 74 q 583 166 538 120 l 583 361 l 386 340 q 242 295 285 328 q 199 203 199 263 q 239 107 199 141 q 360 74 279 74 m 165 890 q 231 1056 171 994 q 402 1117 291 1117 q 528 1088 476 1117 q 609 1009 581 1060 q 640 890 637 958 l 562 890 q 517 1006 556 964 q 402 1047 478 1047 q 288 1006 326 1047 q 244 890 250 964 l 165 890 z "},"ā":{"ha":810,"x_min":80,"x_max":699,"o":"m 376 765 q 557 739 486 765 q 663 651 627 713 q 699 484 699 589 l 699 0 l 600 0 l 592 85 l 584 85 q 475 14 542 40 q 334 -12 408 -12 q 196 13 253 -12 q 109 85 139 38 q 80 194 80 131 q 151 345 80 292 q 379 415 222 399 l 583 437 l 583 490 q 559 601 583 561 q 487 657 535 641 q 363 673 440 673 q 249 664 309 673 q 132 636 188 655 l 132 728 q 250 756 185 746 q 376 765 315 765 m 360 74 q 481 97 423 74 q 583 166 538 120 l 583 361 l 386 340 q 242 295 285 328 q 199 203 199 263 q 239 107 199 141 q 360 74 279 74 m 166 951 l 166 1026 l 640 1026 l 640 951 l 166 951 z "},"ą":{"ha":810,"x_min":80,"x_max":763,"o":"m 653 -232 q 763 -204 708 -232 l 763 -261 q 642 -288 706 -288 q 526 -254 567 -288 q 484 -160 484 -219 q 512 -69 484 -110 q 599 6 540 -28 l 592 85 l 584 85 q 475 14 542 40 q 334 -12 408 -12 q 196 13 253 -12 q 109 85 139 38 q 80 194 80 131 q 151 345 80 292 q 379 415 222 399 l 583 437 l 583 490 q 559 601 583 561 q 487 657 535 641 q 363 673 440 673 q 249 664 309 673 q 132 636 188 655 l 132 728 q 250 756 185 746 q 376 765 315 765 q 557 739 486 765 q 663 651 627 713 q 699 484 699 589 l 699 0 q 591 -72 623 -36 q 558 -153 558 -108 q 584 -211 558 -190 q 653 -232 609 -232 m 360 74 q 481 97 423 74 q 583 166 538 120 l 583 361 l 386 340 q 242 295 285 328 q 199 203 199 263 q 239 107 199 141 q 360 74 279 74 z "},"å":{"ha":810,"x_min":80,"x_max":699,"o":"m 376 765 q 557 739 486 765 q 663 651 627 713 q 699 484 699 589 l 699 0 l 600 0 l 592 85 l 584 85 q 475 14 542 40 q 334 -12 408 -12 q 196 13 253 -12 q 109 85 139 38 q 80 194 80 131 q 151 345 80 292 q 379 415 222 399 l 583 437 l 583 490 q 559 601 583 561 q 487 657 535 641 q 363 673 440 673 q 249 664 309 673 q 132 636 188 655 l 132 728 q 250 756 185 746 q 376 765 315 765 m 360 74 q 481 97 423 74 q 583 166 538 120 l 583 361 l 386 340 q 242 295 285 328 q 199 203 199 263 q 239 107 199 141 q 360 74 279 74 m 403 867 q 333 884 364 867 q 285 932 302 901 q 267 1001 267 963 q 285 1070 267 1039 q 333 1118 302 1101 q 403 1135 364 1135 q 473 1118 442 1135 q 521 1070 503 1101 q 538 1001 538 1039 q 521 932 538 963 q 473 884 503 901 q 403 867 442 867 m 403 918 q 461 941 439 918 q 484 1001 484 963 q 461 1061 484 1039 q 403 1084 439 1084 q 344 1061 367 1084 q 322 1001 322 1039 q 344 941 322 963 q 403 918 367 918 z "},"ǻ":{"ha":810,"x_min":80,"x_max":699,"o":"m 376 765 q 557 739 486 765 q 663 651 627 713 q 699 484 699 589 l 699 0 l 600 0 l 592 85 l 584 85 q 475 14 542 40 q 334 -12 408 -12 q 196 13 253 -12 q 109 85 139 38 q 80 194 80 131 q 151 345 80 292 q 379 415 222 399 l 583 437 l 583 490 q 559 601 583 561 q 487 657 535 641 q 363 673 440 673 q 249 664 309 673 q 132 636 188 655 l 132 728 q 250 756 185 746 q 376 765 315 765 m 360 74 q 481 97 423 74 q 583 166 538 120 l 583 361 l 386 340 q 242 295 285 328 q 199 203 199 263 q 239 107 199 141 q 360 74 279 74 m 513 1081 q 538 1001 538 1047 q 521 932 538 963 q 473 884 503 901 q 403 867 442 867 q 333 884 364 867 q 285 932 302 901 q 267 1001 267 963 q 285 1070 267 1039 q 333 1118 302 1101 q 403 1135 364 1135 q 463 1123 436 1135 l 560 1236 l 653 1236 l 513 1081 m 403 918 q 461 941 439 918 q 484 1001 484 963 q 461 1061 484 1039 q 403 1084 439 1084 q 344 1061 367 1084 q 322 1001 322 1039 q 344 941 322 963 q 403 918 367 918 z "},"ã":{"ha":810,"x_min":80,"x_max":699,"o":"m 376 765 q 557 739 486 765 q 663 651 627 713 q 699 484 699 589 l 699 0 l 600 0 l 592 85 l 584 85 q 475 14 542 40 q 334 -12 408 -12 q 196 13 253 -12 q 109 85 139 38 q 80 194 80 131 q 151 345 80 292 q 379 415 222 399 l 583 437 l 583 490 q 559 601 583 561 q 487 657 535 641 q 363 673 440 673 q 249 664 309 673 q 132 636 188 655 l 132 728 q 250 756 185 746 q 376 765 315 765 m 360 74 q 481 97 423 74 q 583 166 538 120 l 583 361 l 386 340 q 242 295 285 328 q 199 203 199 263 q 239 107 199 141 q 360 74 279 74 m 512 934 q 456 942 483 934 q 392 964 430 949 q 337 984 360 977 q 292 990 314 990 q 225 978 255 990 q 166 938 194 965 l 166 1019 q 294 1065 213 1065 q 349 1058 323 1065 q 414 1035 376 1050 q 469 1016 446 1022 q 514 1009 492 1009 q 581 1022 551 1009 q 640 1061 611 1034 l 640 980 q 512 934 593 934 z "},"æ":{"ha":1312,"x_min":80,"x_max":1247,"o":"m 1247 340 l 699 340 q 776 140 704 202 q 994 78 849 78 q 1207 111 1089 78 l 1207 20 q 978 -13 1090 -13 q 650 122 744 -13 q 501 18 578 49 q 342 -12 424 -12 q 200 13 258 -12 q 110 85 141 38 q 80 195 80 132 q 157 357 80 298 q 397 416 233 416 l 583 416 l 583 490 q 559 601 583 561 q 487 657 535 641 q 363 673 440 673 q 249 664 309 673 q 132 636 188 655 l 132 728 q 249 756 185 746 q 373 765 313 765 q 556 735 486 765 q 658 633 626 704 q 768 732 700 699 q 924 765 835 765 q 1099 720 1027 765 q 1209 588 1172 676 q 1247 375 1247 501 l 1247 340 m 919 683 q 699 416 706 683 l 1136 416 q 1078 618 1133 552 q 919 683 1024 683 m 362 74 q 494 102 430 74 q 613 194 558 130 q 584 340 590 254 l 401 340 q 246 303 294 340 q 199 203 199 267 q 240 107 199 141 q 362 74 281 74 z "},"ǽ":{"ha":1312,"x_min":80,"x_max":1247,"o":"m 1247 340 l 699 340 q 776 140 704 202 q 994 78 849 78 q 1207 111 1089 78 l 1207 20 q 978 -13 1090 -13 q 650 122 744 -13 q 501 18 578 49 q 342 -12 424 -12 q 200 13 258 -12 q 110 85 141 38 q 80 195 80 132 q 157 357 80 298 q 397 416 233 416 l 583 416 l 583 490 q 559 601 583 561 q 487 657 535 641 q 363 673 440 673 q 249 664 309 673 q 132 636 188 655 l 132 728 q 249 756 185 746 q 373 765 313 765 q 556 735 486 765 q 658 633 626 704 q 768 732 700 699 q 924 765 835 765 q 1099 720 1027 765 q 1209 588 1172 676 q 1247 375 1247 501 l 1247 340 m 919 683 q 699 416 706 683 l 1136 416 q 1078 618 1133 552 q 919 683 1024 683 m 362 74 q 494 102 430 74 q 613 194 558 130 q 584 340 590 254 l 401 340 q 246 303 294 340 q 199 203 199 267 q 240 107 199 141 q 362 74 281 74 m 586 870 l 770 1122 l 903 1122 l 700 870 l 586 870 z "},"b":{"ha":899,"x_min":122,"x_max":821,"o":"m 397 -13 q 122 24 250 -13 l 122 1122 l 239 1122 l 239 671 l 245 671 q 353 741 290 716 q 492 765 417 765 q 661 726 588 765 q 778 603 735 687 q 821 392 821 520 q 714 89 821 191 q 397 -13 607 -13 m 408 81 q 630 155 556 81 q 703 383 703 228 q 638 600 703 533 q 460 667 574 667 q 339 644 396 667 q 239 574 281 622 l 239 103 q 408 81 317 81 z "},"c":{"ha":703,"x_min":78,"x_max":665,"o":"m 454 -13 q 175 84 272 -13 q 78 376 78 182 q 181 668 78 570 q 481 765 283 765 q 665 741 582 765 l 665 644 q 578 662 619 656 q 490 668 536 668 q 270 598 342 668 q 198 378 198 528 q 265 155 198 226 q 466 83 333 83 q 558 92 510 83 q 665 119 605 100 l 665 22 q 454 -13 566 -13 z "},"ć":{"ha":703,"x_min":78,"x_max":672,"o":"m 454 -13 q 175 84 272 -13 q 78 376 78 182 q 181 668 78 570 q 481 765 283 765 q 665 741 582 765 l 665 644 q 578 662 619 656 q 490 668 536 668 q 270 598 342 668 q 198 378 198 528 q 265 155 198 226 q 466 83 333 83 q 558 92 510 83 q 665 119 605 100 l 665 22 q 454 -13 566 -13 m 355 870 l 539 1122 l 672 1122 l 469 870 l 355 870 z "},"č":{"ha":703,"x_min":78,"x_max":665,"o":"m 454 -13 q 175 84 272 -13 q 78 376 78 182 q 181 668 78 570 q 481 765 283 765 q 665 741 582 765 l 665 644 q 578 662 619 656 q 490 668 536 668 q 270 598 342 668 q 198 378 198 528 q 265 155 198 226 q 466 83 333 83 q 558 92 510 83 q 665 119 605 100 l 665 22 q 454 -13 566 -13 m 553 1122 l 652 1122 l 463 870 l 361 870 l 172 1122 l 271 1122 l 412 931 l 553 1122 z "},"ç":{"ha":703,"x_min":78,"x_max":665,"o":"m 490 668 q 270 598 342 668 q 198 378 198 528 q 265 155 198 226 q 466 83 333 83 q 558 92 510 83 q 665 119 605 100 l 665 22 q 454 -13 566 -13 l 449 -13 l 449 -70 q 538 -103 507 -75 q 568 -180 568 -132 q 529 -260 568 -232 q 419 -288 490 -288 q 349 -281 384 -288 q 288 -262 313 -274 l 288 -206 q 415 -234 348 -234 q 479 -220 458 -234 q 500 -176 500 -206 q 479 -131 500 -145 q 415 -117 458 -117 l 384 -117 l 384 -9 q 156 105 235 8 q 78 376 78 201 q 181 668 78 570 q 481 765 283 765 q 665 741 582 765 l 665 644 q 578 662 619 656 q 490 668 536 668 z "},"ḉ":{"ha":703,"x_min":78,"x_max":672,"o":"m 672 1122 l 469 870 l 355 870 l 539 1122 l 672 1122 m 78 376 q 181 668 78 570 q 481 765 283 765 q 665 741 582 765 l 665 644 q 578 662 619 656 q 490 668 536 668 q 270 598 342 668 q 198 378 198 528 q 265 155 198 226 q 466 83 333 83 q 558 92 510 83 q 665 119 605 100 l 665 22 q 454 -13 566 -13 l 449 -13 l 449 -70 q 538 -103 507 -75 q 568 -180 568 -132 q 529 -260 568 -232 q 419 -288 490 -288 q 349 -281 384 -288 q 288 -262 313 -274 l 288 -206 q 415 -234 348 -234 q 479 -220 458 -234 q 500 -176 500 -206 q 479 -131 500 -145 q 415 -117 458 -117 l 384 -117 l 384 -9 q 156 105 235 8 q 78 376 78 201 z "},"ĉ":{"ha":703,"x_min":78,"x_max":665,"o":"m 454 -13 q 175 84 272 -13 q 78 376 78 182 q 181 668 78 570 q 481 765 283 765 q 665 741 582 765 l 665 644 q 578 662 619 656 q 490 668 536 668 q 270 598 342 668 q 198 378 198 528 q 265 155 198 226 q 466 83 333 83 q 558 92 510 83 q 665 119 605 100 l 665 22 q 454 -13 566 -13 m 648 870 l 549 870 l 412 1060 l 275 870 l 176 870 l 361 1122 l 463 1122 l 648 870 z "},"ċ":{"ha":703,"x_min":78,"x_max":665,"o":"m 454 -13 q 175 84 272 -13 q 78 376 78 182 q 181 668 78 570 q 481 765 283 765 q 665 741 582 765 l 665 644 q 578 662 619 656 q 490 668 536 668 q 270 598 342 668 q 198 378 198 528 q 265 155 198 226 q 466 83 333 83 q 558 92 510 83 q 665 119 605 100 l 665 22 q 454 -13 566 -13 m 412 917 q 352 935 373 917 q 331 987 331 953 q 352 1039 331 1020 q 412 1057 373 1057 q 472 1039 451 1057 q 492 987 492 1020 q 472 935 492 953 q 412 917 451 917 z "},"d":{"ha":899,"x_min":78,"x_max":776,"o":"m 417 -12 q 241 27 317 -12 q 121 151 165 67 q 78 361 78 234 q 185 663 78 560 q 497 766 292 766 q 660 751 576 766 l 660 1122 l 776 1122 l 776 0 l 678 0 l 670 87 l 663 87 q 556 14 619 40 q 417 -12 492 -12 m 442 85 q 562 110 506 85 q 660 186 618 134 l 660 653 q 500 672 586 672 q 271 598 346 672 q 196 371 196 524 q 442 85 196 85 z "},"ð":{"ha":882,"x_min":78,"x_max":803,"o":"m 621 913 q 755 669 706 800 q 803 408 803 538 q 759 173 803 267 q 634 33 715 79 q 442 -13 553 -13 q 248 30 330 -13 q 122 160 167 72 q 78 377 78 247 q 122 591 78 505 q 245 720 166 678 q 432 763 325 763 q 618 708 545 763 q 503 895 573 810 l 160 842 l 149 915 l 446 961 q 249 1122 363 1048 l 403 1122 q 567 980 490 1063 l 773 1012 l 785 939 l 621 913 m 442 82 q 622 154 558 82 q 686 376 686 226 q 623 600 686 530 q 441 670 560 670 q 259 600 322 670 q 196 378 196 530 q 442 82 196 82 z "},"ď":{"ha":899,"x_min":78,"x_max":951,"o":"m 417 -12 q 241 27 317 -12 q 121 151 165 67 q 78 361 78 234 q 185 663 78 560 q 497 766 292 766 q 660 751 576 766 l 660 1122 l 776 1122 l 776 0 l 678 0 l 670 87 l 663 87 q 556 14 619 40 q 417 -12 492 -12 m 442 85 q 562 110 506 85 q 660 186 618 134 l 660 653 q 500 672 586 672 q 271 598 346 672 q 196 371 196 524 q 442 85 196 85 m 851 819 q 867 1122 867 940 l 951 1122 q 943 966 951 1045 q 917 819 934 886 l 851 819 z "},"đ":{"ha":899,"x_min":78,"x_max":890,"o":"m 890 903 l 776 903 l 776 0 l 678 0 l 670 87 l 663 87 q 556 14 619 40 q 417 -12 492 -12 q 241 27 317 -12 q 121 151 165 67 q 78 361 78 234 q 185 663 78 560 q 497 766 292 766 q 660 751 576 766 l 660 903 l 364 903 l 364 980 l 660 980 l 660 1122 l 776 1122 l 776 980 l 890 980 l 890 903 m 660 653 q 500 672 586 672 q 271 598 346 672 q 196 371 196 524 q 442 85 196 85 q 562 110 506 85 q 660 186 618 134 l 660 653 z "},"ḍ":{"ha":899,"x_min":78,"x_max":776,"o":"m 417 -12 q 241 27 317 -12 q 121 151 165 67 q 78 361 78 234 q 185 663 78 560 q 497 766 292 766 q 660 751 576 766 l 660 1122 l 776 1122 l 776 0 l 678 0 l 670 87 l 663 87 q 556 14 619 40 q 417 -12 492 -12 m 442 85 q 562 110 506 85 q 660 186 618 134 l 660 653 q 500 672 586 672 q 271 598 346 672 q 196 371 196 524 q 442 85 196 85 m 451 -249 q 397 -231 416 -249 q 378 -182 378 -212 q 397 -132 378 -151 q 451 -114 416 -114 q 505 -132 485 -114 q 524 -182 524 -151 q 505 -231 524 -212 q 451 -249 485 -249 z "},"ḏ":{"ha":899,"x_min":78,"x_max":776,"o":"m 417 -12 q 241 27 317 -12 q 121 151 165 67 q 78 361 78 234 q 185 663 78 560 q 497 766 292 766 q 660 751 576 766 l 660 1122 l 776 1122 l 776 0 l 678 0 l 670 87 l 663 87 q 556 14 619 40 q 417 -12 492 -12 m 442 85 q 562 110 506 85 q 660 186 618 134 l 660 653 q 500 672 586 672 q 271 598 346 672 q 196 371 196 524 q 442 85 196 85 m 233 -219 l 233 -144 l 669 -144 l 669 -219 l 233 -219 z "},"ǳ":{"ha":1635,"x_min":78,"x_max":1590,"o":"m 417 -12 q 241 27 317 -12 q 121 151 165 67 q 78 361 78 234 q 185 663 78 560 q 497 766 292 766 q 660 751 576 766 l 660 1122 l 776 1122 l 776 0 l 678 0 l 670 87 l 663 87 q 556 14 619 40 q 417 -12 492 -12 m 442 85 q 562 110 506 85 q 660 186 618 134 l 660 653 q 500 672 586 672 q 271 598 346 672 q 196 371 196 524 q 442 85 196 85 m 1108 97 l 1590 97 l 1590 0 l 950 0 l 950 74 l 1422 657 l 959 657 l 959 753 l 1581 753 l 1581 680 l 1108 97 z "},"ǆ":{"ha":1635,"x_min":78,"x_max":1590,"o":"m 417 -12 q 241 27 317 -12 q 121 151 165 67 q 78 361 78 234 q 185 663 78 560 q 497 766 292 766 q 660 751 576 766 l 660 1122 l 776 1122 l 776 0 l 678 0 l 670 87 l 663 87 q 556 14 619 40 q 417 -12 492 -12 m 442 85 q 562 110 506 85 q 660 186 618 134 l 660 653 q 500 672 586 672 q 271 598 346 672 q 196 371 196 524 q 442 85 196 85 m 1108 97 l 1590 97 l 1590 0 l 950 0 l 950 74 l 1422 657 l 959 657 l 959 753 l 1581 753 l 1581 680 l 1108 97 m 1411 1122 l 1510 1122 l 1321 870 l 1219 870 l 1030 1122 l 1129 1122 l 1270 931 l 1411 1122 z "},"e":{"ha":814,"x_min":78,"x_max":749,"o":"m 749 340 l 196 340 q 274 140 201 202 q 494 78 347 78 q 709 111 588 78 l 709 20 q 478 -13 590 -13 q 179 82 281 -13 q 78 376 78 178 q 118 589 78 502 q 236 721 159 676 q 420 765 313 765 q 664 665 579 765 q 749 373 749 564 l 749 340 m 419 683 q 255 618 312 683 q 195 416 199 552 l 638 416 q 580 618 635 553 q 419 683 525 683 z "},"é":{"ha":814,"x_min":78,"x_max":749,"o":"m 749 340 l 196 340 q 274 140 201 202 q 494 78 347 78 q 709 111 588 78 l 709 20 q 478 -13 590 -13 q 179 82 281 -13 q 78 376 78 178 q 118 589 78 502 q 236 721 159 676 q 420 765 313 765 q 664 665 579 765 q 749 373 749 564 l 749 340 m 419 683 q 255 618 312 683 q 195 416 199 552 l 638 416 q 580 618 635 553 q 419 683 525 683 m 365 870 l 549 1122 l 681 1122 l 478 870 l 365 870 z "},"ĕ":{"ha":814,"x_min":78,"x_max":749,"o":"m 749 340 l 196 340 q 274 140 201 202 q 494 78 347 78 q 709 111 588 78 l 709 20 q 478 -13 590 -13 q 179 82 281 -13 q 78 376 78 178 q 118 589 78 502 q 236 721 159 676 q 420 765 313 765 q 664 665 579 765 q 749 373 749 564 l 749 340 m 419 683 q 255 618 312 683 q 195 416 199 552 l 638 416 q 580 618 635 553 q 419 683 525 683 m 422 877 q 296 906 349 877 q 216 985 244 934 q 184 1104 188 1036 l 263 1104 q 307 987 269 1029 q 422 945 346 945 q 581 1104 567 945 l 659 1104 q 593 939 653 1000 q 422 877 532 877 z "},"ě":{"ha":814,"x_min":78,"x_max":749,"o":"m 749 340 l 196 340 q 274 140 201 202 q 494 78 347 78 q 709 111 588 78 l 709 20 q 478 -13 590 -13 q 179 82 281 -13 q 78 376 78 178 q 118 589 78 502 q 236 721 159 676 q 420 765 313 765 q 664 665 579 765 q 749 373 749 564 l 749 340 m 419 683 q 255 618 312 683 q 195 416 199 552 l 638 416 q 580 618 635 553 q 419 683 525 683 m 563 1122 l 662 1122 l 472 870 l 371 870 l 181 1122 l 281 1122 l 422 931 l 563 1122 z "},"ḝ":{"ha":814,"x_min":78,"x_max":749,"o":"m 422 877 q 296 906 349 877 q 216 985 244 934 q 184 1104 188 1036 l 263 1104 q 307 987 269 1029 q 422 945 346 945 q 581 1104 567 945 l 659 1104 q 593 939 653 1000 q 422 877 532 877 m 749 340 l 196 340 q 274 140 201 202 q 494 78 347 78 q 709 111 588 78 l 709 20 q 478 -13 590 -13 l 457 -13 l 457 -70 q 546 -103 515 -75 q 576 -180 576 -132 q 538 -260 576 -232 q 428 -288 499 -288 q 357 -281 392 -288 q 297 -262 322 -274 l 297 -206 q 424 -234 356 -234 q 487 -220 466 -234 q 508 -176 508 -206 q 487 -131 508 -145 q 423 -117 466 -117 l 392 -117 l 392 -8 q 157 106 237 11 q 78 376 78 201 q 118 589 78 502 q 236 721 159 676 q 420 765 313 765 q 664 665 579 765 q 749 373 749 564 l 749 340 m 419 683 q 255 618 312 683 q 195 416 199 552 l 638 416 q 580 618 635 553 q 419 683 525 683 z "},"ê":{"ha":814,"x_min":78,"x_max":749,"o":"m 749 340 l 196 340 q 274 140 201 202 q 494 78 347 78 q 709 111 588 78 l 709 20 q 478 -13 590 -13 q 179 82 281 -13 q 78 376 78 178 q 118 589 78 502 q 236 721 159 676 q 420 765 313 765 q 664 665 579 765 q 749 373 749 564 l 749 340 m 419 683 q 255 618 312 683 q 195 416 199 552 l 638 416 q 580 618 635 553 q 419 683 525 683 m 658 870 l 558 870 l 422 1060 l 285 870 l 185 870 l 371 1122 l 472 1122 l 658 870 z "},"ế":{"ha":814,"x_min":78,"x_max":845,"o":"m 749 340 l 196 340 q 274 140 201 202 q 494 78 347 78 q 709 111 588 78 l 709 20 q 478 -13 590 -13 q 179 82 281 -13 q 78 376 78 178 q 118 589 78 502 q 236 721 159 676 q 420 765 313 765 q 664 665 579 765 q 749 373 749 564 l 749 340 m 419 683 q 255 618 312 683 q 195 416 199 552 l 638 416 q 580 618 635 553 q 419 683 525 683 m 733 1297 l 845 1297 l 675 1109 l 582 1109 l 733 1297 m 371 1122 l 472 1122 l 658 870 l 558 870 l 422 1060 l 285 870 l 185 870 l 371 1122 z "},"ệ":{"ha":814,"x_min":78,"x_max":749,"o":"m 749 340 l 196 340 q 274 140 201 202 q 494 78 347 78 q 709 111 588 78 l 709 20 q 478 -13 590 -13 q 179 82 281 -13 q 78 376 78 178 q 118 589 78 502 q 236 721 159 676 q 420 765 313 765 q 664 665 579 765 q 749 373 749 564 l 749 340 m 419 683 q 255 618 312 683 q 195 416 199 552 l 638 416 q 580 618 635 553 q 419 683 525 683 m 422 -249 q 368 -231 387 -249 q 349 -182 349 -212 q 368 -132 349 -151 q 422 -114 387 -114 q 475 -132 456 -114 q 494 -182 494 -151 q 475 -231 494 -212 q 422 -249 456 -249 m 658 870 l 558 870 l 422 1060 l 285 870 l 185 870 l 371 1122 l 472 1122 l 658 870 z "},"ề":{"ha":814,"x_min":78,"x_max":749,"o":"m 749 340 l 196 340 q 274 140 201 202 q 494 78 347 78 q 709 111 588 78 l 709 20 q 478 -13 590 -13 q 179 82 281 -13 q 78 376 78 178 q 118 589 78 502 q 236 721 159 676 q 420 765 313 765 q 664 665 579 765 q 749 373 749 564 l 749 340 m 419 683 q 255 618 312 683 q 195 416 199 552 l 638 416 q 580 618 635 553 q 419 683 525 683 m 696 1109 l 602 1109 l 432 1297 l 544 1297 l 696 1109 m 371 1122 l 472 1122 l 658 870 l 558 870 l 422 1060 l 285 870 l 185 870 l 371 1122 z "},"ể":{"ha":814,"x_min":78,"x_max":774,"o":"m 749 340 l 196 340 q 274 140 201 202 q 494 78 347 78 q 709 111 588 78 l 709 20 q 478 -13 590 -13 q 179 82 281 -13 q 78 376 78 178 q 118 589 78 502 q 236 721 159 676 q 420 765 313 765 q 664 665 579 765 q 749 373 749 564 l 749 340 m 419 683 q 255 618 312 683 q 195 416 199 552 l 638 416 q 580 618 635 553 q 419 683 525 683 m 629 1302 q 739 1282 703 1302 q 774 1224 774 1261 q 758 1185 774 1198 q 709 1158 742 1172 q 669 1136 683 1147 q 653 1109 655 1126 l 586 1109 q 598 1143 587 1129 q 623 1164 609 1156 q 660 1182 637 1172 q 695 1199 684 1191 q 707 1219 707 1206 q 688 1243 707 1235 q 624 1251 669 1251 q 551 1247 584 1251 q 481 1230 518 1242 l 481 1280 q 629 1302 545 1302 m 371 1122 l 472 1122 l 658 870 l 558 870 l 422 1060 l 285 870 l 185 870 l 371 1122 z "},"ễ":{"ha":814,"x_min":78,"x_max":749,"o":"m 749 340 l 196 340 q 274 140 201 202 q 494 78 347 78 q 709 111 588 78 l 709 20 q 478 -13 590 -13 q 179 82 281 -13 q 78 376 78 178 q 118 589 78 502 q 236 721 159 676 q 420 765 313 765 q 664 665 579 765 q 749 373 749 564 l 749 340 m 419 683 q 255 618 312 683 q 195 416 199 552 l 638 416 q 580 618 635 553 q 419 683 525 683 m 534 1150 q 475 1157 503 1150 q 410 1176 447 1164 q 354 1193 377 1188 q 307 1199 331 1199 q 239 1188 269 1199 q 180 1153 209 1177 l 180 1224 q 309 1266 227 1266 q 368 1259 340 1266 q 433 1240 396 1252 q 489 1223 466 1228 q 536 1217 513 1217 q 605 1227 574 1217 q 663 1263 635 1238 l 663 1192 q 534 1150 616 1150 m 668 870 l 564 870 l 422 1053 l 279 870 l 175 870 l 368 1108 l 475 1108 l 668 870 z "},"ȅ":{"ha":814,"x_min":78,"x_max":749,"o":"m 749 340 l 196 340 q 274 140 201 202 q 494 78 347 78 q 709 111 588 78 l 709 20 q 478 -13 590 -13 q 179 82 281 -13 q 78 376 78 178 q 118 589 78 502 q 236 721 159 676 q 420 765 313 765 q 664 665 579 765 q 749 373 749 564 l 749 340 m 419 683 q 255 618 312 683 q 195 416 199 552 l 638 416 q 580 618 635 553 q 419 683 525 683 m 247 870 l 117 1122 l 216 1122 l 339 870 l 247 870 m 504 870 l 374 1122 l 473 1122 l 596 870 l 504 870 z "},"ë":{"ha":814,"x_min":78,"x_max":749,"o":"m 749 340 l 196 340 q 274 140 201 202 q 494 78 347 78 q 709 111 588 78 l 709 20 q 478 -13 590 -13 q 179 82 281 -13 q 78 376 78 178 q 118 589 78 502 q 236 721 159 676 q 420 765 313 765 q 664 665 579 765 q 749 373 749 564 l 749 340 m 419 683 q 255 618 312 683 q 195 416 199 552 l 638 416 q 580 618 635 553 q 419 683 525 683 m 247 918 q 193 936 212 918 q 174 987 174 955 q 193 1038 174 1019 q 247 1056 212 1056 q 301 1038 281 1056 q 320 987 320 1019 q 301 936 320 955 q 247 918 282 918 m 597 918 q 542 936 561 918 q 523 987 523 955 q 542 1038 523 1019 q 597 1056 562 1056 q 650 1038 631 1056 q 669 987 669 1019 q 650 936 669 955 q 597 918 631 918 z "},"ė":{"ha":814,"x_min":78,"x_max":749,"o":"m 749 340 l 196 340 q 274 140 201 202 q 494 78 347 78 q 709 111 588 78 l 709 20 q 478 -13 590 -13 q 179 82 281 -13 q 78 376 78 178 q 118 589 78 502 q 236 721 159 676 q 420 765 313 765 q 664 665 579 765 q 749 373 749 564 l 749 340 m 419 683 q 255 618 312 683 q 195 416 199 552 l 638 416 q 580 618 635 553 q 419 683 525 683 m 422 917 q 362 935 383 917 q 341 987 341 953 q 362 1039 341 1020 q 422 1057 383 1057 q 481 1039 460 1057 q 502 987 502 1020 q 481 935 502 953 q 422 917 460 917 z "},"ẹ":{"ha":814,"x_min":78,"x_max":749,"o":"m 749 340 l 196 340 q 274 140 201 202 q 494 78 347 78 q 709 111 588 78 l 709 20 q 478 -13 590 -13 q 179 82 281 -13 q 78 376 78 178 q 118 589 78 502 q 236 721 159 676 q 420 765 313 765 q 664 665 579 765 q 749 373 749 564 l 749 340 m 419 683 q 255 618 312 683 q 195 416 199 552 l 638 416 q 580 618 635 553 q 419 683 525 683 m 422 -249 q 368 -231 387 -249 q 349 -182 349 -212 q 368 -132 349 -151 q 422 -114 387 -114 q 475 -132 456 -114 q 494 -182 494 -151 q 475 -231 494 -212 q 422 -249 456 -249 z "},"è":{"ha":814,"x_min":78,"x_max":749,"o":"m 749 340 l 196 340 q 274 140 201 202 q 494 78 347 78 q 709 111 588 78 l 709 20 q 478 -13 590 -13 q 179 82 281 -13 q 78 376 78 178 q 118 589 78 502 q 236 721 159 676 q 420 765 313 765 q 664 665 579 765 q 749 373 749 564 l 749 340 m 419 683 q 255 618 312 683 q 195 416 199 552 l 638 416 q 580 618 635 553 q 419 683 525 683 m 365 870 l 162 1122 l 294 1122 l 478 870 l 365 870 z "},"ẻ":{"ha":814,"x_min":78,"x_max":749,"o":"m 749 340 l 196 340 q 274 140 201 202 q 494 78 347 78 q 709 111 588 78 l 709 20 q 478 -13 590 -13 q 179 82 281 -13 q 78 376 78 178 q 118 589 78 502 q 236 721 159 676 q 420 765 313 765 q 664 665 579 765 q 749 373 749 564 l 749 340 m 419 683 q 255 618 312 683 q 195 416 199 552 l 638 416 q 580 618 635 553 q 419 683 525 683 m 387 870 q 399 916 388 897 q 424 947 410 935 q 461 973 439 959 q 497 1000 485 989 q 508 1028 508 1011 q 486 1063 508 1052 q 417 1074 464 1074 q 356 1070 388 1074 q 297 1058 324 1066 l 297 1113 q 354 1126 320 1122 q 419 1131 388 1131 q 578 1033 578 1131 q 562 982 578 1000 q 515 944 547 964 q 473 911 487 926 q 457 870 459 896 l 387 870 z "},"ȇ":{"ha":814,"x_min":78,"x_max":749,"o":"m 749 340 l 196 340 q 274 140 201 202 q 494 78 347 78 q 709 111 588 78 l 709 20 q 478 -13 590 -13 q 179 82 281 -13 q 78 376 78 178 q 118 589 78 502 q 236 721 159 676 q 420 765 313 765 q 664 665 579 765 q 749 373 749 564 l 749 340 m 419 683 q 255 618 312 683 q 195 416 199 552 l 638 416 q 580 618 635 553 q 419 683 525 683 m 184 890 q 250 1056 190 994 q 421 1117 310 1117 q 547 1088 494 1117 q 627 1009 599 1060 q 659 890 656 958 l 581 890 q 535 1006 574 964 q 421 1047 497 1047 q 307 1006 345 1047 q 263 890 269 964 l 184 890 z "},"ē":{"ha":814,"x_min":78,"x_max":749,"o":"m 749 340 l 196 340 q 274 140 201 202 q 494 78 347 78 q 709 111 588 78 l 709 20 q 478 -13 590 -13 q 179 82 281 -13 q 78 376 78 178 q 118 589 78 502 q 236 721 159 676 q 420 765 313 765 q 664 665 579 765 q 749 373 749 564 l 749 340 m 419 683 q 255 618 312 683 q 195 416 199 552 l 638 416 q 580 618 635 553 q 419 683 525 683 m 185 951 l 185 1026 l 658 1026 l 658 951 l 185 951 z "},"ḗ":{"ha":814,"x_min":78,"x_max":749,"o":"m 749 340 l 196 340 q 274 140 201 202 q 494 78 347 78 q 709 111 588 78 l 709 20 q 478 -13 590 -13 q 179 82 281 -13 q 78 376 78 178 q 118 589 78 502 q 236 721 159 676 q 420 765 313 765 q 664 665 579 765 q 749 373 749 564 l 749 340 m 419 683 q 255 618 312 683 q 195 416 199 552 l 638 416 q 580 618 635 553 q 419 683 525 683 m 185 951 l 185 1026 l 658 1026 l 658 951 l 185 951 m 365 1152 l 517 1349 l 647 1349 l 476 1152 l 365 1152 z "},"ḕ":{"ha":814,"x_min":78,"x_max":749,"o":"m 749 340 l 196 340 q 274 140 201 202 q 494 78 347 78 q 709 111 588 78 l 709 20 q 478 -13 590 -13 q 179 82 281 -13 q 78 376 78 178 q 118 589 78 502 q 236 721 159 676 q 420 765 313 765 q 664 665 579 765 q 749 373 749 564 l 749 340 m 419 683 q 255 618 312 683 q 195 416 199 552 l 638 416 q 580 618 635 553 q 419 683 525 683 m 185 951 l 185 1026 l 658 1026 l 658 951 l 185 951 m 366 1152 l 196 1349 l 326 1349 l 477 1152 l 366 1152 z "},"ę":{"ha":814,"x_min":78,"x_max":749,"o":"m 749 340 l 196 340 q 274 140 201 202 q 494 78 347 78 q 709 111 588 78 l 709 20 q 503 -152 503 -41 q 529 -210 503 -189 q 599 -232 554 -232 q 709 -204 653 -232 l 709 -261 q 650 -281 682 -274 q 588 -288 619 -288 q 472 -254 513 -288 q 430 -160 430 -219 q 452 -78 430 -116 q 519 -12 475 -40 q 478 -13 506 -13 q 179 82 281 -13 q 78 376 78 178 q 118 589 78 502 q 236 721 159 676 q 420 765 313 765 q 664 665 579 765 q 749 373 749 564 l 749 340 m 419 681 q 255 616 312 681 q 195 415 199 551 l 638 415 q 580 616 635 551 q 419 681 525 681 z "},"ẽ":{"ha":814,"x_min":78,"x_max":749,"o":"m 749 340 l 196 340 q 274 140 201 202 q 494 78 347 78 q 709 111 588 78 l 709 20 q 478 -13 590 -13 q 179 82 281 -13 q 78 376 78 178 q 118 589 78 502 q 236 721 159 676 q 420 765 313 765 q 664 665 579 765 q 749 373 749 564 l 749 340 m 419 683 q 255 618 312 683 q 195 416 199 552 l 638 416 q 580 618 635 553 q 419 683 525 683 m 531 934 q 475 942 501 934 q 410 964 449 949 q 356 984 378 977 q 310 990 333 990 q 243 978 274 990 q 185 938 213 965 l 185 1019 q 313 1065 232 1065 q 368 1058 342 1065 q 433 1035 394 1050 q 488 1016 465 1022 q 533 1009 510 1009 q 600 1022 569 1009 q 658 1061 630 1034 l 658 980 q 531 934 612 934 z "},"ə":{"ha":814,"x_min":65,"x_max":736,"o":"m 335 767 q 635 671 533 767 q 736 377 736 576 q 695 164 736 251 q 578 33 655 77 q 394 -12 501 -12 q 150 89 235 -12 q 65 381 65 190 l 65 414 l 618 414 q 540 614 613 551 q 320 676 467 676 q 105 642 226 676 l 105 733 q 335 767 224 767 m 395 70 q 559 136 502 70 q 619 338 615 201 l 176 338 q 234 135 179 201 q 395 70 289 70 z "},"f":{"ha":573,"x_min":20,"x_max":603,"o":"m 499 1040 q 342 993 392 1040 q 293 840 293 947 l 293 753 l 571 753 l 571 657 l 293 657 l 293 0 l 176 0 l 176 657 l 20 657 l 20 753 l 176 753 l 176 833 q 256 1059 176 983 q 487 1136 335 1136 q 603 1127 542 1136 l 603 1031 q 499 1040 547 1040 z "},"g":{"ha":899,"x_min":78,"x_max":776,"o":"m 390 -319 q 258 -310 327 -319 q 128 -281 189 -300 l 128 -184 q 385 -226 263 -226 q 542 -201 482 -226 q 631 -122 602 -176 q 660 24 660 -67 l 660 86 l 653 86 q 545 16 608 41 q 406 -8 482 -8 q 237 31 311 -8 q 120 153 163 70 q 78 361 78 236 q 185 663 78 560 q 502 765 292 765 q 776 727 647 765 l 776 43 q 734 -165 776 -85 q 607 -282 692 -244 q 390 -319 522 -319 m 438 90 q 559 113 501 90 q 660 183 617 135 l 660 651 q 491 671 585 671 q 270 597 344 671 q 196 372 196 524 q 261 156 196 223 q 438 90 326 90 z "},"ǵ":{"ha":899,"x_min":78,"x_max":776,"o":"m 390 -319 q 258 -310 327 -319 q 128 -281 189 -300 l 128 -184 q 385 -226 263 -226 q 542 -201 482 -226 q 631 -122 602 -176 q 660 24 660 -67 l 660 86 l 653 86 q 545 16 608 41 q 406 -8 482 -8 q 237 31 311 -8 q 120 153 163 70 q 78 361 78 236 q 185 663 78 560 q 502 765 292 765 q 776 727 647 765 l 776 43 q 734 -165 776 -85 q 607 -282 692 -244 q 390 -319 522 -319 m 438 90 q 559 113 501 90 q 660 183 617 135 l 660 651 q 491 671 585 671 q 270 597 344 671 q 196 372 196 524 q 261 156 196 223 q 438 90 326 90 m 407 870 l 591 1122 l 724 1122 l 521 870 l 407 870 z "},"ğ":{"ha":899,"x_min":78,"x_max":776,"o":"m 390 -319 q 258 -310 327 -319 q 128 -281 189 -300 l 128 -184 q 385 -226 263 -226 q 542 -201 482 -226 q 631 -122 602 -176 q 660 24 660 -67 l 660 86 l 653 86 q 545 16 608 41 q 406 -8 482 -8 q 237 31 311 -8 q 120 153 163 70 q 78 361 78 236 q 185 663 78 560 q 502 765 292 765 q 776 727 647 765 l 776 43 q 734 -165 776 -85 q 607 -282 692 -244 q 390 -319 522 -319 m 438 90 q 559 113 501 90 q 660 183 617 135 l 660 651 q 491 671 585 671 q 270 597 344 671 q 196 372 196 524 q 261 156 196 223 q 438 90 326 90 m 465 877 q 339 906 391 877 q 258 985 286 934 q 226 1104 230 1036 l 305 1104 q 350 987 311 1029 q 465 945 388 945 q 623 1104 610 945 l 701 1104 q 635 939 696 1000 q 465 877 574 877 z "},"ǧ":{"ha":899,"x_min":78,"x_max":776,"o":"m 390 -319 q 258 -310 327 -319 q 128 -281 189 -300 l 128 -184 q 385 -226 263 -226 q 542 -201 482 -226 q 631 -122 602 -176 q 660 24 660 -67 l 660 86 l 653 86 q 545 16 608 41 q 406 -8 482 -8 q 237 31 311 -8 q 120 153 163 70 q 78 361 78 236 q 185 663 78 560 q 502 765 292 765 q 776 727 647 765 l 776 43 q 734 -165 776 -85 q 607 -282 692 -244 q 390 -319 522 -319 m 438 90 q 559 113 501 90 q 660 183 617 135 l 660 651 q 491 671 585 671 q 270 597 344 671 q 196 372 196 524 q 261 156 196 223 q 438 90 326 90 m 605 1122 l 704 1122 l 515 870 l 413 870 l 224 1122 l 323 1122 l 464 931 l 605 1122 z "},"ĝ":{"ha":899,"x_min":78,"x_max":776,"o":"m 390 -319 q 258 -310 327 -319 q 128 -281 189 -300 l 128 -184 q 385 -226 263 -226 q 542 -201 482 -226 q 631 -122 602 -176 q 660 24 660 -67 l 660 86 l 653 86 q 545 16 608 41 q 406 -8 482 -8 q 237 31 311 -8 q 120 153 163 70 q 78 361 78 236 q 185 663 78 560 q 502 765 292 765 q 776 727 647 765 l 776 43 q 734 -165 776 -85 q 607 -282 692 -244 q 390 -319 522 -319 m 438 90 q 559 113 501 90 q 660 183 617 135 l 660 651 q 491 671 585 671 q 270 597 344 671 q 196 372 196 524 q 261 156 196 223 q 438 90 326 90 m 700 870 l 601 870 l 464 1060 l 327 870 l 228 870 l 413 1122 l 515 1122 l 700 870 z "},"ģ":{"ha":899,"x_min":78,"x_max":776,"o":"m 390 -319 q 258 -310 327 -319 q 128 -281 189 -300 l 128 -184 q 385 -226 263 -226 q 542 -201 482 -226 q 631 -122 602 -176 q 660 24 660 -67 l 660 86 l 653 86 q 545 16 608 41 q 406 -8 482 -8 q 237 31 311 -8 q 120 153 163 70 q 78 361 78 236 q 185 663 78 560 q 502 765 292 765 q 776 727 647 765 l 776 43 q 734 -165 776 -85 q 607 -282 692 -244 q 390 -319 522 -319 m 438 90 q 559 113 501 90 q 660 183 617 135 l 660 651 q 491 671 585 671 q 270 597 344 671 q 196 372 196 524 q 261 156 196 223 q 438 90 326 90 m 471 1031 q 522 1015 505 1030 q 540 974 540 999 q 520 934 540 949 q 466 919 501 919 q 388 994 388 919 q 399 1061 388 1025 q 428 1128 409 1098 l 500 1128 q 471 1031 476 1077 z "},"ġ":{"ha":899,"x_min":78,"x_max":776,"o":"m 390 -319 q 258 -310 327 -319 q 128 -281 189 -300 l 128 -184 q 385 -226 263 -226 q 542 -201 482 -226 q 631 -122 602 -176 q 660 24 660 -67 l 660 86 l 653 86 q 545 16 608 41 q 406 -8 482 -8 q 237 31 311 -8 q 120 153 163 70 q 78 361 78 236 q 185 663 78 560 q 502 765 292 765 q 776 727 647 765 l 776 43 q 734 -165 776 -85 q 607 -282 692 -244 q 390 -319 522 -319 m 438 90 q 559 113 501 90 q 660 183 617 135 l 660 651 q 491 671 585 671 q 270 597 344 671 q 196 372 196 524 q 261 156 196 223 q 438 90 326 90 m 464 917 q 404 935 425 917 q 383 987 383 953 q 404 1039 383 1020 q 464 1057 425 1057 q 524 1039 503 1057 q 544 987 544 1020 q 524 935 544 953 q 464 917 503 917 z "},"ḡ":{"ha":899,"x_min":78,"x_max":776,"o":"m 390 -319 q 258 -310 327 -319 q 128 -281 189 -300 l 128 -184 q 385 -226 263 -226 q 542 -201 482 -226 q 631 -122 602 -176 q 660 24 660 -67 l 660 86 l 653 86 q 545 16 608 41 q 406 -8 482 -8 q 237 31 311 -8 q 120 153 163 70 q 78 361 78 236 q 185 663 78 560 q 502 765 292 765 q 776 727 647 765 l 776 43 q 734 -165 776 -85 q 607 -282 692 -244 q 390 -319 522 -319 m 438 90 q 559 113 501 90 q 660 183 617 135 l 660 651 q 491 671 585 671 q 270 597 344 671 q 196 372 196 524 q 261 156 196 223 q 438 90 326 90 m 227 951 l 227 1026 l 701 1026 l 701 951 l 227 951 z "},"h":{"ha":902,"x_min":122,"x_max":791,"o":"m 122 1122 l 239 1122 l 239 669 l 245 669 q 368 741 299 717 q 514 765 437 765 q 717 695 643 765 q 791 474 791 624 l 791 0 l 674 0 l 674 469 q 625 617 674 572 q 485 663 576 663 q 351 637 416 663 q 239 561 287 611 l 239 0 l 122 0 l 122 1122 z "},"ħ":{"ha":902,"x_min":9,"x_max":791,"o":"m 514 765 q 717 695 643 765 q 791 474 791 624 l 791 0 l 674 0 l 674 469 q 625 617 674 572 q 485 663 576 663 q 351 637 416 663 q 239 561 287 611 l 239 0 l 122 0 l 122 902 l 9 902 l 9 978 l 122 978 l 122 1122 l 239 1122 l 239 978 l 535 978 l 535 902 l 239 902 l 239 669 l 245 669 q 368 741 299 717 q 514 765 437 765 z "},"ḫ":{"ha":902,"x_min":122,"x_max":791,"o":"m 122 1122 l 239 1122 l 239 669 l 245 669 q 368 741 299 717 q 514 765 437 765 q 717 695 643 765 q 791 474 791 624 l 791 0 l 674 0 l 674 469 q 625 617 674 572 q 485 663 576 663 q 351 637 416 663 q 239 561 287 611 l 239 0 l 122 0 l 122 1122 m 458 -292 q 329 -268 383 -292 q 248 -203 276 -244 q 219 -107 221 -161 l 298 -107 q 340 -192 301 -162 q 458 -223 379 -223 q 616 -107 609 -223 l 694 -107 q 666 -203 693 -162 q 586 -269 639 -245 q 458 -292 533 -292 z "},"ĥ":{"ha":902,"x_min":122,"x_max":791,"o":"m 122 1122 l 239 1122 l 239 669 l 245 669 q 368 741 299 717 q 514 765 437 765 q 717 695 643 765 q 791 474 791 624 l 791 0 l 674 0 l 674 469 q 625 617 674 572 q 485 663 576 663 q 351 637 416 663 q 239 561 287 611 l 239 0 l 122 0 l 122 1122 m 716 1183 l 604 1183 l 457 1328 l 310 1183 l 198 1183 l 403 1381 l 510 1381 l 716 1183 z "},"ḥ":{"ha":902,"x_min":122,"x_max":791,"o":"m 122 1122 l 239 1122 l 239 669 l 245 669 q 368 741 299 717 q 514 765 437 765 q 717 695 643 765 q 791 474 791 624 l 791 0 l 674 0 l 674 469 q 625 617 674 572 q 485 663 576 663 q 351 637 416 663 q 239 561 287 611 l 239 0 l 122 0 l 122 1122 m 457 -249 q 403 -231 422 -249 q 384 -182 384 -212 q 403 -132 384 -151 q 457 -114 422 -114 q 511 -132 492 -114 q 530 -182 530 -151 q 511 -231 530 -212 q 457 -249 492 -249 z "},"i":{"ha":361,"x_min":100,"x_max":261,"o":"m 122 0 l 122 753 l 239 753 l 239 0 l 122 0 m 181 917 q 121 935 142 917 q 100 987 100 953 q 121 1039 100 1020 q 181 1057 142 1057 q 240 1039 219 1057 q 261 987 261 1020 q 240 935 261 953 q 181 917 219 917 z "},"ı":{"ha":361,"x_min":122,"x_max":239,"o":"m 122 0 l 122 753 l 239 753 l 239 0 l 122 0 z "},"í":{"ha":361,"x_min":122,"x_max":440,"o":"m 122 0 l 122 753 l 239 753 l 239 0 l 122 0 m 124 870 l 308 1122 l 440 1122 l 238 870 l 124 870 z "},"ĭ":{"ha":361,"x_min":-57,"x_max":418,"o":"m 122 0 l 122 753 l 239 753 l 239 0 l 122 0 m 181 877 q 55 906 108 877 q -25 985 3 934 q -57 1104 -53 1036 l 22 1104 q 66 987 28 1029 q 181 945 105 945 q 340 1104 326 945 l 418 1104 q 352 939 413 1000 q 181 877 291 877 z "},"î":{"ha":361,"x_min":-56,"x_max":417,"o":"m 122 0 l 122 753 l 239 753 l 239 0 l 122 0 m 417 870 l 317 870 l 181 1060 l 44 870 l -56 870 l 130 1122 l 231 1122 l 417 870 z "},"ȉ":{"ha":361,"x_min":-124,"x_max":355,"o":"m 122 0 l 122 753 l 239 753 l 239 0 l 122 0 m 6 870 l -124 1122 l -25 1122 l 98 870 l 6 870 m 263 870 l 133 1122 l 232 1122 l 355 870 l 263 870 z "},"ï":{"ha":361,"x_min":-67,"x_max":428,"o":"m 122 0 l 122 753 l 239 753 l 239 0 l 122 0 m 6 918 q -48 936 -29 918 q -67 987 -67 955 q -48 1038 -67 1019 q 6 1056 -29 1056 q 60 1038 40 1056 q 79 987 79 1019 q 60 936 79 955 q 6 918 41 918 m 356 918 q 301 936 320 918 q 282 987 282 955 q 301 1038 282 1019 q 356 1056 321 1056 q 409 1038 390 1056 q 428 987 428 1019 q 409 936 428 955 q 356 918 390 918 z "},"ḯ":{"ha":361,"x_min":-67,"x_max":428,"o":"m 122 0 l 122 753 l 239 753 l 239 0 l 122 0 m 6 918 q -48 936 -29 918 q -67 987 -67 955 q -48 1038 -67 1019 q 6 1056 -29 1056 q 60 1038 40 1056 q 79 987 79 1019 q 60 936 79 955 q 6 918 41 918 m 356 918 q 301 936 320 918 q 282 987 282 955 q 301 1038 282 1019 q 356 1056 321 1056 q 409 1038 390 1056 q 428 987 428 1019 q 409 936 428 955 q 356 918 390 918 m 124 1152 l 276 1349 l 406 1349 l 235 1152 l 124 1152 z "},"ị":{"ha":361,"x_min":100,"x_max":261,"o":"m 122 0 l 122 753 l 239 753 l 239 0 l 122 0 m 181 917 q 121 935 142 917 q 100 987 100 953 q 121 1039 100 1020 q 181 1057 142 1057 q 240 1039 219 1057 q 261 987 261 1020 q 240 935 261 953 q 181 917 219 917 m 181 -249 q 127 -231 146 -249 q 108 -182 108 -212 q 127 -132 108 -151 q 181 -114 146 -114 q 234 -132 215 -114 q 253 -182 253 -151 q 234 -231 253 -212 q 181 -249 215 -249 z "},"ì":{"ha":361,"x_min":-79,"x_max":239,"o":"m 122 0 l 122 753 l 239 753 l 239 0 l 122 0 m 124 870 l -79 1122 l 53 1122 l 238 870 l 124 870 z "},"ỉ":{"ha":361,"x_min":56,"x_max":337,"o":"m 122 0 l 122 753 l 239 753 l 239 0 l 122 0 m 146 870 q 158 916 147 897 q 183 947 169 935 q 220 973 198 959 q 256 1000 244 989 q 267 1028 267 1011 q 245 1063 267 1052 q 176 1074 223 1074 q 115 1070 147 1074 q 56 1058 83 1066 l 56 1113 q 113 1126 79 1122 q 178 1131 147 1131 q 337 1033 337 1131 q 321 982 337 1000 q 274 944 306 964 q 232 911 246 926 q 216 870 218 896 l 146 870 z "},"ȋ":{"ha":361,"x_min":-57,"x_max":418,"o":"m 122 0 l 122 753 l 239 753 l 239 0 l 122 0 m -57 890 q 9 1056 -51 994 q 180 1117 69 1117 q 306 1088 253 1117 q 386 1009 358 1060 q 418 890 415 958 l 340 890 q 294 1006 333 964 q 180 1047 256 1047 q 66 1006 104 1047 q 22 890 28 964 l -57 890 z "},"ī":{"ha":361,"x_min":-56,"x_max":417,"o":"m 122 0 l 122 753 l 239 753 l 239 0 l 122 0 m -56 951 l -56 1026 l 417 1026 l 417 951 l -56 951 z "},"į":{"ha":361,"x_min":24,"x_max":303,"o":"m 181 917 q 121 935 142 917 q 100 987 100 953 q 121 1039 100 1020 q 181 1057 142 1057 q 240 1039 219 1057 q 261 987 261 1020 q 240 935 261 953 q 181 917 219 917 m 194 -232 q 303 -204 248 -232 l 303 -261 q 183 -288 246 -288 q 66 -254 108 -288 q 24 -160 24 -219 q 50 -73 24 -113 q 129 0 75 -33 l 122 0 l 122 753 l 239 753 l 239 0 q 131 -72 163 -36 q 99 -153 99 -108 q 124 -211 99 -190 q 194 -232 149 -232 z "},"ĩ":{"ha":361,"x_min":-56,"x_max":417,"o":"m 122 0 l 122 753 l 239 753 l 239 0 l 122 0 m 290 934 q 234 942 260 934 q 169 964 208 949 q 115 984 138 977 q 69 990 92 990 q 2 978 33 990 q -56 938 -28 965 l -56 1019 q 72 1065 -9 1065 q 127 1058 101 1065 q 192 1035 153 1050 q 247 1016 224 1022 q 292 1009 269 1009 q 359 1022 328 1009 q 417 1061 389 1034 l 417 980 q 290 934 371 934 z "},"j":{"ha":361,"x_min":-14,"x_max":259,"o":"m -14 -270 q 90 -91 58 -184 q 122 118 122 1 l 122 753 l 239 753 l 239 123 q 197 -113 239 -8 q 62 -322 155 -219 l -14 -270 m 178 924 q 119 942 140 924 q 98 993 98 960 q 119 1045 98 1026 q 178 1063 140 1063 q 238 1045 217 1063 q 259 993 259 1026 q 238 942 259 960 q 178 924 217 924 z "},"ȷ":{"ha":361,"x_min":-14,"x_max":239,"o":"m -14 -270 q 90 -91 58 -184 q 122 118 122 1 l 122 753 l 239 753 l 239 123 q 197 -113 239 -8 q 62 -322 155 -219 l -14 -270 z "},"ĵ":{"ha":361,"x_min":-58,"x_max":415,"o":"m -14 -270 q 90 -91 58 -184 q 122 118 122 1 l 122 753 l 239 753 l 239 123 q 197 -113 239 -8 q 62 -322 155 -219 l -14 -270 m 415 876 l 315 876 l 178 1067 l 42 876 l -58 876 l 128 1128 l 229 1128 l 415 876 z "},"k":{"ha":817,"x_min":122,"x_max":827,"o":"m 694 0 l 398 337 l 239 337 l 239 0 l 122 0 l 122 1122 l 239 1122 l 239 435 l 397 435 l 672 753 l 803 753 l 492 388 l 827 0 l 694 0 z "},"ķ":{"ha":817,"x_min":122,"x_max":827,"o":"m 694 0 l 398 337 l 239 337 l 239 0 l 122 0 l 122 1122 l 239 1122 l 239 435 l 397 435 l 672 753 l 803 753 l 492 388 l 827 0 l 694 0 m 428 -114 q 506 -190 506 -114 q 495 -256 506 -220 q 466 -324 485 -292 l 394 -324 q 423 -226 417 -272 q 372 -210 389 -225 q 354 -169 354 -195 q 373 -129 354 -144 q 428 -114 392 -114 z "},"ĸ":{"ha":817,"x_min":122,"x_max":827,"o":"m 694 0 l 398 337 l 239 337 l 239 0 l 122 0 l 122 753 l 239 753 l 239 435 l 397 435 l 672 753 l 803 753 l 492 388 l 827 0 l 694 0 z "},"l":{"ha":361,"x_min":122,"x_max":239,"o":"m 122 0 l 122 1122 l 239 1122 l 239 0 l 122 0 z "},"ĺ":{"ha":361,"x_min":122,"x_max":406,"o":"m 122 0 l 122 1122 l 239 1122 l 239 0 l 122 0 m 124 1183 l 276 1381 l 406 1381 l 235 1183 l 124 1183 z "},"ľ":{"ha":361,"x_min":122,"x_max":414,"o":"m 122 0 l 122 1122 l 239 1122 l 239 0 l 122 0 m 313 819 q 329 1122 329 940 l 414 1122 q 405 966 414 1045 q 379 819 397 886 l 313 819 z "},"ļ":{"ha":361,"x_min":104,"x_max":256,"o":"m 122 0 l 122 1122 l 239 1122 l 239 0 l 122 0 m 178 -114 q 256 -190 256 -114 q 245 -256 256 -220 q 216 -324 235 -292 l 144 -324 q 173 -226 167 -272 q 122 -210 139 -225 q 104 -169 104 -195 q 123 -129 104 -144 q 178 -114 142 -114 z "},"ŀ":{"ha":440,"x_min":122,"x_max":472,"o":"m 122 0 l 122 1122 l 239 1122 l 239 0 l 122 0 m 392 481 q 332 499 353 481 q 311 551 311 517 q 332 602 311 584 q 392 621 353 621 q 451 602 431 621 q 472 551 472 584 q 451 499 472 517 q 392 481 431 481 z "},"ḷ":{"ha":361,"x_min":107,"x_max":253,"o":"m 122 0 l 122 1122 l 239 1122 l 239 0 l 122 0 m 180 -249 q 126 -231 145 -249 q 107 -182 107 -212 q 126 -132 107 -151 q 180 -114 145 -114 q 234 -132 215 -114 q 253 -182 253 -151 q 234 -231 253 -212 q 180 -249 215 -249 z "},"ǉ":{"ha":722,"x_min":122,"x_max":620,"o":"m 122 0 l 122 1122 l 239 1122 l 239 0 l 122 0 m 347 -270 q 451 -91 419 -184 q 483 118 483 1 l 483 753 l 600 753 l 600 123 q 558 -113 600 -8 q 423 -322 516 -219 l 347 -270 m 540 924 q 480 942 501 924 q 459 993 459 960 q 480 1045 459 1026 q 540 1063 501 1063 q 599 1045 578 1063 q 620 993 620 1026 q 599 942 620 960 q 540 924 578 924 z "},"ḻ":{"ha":361,"x_min":-38,"x_max":398,"o":"m 122 0 l 122 1122 l 239 1122 l 239 0 l 122 0 m -38 -219 l -38 -144 l 398 -144 l 398 -219 l -38 -219 z "},"ł":{"ha":375,"x_min":2,"x_max":375,"o":"m 375 572 l 246 487 l 246 0 l 129 0 l 129 410 l 42 352 l 2 419 l 129 503 l 129 1122 l 246 1122 l 246 581 l 335 640 l 375 572 z "},"m":{"ha":1315,"x_min":122,"x_max":1203,"o":"m 947 765 q 1135 695 1067 765 q 1203 474 1203 624 l 1203 0 l 1087 0 l 1087 469 q 1044 618 1087 572 q 922 663 1001 663 q 811 640 865 663 q 716 566 756 616 q 724 475 724 524 l 724 0 l 608 0 l 608 469 q 567 618 608 572 q 449 663 526 663 q 335 637 390 663 q 239 559 280 611 l 239 0 l 122 0 l 122 753 l 219 753 l 228 667 l 235 667 q 344 740 282 715 q 477 765 407 765 q 602 738 549 765 q 686 655 655 711 q 811 739 744 713 q 947 765 879 765 z "},"ṃ":{"ha":1315,"x_min":122,"x_max":1203,"o":"m 947 765 q 1135 695 1067 765 q 1203 474 1203 624 l 1203 0 l 1087 0 l 1087 469 q 1044 618 1087 572 q 922 663 1001 663 q 811 640 865 663 q 716 566 756 616 q 724 475 724 524 l 724 0 l 608 0 l 608 469 q 567 618 608 572 q 449 663 526 663 q 335 637 390 663 q 239 559 280 611 l 239 0 l 122 0 l 122 753 l 219 753 l 228 667 l 235 667 q 344 740 282 715 q 477 765 407 765 q 602 738 549 765 q 686 655 655 711 q 811 739 744 713 q 947 765 879 765 m 666 -249 q 612 -231 631 -249 q 593 -182 593 -212 q 612 -132 593 -151 q 666 -114 631 -114 q 720 -132 701 -114 q 739 -182 739 -151 q 720 -231 739 -212 q 666 -249 701 -249 z "},"n":{"ha":902,"x_min":122,"x_max":791,"o":"m 122 753 l 219 753 l 228 667 l 235 667 q 361 740 290 715 q 509 765 432 765 q 716 694 642 765 q 791 470 791 622 l 791 0 l 674 0 l 674 467 q 626 617 674 571 q 485 663 578 663 q 353 638 419 663 q 239 562 287 613 l 239 0 l 122 0 l 122 753 z "},"ń":{"ha":902,"x_min":122,"x_max":791,"o":"m 122 753 l 219 753 l 228 667 l 235 667 q 361 740 290 715 q 509 765 432 765 q 716 694 642 765 q 791 470 791 622 l 791 0 l 674 0 l 674 467 q 626 617 674 571 q 485 663 578 663 q 353 638 419 663 q 239 562 287 613 l 239 0 l 122 0 l 122 753 m 400 870 l 584 1122 l 717 1122 l 514 870 l 400 870 z "},"ŉ":{"ha":902,"x_min":10,"x_max":791,"o":"m 122 753 l 219 753 l 228 667 l 235 667 q 361 740 290 715 q 509 765 432 765 q 716 694 642 765 q 791 470 791 622 l 791 0 l 674 0 l 674 467 q 626 617 674 571 q 485 663 578 663 q 353 638 419 663 q 239 562 287 613 l 239 0 l 122 0 l 122 753 m 84 1128 q 142 1109 122 1128 q 162 1053 162 1090 q 151 986 162 1022 q 122 919 141 950 l 50 919 q 79 1016 74 970 q 28 1032 45 1017 q 10 1072 10 1047 q 30 1114 10 1099 q 84 1128 49 1128 z "},"ň":{"ha":902,"x_min":122,"x_max":791,"o":"m 122 753 l 219 753 l 228 667 l 235 667 q 361 740 290 715 q 509 765 432 765 q 716 694 642 765 q 791 470 791 622 l 791 0 l 674 0 l 674 467 q 626 617 674 571 q 485 663 578 663 q 353 638 419 663 q 239 562 287 613 l 239 0 l 122 0 l 122 753 m 598 1122 l 697 1122 l 508 870 l 406 870 l 217 1122 l 316 1122 l 457 931 l 598 1122 z "},"ņ":{"ha":902,"x_min":122,"x_max":791,"o":"m 122 753 l 219 753 l 228 667 l 235 667 q 361 740 290 715 q 509 765 432 765 q 716 694 642 765 q 791 470 791 622 l 791 0 l 674 0 l 674 467 q 626 617 674 571 q 485 663 578 663 q 353 638 419 663 q 239 562 287 613 l 239 0 l 122 0 l 122 753 m 455 -114 q 533 -190 533 -114 q 522 -256 533 -220 q 493 -324 512 -292 l 421 -324 q 450 -226 444 -272 q 399 -210 416 -225 q 381 -169 381 -195 q 400 -129 381 -144 q 455 -114 419 -114 z "},"ṅ":{"ha":902,"x_min":122,"x_max":791,"o":"m 122 753 l 219 753 l 228 667 l 235 667 q 361 740 290 715 q 509 765 432 765 q 716 694 642 765 q 791 470 791 622 l 791 0 l 674 0 l 674 467 q 626 617 674 571 q 485 663 578 663 q 353 638 419 663 q 239 562 287 613 l 239 0 l 122 0 l 122 753 m 457 917 q 397 935 418 917 q 376 987 376 953 q 397 1039 376 1020 q 457 1057 418 1057 q 517 1039 496 1057 q 538 987 538 1020 q 517 935 538 953 q 457 917 496 917 z "},"ṇ":{"ha":902,"x_min":122,"x_max":791,"o":"m 122 753 l 219 753 l 228 667 l 235 667 q 361 740 290 715 q 509 765 432 765 q 716 694 642 765 q 791 470 791 622 l 791 0 l 674 0 l 674 467 q 626 617 674 571 q 485 663 578 663 q 353 638 419 663 q 239 562 287 613 l 239 0 l 122 0 l 122 753 m 457 -249 q 403 -231 422 -249 q 384 -182 384 -212 q 403 -132 384 -151 q 457 -114 422 -114 q 511 -132 492 -114 q 530 -182 530 -151 q 511 -231 530 -212 q 457 -249 492 -249 z "},"ŋ":{"ha":902,"x_min":122,"x_max":791,"o":"m 538 -270 q 642 -91 610 -184 q 674 118 674 1 l 674 469 q 625 618 674 572 q 485 663 576 663 q 352 638 417 663 q 239 561 287 612 l 239 0 l 122 0 l 122 753 l 219 753 l 228 667 l 235 667 q 359 740 289 715 q 510 765 430 765 q 716 695 642 765 q 791 474 791 624 l 791 102 q 745 -123 785 -24 q 614 -322 705 -222 l 538 -270 z "},"ǌ":{"ha":1263,"x_min":122,"x_max":1161,"o":"m 122 753 l 219 753 l 228 667 l 235 667 q 361 740 290 715 q 509 765 432 765 q 716 694 642 765 q 791 470 791 622 l 791 0 l 674 0 l 674 467 q 626 617 674 571 q 485 663 578 663 q 353 638 419 663 q 239 562 287 613 l 239 0 l 122 0 l 122 753 m 888 -270 q 992 -91 960 -184 q 1024 118 1024 1 l 1024 753 l 1141 753 l 1141 123 q 1099 -113 1141 -8 q 964 -322 1057 -219 l 888 -270 m 1081 924 q 1021 942 1042 924 q 1000 993 1000 960 q 1021 1045 1000 1026 q 1081 1063 1042 1063 q 1140 1045 1119 1063 q 1161 993 1161 1026 q 1140 942 1161 960 q 1081 924 1119 924 z "},"ṉ":{"ha":902,"x_min":122,"x_max":791,"o":"m 122 753 l 219 753 l 228 667 l 235 667 q 361 740 290 715 q 509 765 432 765 q 716 694 642 765 q 791 470 791 622 l 791 0 l 674 0 l 674 467 q 626 617 674 571 q 485 663 578 663 q 353 638 419 663 q 239 562 287 613 l 239 0 l 122 0 l 122 753 m 239 -219 l 239 -144 l 675 -144 l 675 -219 l 239 -219 z "},"ñ":{"ha":902,"x_min":122,"x_max":791,"o":"m 122 753 l 219 753 l 228 667 l 235 667 q 361 740 290 715 q 509 765 432 765 q 716 694 642 765 q 791 470 791 622 l 791 0 l 674 0 l 674 467 q 626 617 674 571 q 485 663 578 663 q 353 638 419 663 q 239 562 287 613 l 239 0 l 122 0 l 122 753 m 566 934 q 510 942 537 934 q 446 964 484 949 q 391 984 414 977 q 346 990 368 990 q 279 978 309 990 q 220 938 249 965 l 220 1019 q 348 1065 267 1065 q 403 1058 377 1065 q 468 1035 430 1050 q 523 1016 500 1022 q 568 1009 546 1009 q 635 1022 605 1009 q 694 1061 665 1034 l 694 980 q 566 934 647 934 z "},"o":{"ha":882,"x_min":78,"x_max":803,"o":"m 441 -13 q 249 29 330 -13 q 123 159 167 72 q 78 377 78 247 q 122 592 78 506 q 248 722 167 679 q 441 765 329 765 q 708 668 613 765 q 803 377 803 572 q 759 161 803 249 q 632 30 714 74 q 441 -13 551 -13 m 441 82 q 686 376 686 82 q 623 600 686 530 q 441 669 559 669 q 259 600 323 669 q 196 378 196 531 q 441 82 196 82 z "},"ó":{"ha":882,"x_min":78,"x_max":803,"o":"m 441 -13 q 249 29 330 -13 q 123 159 167 72 q 78 377 78 247 q 122 592 78 506 q 248 722 167 679 q 441 765 329 765 q 708 668 613 765 q 803 377 803 572 q 759 161 803 249 q 632 30 714 74 q 441 -13 551 -13 m 441 82 q 686 376 686 82 q 623 600 686 530 q 441 669 559 669 q 259 600 323 669 q 196 378 196 531 q 441 82 196 82 m 384 870 l 568 1122 l 701 1122 l 498 870 l 384 870 z "},"ŏ":{"ha":882,"x_min":78,"x_max":803,"o":"m 441 -13 q 249 29 330 -13 q 123 159 167 72 q 78 377 78 247 q 122 592 78 506 q 248 722 167 679 q 441 765 329 765 q 708 668 613 765 q 803 377 803 572 q 759 161 803 249 q 632 30 714 74 q 441 -13 551 -13 m 441 82 q 686 376 686 82 q 623 600 686 530 q 441 669 559 669 q 259 600 323 669 q 196 378 196 531 q 441 82 196 82 m 442 877 q 316 906 368 877 q 235 985 263 934 q 203 1104 207 1036 l 282 1104 q 327 987 288 1029 q 442 945 365 945 q 600 1104 587 945 l 678 1104 q 612 939 673 1000 q 442 877 551 877 z "},"ô":{"ha":882,"x_min":78,"x_max":803,"o":"m 441 -13 q 249 29 330 -13 q 123 159 167 72 q 78 377 78 247 q 122 592 78 506 q 248 722 167 679 q 441 765 329 765 q 708 668 613 765 q 803 377 803 572 q 759 161 803 249 q 632 30 714 74 q 441 -13 551 -13 m 441 82 q 686 376 686 82 q 623 600 686 530 q 441 669 559 669 q 259 600 323 669 q 196 378 196 531 q 441 82 196 82 m 677 870 l 578 870 l 441 1060 l 304 870 l 205 870 l 390 1122 l 492 1122 l 677 870 z "},"ố":{"ha":882,"x_min":78,"x_max":865,"o":"m 441 -13 q 249 29 330 -13 q 123 159 167 72 q 78 377 78 247 q 122 592 78 506 q 248 722 167 679 q 441 765 329 765 q 708 668 613 765 q 803 377 803 572 q 759 161 803 249 q 632 30 714 74 q 441 -13 551 -13 m 441 82 q 686 376 686 82 q 623 600 686 530 q 441 669 559 669 q 259 600 323 669 q 196 378 196 531 q 441 82 196 82 m 752 1297 l 865 1297 l 694 1109 l 601 1109 l 752 1297 m 390 1122 l 492 1122 l 677 870 l 578 870 l 441 1060 l 304 870 l 205 870 l 390 1122 z "},"ộ":{"ha":882,"x_min":78,"x_max":803,"o":"m 441 -13 q 249 29 330 -13 q 123 159 167 72 q 78 377 78 247 q 122 592 78 506 q 248 722 167 679 q 441 765 329 765 q 708 668 613 765 q 803 377 803 572 q 759 161 803 249 q 632 30 714 74 q 441 -13 551 -13 m 441 82 q 686 376 686 82 q 623 600 686 530 q 441 669 559 669 q 259 600 323 669 q 196 378 196 531 q 441 82 196 82 m 441 -249 q 387 -231 406 -249 q 368 -182 368 -212 q 387 -132 368 -151 q 441 -114 406 -114 q 495 -132 476 -114 q 514 -182 514 -151 q 495 -231 514 -212 q 441 -249 476 -249 m 677 870 l 578 870 l 441 1060 l 304 870 l 205 870 l 390 1122 l 492 1122 l 677 870 z "},"ồ":{"ha":882,"x_min":78,"x_max":803,"o":"m 441 -13 q 249 29 330 -13 q 123 159 167 72 q 78 377 78 247 q 122 592 78 506 q 248 722 167 679 q 441 765 329 765 q 708 668 613 765 q 803 377 803 572 q 759 161 803 249 q 632 30 714 74 q 441 -13 551 -13 m 441 82 q 686 376 686 82 q 623 600 686 530 q 441 669 559 669 q 259 600 323 669 q 196 378 196 531 q 441 82 196 82 m 715 1109 l 622 1109 l 451 1297 l 564 1297 l 715 1109 m 390 1122 l 492 1122 l 677 870 l 578 870 l 441 1060 l 304 870 l 205 870 l 390 1122 z "},"ổ":{"ha":882,"x_min":78,"x_max":803,"o":"m 441 -13 q 249 29 330 -13 q 123 159 167 72 q 78 377 78 247 q 122 592 78 506 q 248 722 167 679 q 441 765 329 765 q 708 668 613 765 q 803 377 803 572 q 759 161 803 249 q 632 30 714 74 q 441 -13 551 -13 m 441 82 q 686 376 686 82 q 623 600 686 530 q 441 669 559 669 q 259 600 323 669 q 196 378 196 531 q 441 82 196 82 m 649 1302 q 758 1282 723 1302 q 793 1224 793 1261 q 777 1185 793 1198 q 728 1158 761 1172 q 688 1136 702 1147 q 672 1109 674 1126 l 606 1109 q 617 1143 606 1129 q 642 1164 628 1156 q 680 1182 656 1172 q 715 1199 703 1191 q 726 1219 726 1206 q 708 1243 726 1235 q 643 1251 689 1251 q 570 1247 603 1251 q 500 1230 538 1242 l 500 1280 q 649 1302 565 1302 m 390 1122 l 492 1122 l 677 870 l 578 870 l 441 1060 l 304 870 l 205 870 l 390 1122 z "},"ỗ":{"ha":882,"x_min":78,"x_max":803,"o":"m 441 -13 q 249 29 330 -13 q 123 159 167 72 q 78 377 78 247 q 122 592 78 506 q 248 722 167 679 q 441 765 329 765 q 708 668 613 765 q 803 377 803 572 q 759 161 803 249 q 632 30 714 74 q 441 -13 551 -13 m 441 82 q 686 376 686 82 q 623 600 686 530 q 441 669 559 669 q 259 600 323 669 q 196 378 196 531 q 441 82 196 82 m 553 1150 q 495 1157 523 1150 q 430 1176 467 1164 q 373 1193 397 1188 q 326 1199 350 1199 q 259 1188 289 1199 q 199 1153 228 1177 l 199 1224 q 328 1266 247 1266 q 387 1259 359 1266 q 452 1240 415 1252 q 509 1223 485 1228 q 556 1217 532 1217 q 624 1227 594 1217 q 683 1263 654 1238 l 683 1192 q 553 1150 635 1150 m 688 870 l 583 870 l 441 1053 l 299 870 l 194 870 l 388 1108 l 494 1108 l 688 870 z "},"ȍ":{"ha":882,"x_min":78,"x_max":803,"o":"m 441 -13 q 249 29 330 -13 q 123 159 167 72 q 78 377 78 247 q 122 592 78 506 q 248 722 167 679 q 441 765 329 765 q 708 668 613 765 q 803 377 803 572 q 759 161 803 249 q 632 30 714 74 q 441 -13 551 -13 m 441 82 q 686 376 686 82 q 623 600 686 530 q 441 669 559 669 q 259 600 323 669 q 196 378 196 531 q 441 82 196 82 m 267 870 l 136 1122 l 235 1122 l 358 870 l 267 870 m 524 870 l 393 1122 l 492 1122 l 615 870 l 524 870 z "},"ö":{"ha":882,"x_min":78,"x_max":803,"o":"m 441 -13 q 249 29 330 -13 q 123 159 167 72 q 78 377 78 247 q 122 592 78 506 q 248 722 167 679 q 441 765 329 765 q 708 668 613 765 q 803 377 803 572 q 759 161 803 249 q 632 30 714 74 q 441 -13 551 -13 m 441 82 q 686 376 686 82 q 623 600 686 530 q 441 669 559 669 q 259 600 323 669 q 196 378 196 531 q 441 82 196 82 m 266 918 q 212 936 231 918 q 193 987 193 955 q 212 1038 193 1019 q 266 1056 231 1056 q 320 1038 301 1056 q 340 987 340 1019 q 320 936 340 955 q 266 918 301 918 m 616 918 q 561 936 581 918 q 542 987 542 955 q 562 1038 542 1019 q 616 1056 581 1056 q 670 1038 651 1056 q 689 987 689 1019 q 670 936 689 955 q 616 918 651 918 z "},"ȫ":{"ha":882,"x_min":78,"x_max":803,"o":"m 441 -13 q 249 29 330 -13 q 123 159 167 72 q 78 377 78 247 q 122 592 78 506 q 248 722 167 679 q 441 765 329 765 q 708 668 613 765 q 803 377 803 572 q 759 161 803 249 q 632 30 714 74 q 441 -13 551 -13 m 441 82 q 686 376 686 82 q 623 600 686 530 q 441 669 559 669 q 259 600 323 669 q 196 378 196 531 q 441 82 196 82 m 266 918 q 212 936 231 918 q 193 987 193 955 q 212 1038 193 1019 q 266 1056 231 1056 q 320 1038 301 1056 q 340 987 340 1019 q 320 936 340 955 q 266 918 301 918 m 616 918 q 561 936 581 918 q 542 987 542 955 q 562 1038 542 1019 q 616 1056 581 1056 q 670 1038 651 1056 q 689 987 689 1019 q 670 936 689 955 q 616 918 651 918 m 204 1208 l 204 1283 l 678 1283 l 678 1208 l 204 1208 z "},"ȱ":{"ha":882,"x_min":78,"x_max":803,"o":"m 441 -13 q 249 29 330 -13 q 123 159 167 72 q 78 377 78 247 q 122 592 78 506 q 248 722 167 679 q 441 765 329 765 q 708 668 613 765 q 803 377 803 572 q 759 161 803 249 q 632 30 714 74 q 441 -13 551 -13 m 441 82 q 686 376 686 82 q 623 600 686 530 q 441 669 559 669 q 259 600 323 669 q 196 378 196 531 q 441 82 196 82 m 441 917 q 381 935 402 917 q 360 987 360 953 q 381 1039 360 1020 q 441 1057 402 1057 q 501 1039 480 1057 q 522 987 522 1020 q 501 935 522 953 q 441 917 480 917 m 204 1161 l 204 1236 l 678 1236 l 678 1161 l 204 1161 z "},"ọ":{"ha":882,"x_min":78,"x_max":803,"o":"m 441 -13 q 249 29 330 -13 q 123 159 167 72 q 78 377 78 247 q 122 592 78 506 q 248 722 167 679 q 441 765 329 765 q 708 668 613 765 q 803 377 803 572 q 759 161 803 249 q 632 30 714 74 q 441 -13 551 -13 m 441 82 q 686 376 686 82 q 623 600 686 530 q 441 669 559 669 q 259 600 323 669 q 196 378 196 531 q 441 82 196 82 m 441 -249 q 387 -231 406 -249 q 368 -182 368 -212 q 387 -132 368 -151 q 441 -114 406 -114 q 495 -132 476 -114 q 514 -182 514 -151 q 495 -231 514 -212 q 441 -249 476 -249 z "},"ò":{"ha":882,"x_min":78,"x_max":803,"o":"m 441 -13 q 249 29 330 -13 q 123 159 167 72 q 78 377 78 247 q 122 592 78 506 q 248 722 167 679 q 441 765 329 765 q 708 668 613 765 q 803 377 803 572 q 759 161 803 249 q 632 30 714 74 q 441 -13 551 -13 m 441 82 q 686 376 686 82 q 623 600 686 530 q 441 669 559 669 q 259 600 323 669 q 196 378 196 531 q 441 82 196 82 m 384 870 l 181 1122 l 314 1122 l 498 870 l 384 870 z "},"ỏ":{"ha":882,"x_min":78,"x_max":803,"o":"m 441 -13 q 249 29 330 -13 q 123 159 167 72 q 78 377 78 247 q 122 592 78 506 q 248 722 167 679 q 441 765 329 765 q 708 668 613 765 q 803 377 803 572 q 759 161 803 249 q 632 30 714 74 q 441 -13 551 -13 m 441 82 q 686 376 686 82 q 623 600 686 530 q 441 669 559 669 q 259 600 323 669 q 196 378 196 531 q 441 82 196 82 m 406 870 q 418 916 408 897 q 444 947 429 935 q 481 973 458 959 q 516 1000 505 989 q 528 1028 528 1011 q 506 1063 528 1052 q 436 1074 483 1074 q 376 1070 408 1074 q 316 1058 344 1066 l 316 1113 q 373 1126 340 1122 q 439 1131 407 1131 q 597 1033 597 1131 q 582 982 597 1000 q 535 944 566 964 q 492 911 506 926 q 476 870 478 896 l 406 870 z "},"ơ":{"ha":882,"x_min":78,"x_max":825,"o":"m 680 693 q 803 377 803 597 q 759 161 803 249 q 632 30 714 74 q 441 -13 551 -13 q 249 29 330 -13 q 123 159 167 72 q 78 377 78 247 q 122 593 78 506 q 249 723 167 680 q 444 765 331 765 q 538 760 474 765 q 593 757 571 757 q 704 785 667 757 q 742 872 742 813 q 738 918 742 896 q 726 969 734 941 l 808 969 q 821 919 817 942 q 825 868 825 897 q 788 752 825 797 q 680 693 750 707 m 441 82 q 686 376 686 82 q 623 600 686 530 q 441 669 559 669 q 259 600 323 669 q 196 378 196 531 q 441 82 196 82 z "},"ớ":{"ha":882,"x_min":78,"x_max":825,"o":"m 680 693 q 803 377 803 597 q 759 161 803 249 q 632 30 714 74 q 441 -13 551 -13 q 249 29 330 -13 q 123 159 167 72 q 78 377 78 247 q 122 593 78 506 q 249 723 167 680 q 444 765 331 765 q 538 760 474 765 q 593 757 571 757 q 704 785 667 757 q 742 872 742 813 q 738 918 742 896 q 726 969 734 941 l 808 969 q 821 919 817 942 q 825 868 825 897 q 788 752 825 797 q 680 693 750 707 m 441 82 q 686 376 686 82 q 623 600 686 530 q 441 669 559 669 q 259 600 323 669 q 196 378 196 531 q 441 82 196 82 m 381 870 l 565 1122 l 697 1122 l 494 870 l 381 870 z "},"ợ":{"ha":882,"x_min":78,"x_max":825,"o":"m 680 693 q 803 377 803 597 q 759 161 803 249 q 632 30 714 74 q 441 -13 551 -13 q 249 29 330 -13 q 123 159 167 72 q 78 377 78 247 q 122 593 78 506 q 249 723 167 680 q 444 765 331 765 q 538 760 474 765 q 593 757 571 757 q 704 785 667 757 q 742 872 742 813 q 738 918 742 896 q 726 969 734 941 l 808 969 q 821 919 817 942 q 825 868 825 897 q 788 752 825 797 q 680 693 750 707 m 441 82 q 686 376 686 82 q 623 600 686 530 q 441 669 559 669 q 259 600 323 669 q 196 378 196 531 q 441 82 196 82 m 438 -249 q 384 -231 403 -249 q 365 -182 365 -212 q 384 -132 365 -151 q 438 -114 403 -114 q 491 -132 472 -114 q 510 -182 510 -151 q 491 -231 510 -212 q 438 -249 472 -249 z "},"ờ":{"ha":882,"x_min":78,"x_max":825,"o":"m 680 693 q 803 377 803 597 q 759 161 803 249 q 632 30 714 74 q 441 -13 551 -13 q 249 29 330 -13 q 123 159 167 72 q 78 377 78 247 q 122 593 78 506 q 249 723 167 680 q 444 765 331 765 q 538 760 474 765 q 593 757 571 757 q 704 785 667 757 q 742 872 742 813 q 738 918 742 896 q 726 969 734 941 l 808 969 q 821 919 817 942 q 825 868 825 897 q 788 752 825 797 q 680 693 750 707 m 441 82 q 686 376 686 82 q 623 600 686 530 q 441 669 559 669 q 259 600 323 669 q 196 378 196 531 q 441 82 196 82 m 381 870 l 178 1122 l 310 1122 l 494 870 l 381 870 z "},"ở":{"ha":882,"x_min":78,"x_max":825,"o":"m 680 693 q 803 377 803 597 q 759 161 803 249 q 632 30 714 74 q 441 -13 551 -13 q 249 29 330 -13 q 123 159 167 72 q 78 377 78 247 q 122 593 78 506 q 249 723 167 680 q 444 765 331 765 q 538 760 474 765 q 593 757 571 757 q 704 785 667 757 q 742 872 742 813 q 738 918 742 896 q 726 969 734 941 l 808 969 q 821 919 817 942 q 825 868 825 897 q 788 752 825 797 q 680 693 750 707 m 441 82 q 686 376 686 82 q 623 600 686 530 q 441 669 559 669 q 259 600 323 669 q 196 378 196 531 q 441 82 196 82 m 403 870 q 415 916 404 897 q 440 947 426 935 q 477 973 455 959 q 513 1000 501 989 q 524 1028 524 1011 q 502 1063 524 1052 q 433 1074 480 1074 q 372 1070 404 1074 q 313 1058 340 1066 l 313 1113 q 370 1126 336 1122 q 435 1131 403 1131 q 594 1033 594 1131 q 578 982 594 1000 q 531 944 563 964 q 489 911 503 926 q 473 870 475 896 l 403 870 z "},"ỡ":{"ha":882,"x_min":78,"x_max":825,"o":"m 545 934 q 490 942 517 934 q 426 964 463 949 q 373 984 395 977 q 328 990 351 990 q 263 978 292 990 q 204 938 233 965 l 204 1019 q 330 1065 251 1065 q 385 1058 358 1065 q 449 1035 412 1050 q 502 1016 479 1022 q 547 1009 525 1009 q 613 1022 583 1009 q 672 1061 643 1034 l 672 980 q 545 934 624 934 m 680 693 q 803 377 803 597 q 759 161 803 249 q 632 30 714 74 q 441 -13 551 -13 q 249 29 330 -13 q 123 159 167 72 q 78 377 78 247 q 122 593 78 506 q 249 723 167 680 q 444 765 331 765 q 538 760 474 765 q 593 757 571 757 q 704 785 667 757 q 742 872 742 813 q 738 918 742 896 q 726 969 734 941 l 808 969 q 821 919 817 942 q 825 868 825 897 q 788 752 825 797 q 680 693 750 707 m 441 82 q 686 376 686 82 q 623 600 686 530 q 441 669 559 669 q 259 600 323 669 q 196 378 196 531 q 441 82 196 82 z "},"ő":{"ha":882,"x_min":78,"x_max":803,"o":"m 441 -13 q 249 29 330 -13 q 123 159 167 72 q 78 377 78 247 q 122 592 78 506 q 248 722 167 679 q 441 765 329 765 q 708 668 613 765 q 803 377 803 572 q 759 161 803 249 q 632 30 714 74 q 441 -13 551 -13 m 441 82 q 686 376 686 82 q 623 600 686 530 q 441 669 559 669 q 259 600 323 669 q 196 378 196 531 q 441 82 196 82 m 268 870 l 392 1122 l 489 1122 l 358 870 l 268 870 m 524 870 l 647 1122 l 744 1122 l 614 870 l 524 870 z "},"ȏ":{"ha":882,"x_min":78,"x_max":803,"o":"m 441 -13 q 249 29 330 -13 q 123 159 167 72 q 78 377 78 247 q 122 592 78 506 q 248 722 167 679 q 441 765 329 765 q 708 668 613 765 q 803 377 803 572 q 759 161 803 249 q 632 30 714 74 q 441 -13 551 -13 m 441 82 q 686 376 686 82 q 623 600 686 530 q 441 669 559 669 q 259 600 323 669 q 196 378 196 531 q 441 82 196 82 m 203 890 q 269 1056 209 994 q 440 1117 329 1117 q 566 1088 514 1117 q 647 1009 619 1060 q 678 890 675 958 l 600 890 q 555 1006 594 964 q 440 1047 516 1047 q 326 1006 365 1047 q 282 890 288 964 l 203 890 z "},"ō":{"ha":882,"x_min":78,"x_max":803,"o":"m 441 -13 q 249 29 330 -13 q 123 159 167 72 q 78 377 78 247 q 122 592 78 506 q 248 722 167 679 q 441 765 329 765 q 708 668 613 765 q 803 377 803 572 q 759 161 803 249 q 632 30 714 74 q 441 -13 551 -13 m 441 82 q 686 376 686 82 q 623 600 686 530 q 441 669 559 669 q 259 600 323 669 q 196 378 196 531 q 441 82 196 82 m 204 951 l 204 1026 l 678 1026 l 678 951 l 204 951 z "},"ṓ":{"ha":882,"x_min":78,"x_max":803,"o":"m 441 -13 q 249 29 330 -13 q 123 159 167 72 q 78 377 78 247 q 122 592 78 506 q 248 722 167 679 q 441 765 329 765 q 708 668 613 765 q 803 377 803 572 q 759 161 803 249 q 632 30 714 74 q 441 -13 551 -13 m 441 82 q 686 376 686 82 q 623 600 686 530 q 441 669 559 669 q 259 600 323 669 q 196 378 196 531 q 441 82 196 82 m 204 951 l 204 1026 l 678 1026 l 678 951 l 204 951 m 385 1152 l 536 1349 l 666 1349 l 496 1152 l 385 1152 z "},"ṑ":{"ha":882,"x_min":78,"x_max":803,"o":"m 441 -13 q 249 29 330 -13 q 123 159 167 72 q 78 377 78 247 q 122 592 78 506 q 248 722 167 679 q 441 765 329 765 q 708 668 613 765 q 803 377 803 572 q 759 161 803 249 q 632 30 714 74 q 441 -13 551 -13 m 441 82 q 686 376 686 82 q 623 600 686 530 q 441 669 559 669 q 259 600 323 669 q 196 378 196 531 q 441 82 196 82 m 204 951 l 204 1026 l 678 1026 l 678 951 l 204 951 m 385 1152 l 215 1349 l 345 1349 l 497 1152 l 385 1152 z "},"ǫ":{"ha":882,"x_min":78,"x_max":803,"o":"m 565 3 q 389 -152 389 -47 q 414 -211 389 -190 q 484 -232 440 -232 q 583 -209 535 -232 l 594 -262 q 474 -288 538 -288 q 357 -254 399 -288 q 315 -160 315 -220 q 407 -12 315 -68 q 165 95 252 -3 q 78 377 78 192 q 122 592 78 506 q 248 722 167 679 q 441 765 329 765 q 708 668 613 765 q 803 377 803 572 q 741 129 803 223 q 565 3 678 35 m 196 378 q 441 82 196 82 q 686 376 686 82 q 623 600 686 530 q 441 669 559 669 q 259 600 323 669 q 196 378 196 531 z "},"ø":{"ha":882,"x_min":78,"x_max":803,"o":"m 711 665 q 803 377 803 566 q 759 161 803 249 q 632 30 714 74 q 441 -13 551 -13 q 224 44 310 -13 l 169 -24 l 117 19 l 171 88 q 78 377 78 190 q 122 592 78 506 q 248 722 167 679 q 441 765 329 765 q 659 709 573 765 l 713 778 l 766 734 l 711 665 m 441 670 q 259 600 322 670 q 195 378 195 531 q 242 174 195 247 l 597 626 q 441 670 537 670 m 441 81 q 687 376 687 81 q 640 578 687 506 l 285 127 q 441 81 343 81 z "},"ǿ":{"ha":882,"x_min":78,"x_max":803,"o":"m 711 665 q 803 377 803 566 q 759 161 803 249 q 632 30 714 74 q 441 -13 551 -13 q 224 44 310 -13 l 169 -24 l 117 19 l 171 88 q 78 377 78 190 q 122 592 78 506 q 248 722 167 679 q 441 765 329 765 q 659 709 573 765 l 713 778 l 766 734 l 711 665 m 441 670 q 259 600 322 670 q 195 378 195 531 q 242 174 195 247 l 597 626 q 441 670 537 670 m 441 81 q 687 376 687 81 q 640 578 687 506 l 285 127 q 441 81 343 81 m 377 870 l 561 1122 l 694 1122 l 491 870 l 377 870 z "},"õ":{"ha":882,"x_min":78,"x_max":803,"o":"m 441 -13 q 249 29 330 -13 q 123 159 167 72 q 78 377 78 247 q 122 592 78 506 q 248 722 167 679 q 441 765 329 765 q 708 668 613 765 q 803 377 803 572 q 759 161 803 249 q 632 30 714 74 q 441 -13 551 -13 m 441 82 q 686 376 686 82 q 623 600 686 530 q 441 669 559 669 q 259 600 323 669 q 196 378 196 531 q 441 82 196 82 m 550 934 q 494 942 521 934 q 430 964 468 949 q 375 984 398 977 q 330 990 352 990 q 263 978 293 990 q 204 938 233 965 l 204 1019 q 332 1065 251 1065 q 388 1058 361 1065 q 452 1035 414 1050 q 507 1016 484 1022 q 552 1009 530 1009 q 619 1022 589 1009 q 678 1061 649 1034 l 678 980 q 550 934 631 934 z "},"ṍ":{"ha":882,"x_min":78,"x_max":803,"o":"m 441 -13 q 249 29 330 -13 q 123 159 167 72 q 78 377 78 247 q 122 592 78 506 q 248 722 167 679 q 441 765 329 765 q 708 668 613 765 q 803 377 803 572 q 759 161 803 249 q 632 30 714 74 q 441 -13 551 -13 m 441 82 q 686 376 686 82 q 623 600 686 530 q 441 669 559 669 q 259 600 323 669 q 196 378 196 531 q 441 82 196 82 m 550 934 q 494 942 521 934 q 430 964 468 949 q 375 984 398 977 q 330 990 352 990 q 263 978 293 990 q 204 938 233 965 l 204 1019 q 332 1065 251 1065 q 388 1058 361 1065 q 452 1035 414 1050 q 507 1016 484 1022 q 552 1009 530 1009 q 619 1022 589 1009 q 678 1061 649 1034 l 678 980 q 550 934 631 934 m 385 1152 l 536 1349 l 666 1349 l 496 1152 l 385 1152 z "},"ṏ":{"ha":882,"x_min":78,"x_max":803,"o":"m 441 -13 q 249 29 330 -13 q 123 159 167 72 q 78 377 78 247 q 122 592 78 506 q 248 722 167 679 q 441 765 329 765 q 708 668 613 765 q 803 377 803 572 q 759 161 803 249 q 632 30 714 74 q 441 -13 551 -13 m 441 82 q 686 376 686 82 q 623 600 686 530 q 441 669 559 669 q 259 600 323 669 q 196 378 196 531 q 441 82 196 82 m 550 934 q 494 942 521 934 q 430 964 468 949 q 375 984 398 977 q 330 990 352 990 q 263 978 293 990 q 204 938 233 965 l 204 1019 q 332 1065 251 1065 q 388 1058 361 1065 q 452 1035 414 1050 q 507 1016 484 1022 q 552 1009 530 1009 q 619 1022 589 1009 q 678 1061 649 1034 l 678 980 q 550 934 631 934 m 266 1176 q 212 1194 231 1176 q 193 1244 193 1213 q 212 1295 193 1276 q 266 1314 231 1314 q 320 1295 301 1314 q 340 1244 340 1276 q 320 1194 340 1213 q 266 1176 301 1176 m 616 1176 q 561 1194 581 1176 q 542 1244 542 1213 q 562 1295 542 1276 q 616 1314 581 1314 q 670 1295 651 1314 q 689 1244 689 1276 q 670 1194 689 1213 q 616 1176 651 1176 z "},"ȭ":{"ha":882,"x_min":78,"x_max":803,"o":"m 441 -13 q 249 29 330 -13 q 123 159 167 72 q 78 377 78 247 q 122 592 78 506 q 248 722 167 679 q 441 765 329 765 q 708 668 613 765 q 803 377 803 572 q 759 161 803 249 q 632 30 714 74 q 441 -13 551 -13 m 441 82 q 686 376 686 82 q 623 600 686 530 q 441 669 559 669 q 259 600 323 669 q 196 378 196 531 q 441 82 196 82 m 550 934 q 494 942 521 934 q 430 964 468 949 q 375 984 398 977 q 330 990 352 990 q 263 978 293 990 q 204 938 233 965 l 204 1019 q 332 1065 251 1065 q 388 1058 361 1065 q 452 1035 414 1050 q 507 1016 484 1022 q 552 1009 530 1009 q 619 1022 589 1009 q 678 1061 649 1034 l 678 980 q 550 934 631 934 m 204 1208 l 204 1283 l 678 1283 l 678 1208 l 204 1208 z "},"œ":{"ha":1413,"x_min":78,"x_max":1348,"o":"m 1348 340 l 800 340 q 877 140 805 203 q 1094 78 949 78 q 1308 111 1190 78 l 1308 20 q 1079 -13 1192 -13 q 737 155 824 -13 q 618 29 695 72 q 435 -13 542 -13 q 247 30 327 -13 q 122 159 167 72 q 78 377 78 247 q 122 592 78 506 q 246 722 166 679 q 435 765 326 765 q 622 723 545 765 q 740 597 699 681 q 851 722 778 679 q 1025 765 924 765 q 1200 720 1128 765 q 1310 588 1272 676 q 1348 375 1348 501 l 1348 340 m 1020 683 q 799 416 806 683 l 1237 416 q 1179 618 1233 552 q 1020 683 1124 683 m 439 82 q 682 376 682 82 q 619 600 682 530 q 439 669 556 669 q 259 600 322 669 q 196 378 196 531 q 439 82 196 82 z "},"p":{"ha":899,"x_min":122,"x_max":821,"o":"m 122 753 l 221 753 l 229 665 l 236 665 q 343 739 280 713 q 482 765 407 765 q 657 727 581 765 q 777 605 733 688 q 821 392 821 521 q 715 89 821 192 q 403 -13 608 -13 q 239 1 331 -13 l 239 -306 l 122 -306 l 122 753 m 399 81 q 628 155 553 81 q 703 382 703 228 q 457 667 703 667 q 337 642 393 667 q 239 566 281 618 l 239 100 q 314 86 272 91 q 399 81 356 81 z "},"þ":{"ha":899,"x_min":122,"x_max":821,"o":"m 122 1122 l 239 1122 l 239 669 l 245 669 q 353 740 290 715 q 490 765 415 765 q 660 726 586 765 q 778 603 735 687 q 821 392 821 519 q 715 89 821 192 q 403 -13 608 -13 q 239 1 331 -13 l 239 -306 l 122 -306 l 122 1122 m 399 81 q 628 155 553 81 q 703 382 703 228 q 638 599 703 532 q 459 667 573 667 q 338 643 396 667 q 239 567 281 619 l 239 100 q 314 86 272 91 q 399 81 356 81 z "},"q":{"ha":899,"x_min":78,"x_max":776,"o":"m 660 81 l 653 81 q 545 11 608 36 q 406 -13 483 -13 q 237 26 311 -13 q 120 149 163 65 q 78 359 78 232 q 185 663 78 561 q 502 765 292 765 q 776 727 647 765 l 776 -306 l 660 -306 l 660 81 m 438 85 q 559 108 501 85 q 660 178 617 131 l 660 651 q 491 671 585 671 q 270 597 344 671 q 196 369 196 523 q 260 152 196 219 q 438 85 325 85 z "},"r":{"ha":573,"x_min":122,"x_max":563,"o":"m 122 753 l 219 753 l 228 655 l 236 655 q 347 733 280 704 q 485 761 415 761 q 563 754 525 761 l 563 648 q 481 653 528 653 q 349 627 417 653 q 239 551 282 601 l 239 0 l 122 0 l 122 753 z "},"ŕ":{"ha":573,"x_min":122,"x_max":602,"o":"m 122 753 l 219 753 l 228 655 l 236 655 q 347 733 280 704 q 485 761 415 761 q 563 754 525 761 l 563 648 q 481 653 528 653 q 349 627 417 653 q 239 551 282 601 l 239 0 l 122 0 l 122 753 m 285 870 l 469 1122 l 602 1122 l 399 870 l 285 870 z "},"ř":{"ha":573,"x_min":102,"x_max":583,"o":"m 122 753 l 219 753 l 228 655 l 236 655 q 347 733 280 704 q 485 761 415 761 q 563 754 525 761 l 563 648 q 481 653 528 653 q 349 627 417 653 q 239 551 282 601 l 239 0 l 122 0 l 122 753 m 483 1122 l 583 1122 l 393 870 l 292 870 l 102 1122 l 201 1122 l 342 931 l 483 1122 z "},"ŗ":{"ha":573,"x_min":105,"x_max":563,"o":"m 122 753 l 219 753 l 228 655 l 236 655 q 347 733 280 704 q 485 761 415 761 q 563 754 525 761 l 563 648 q 481 653 528 653 q 349 627 417 653 q 239 551 282 601 l 239 0 l 122 0 l 122 753 m 178 -114 q 256 -190 256 -114 q 246 -256 256 -220 q 217 -324 235 -292 l 144 -324 q 174 -226 168 -272 q 122 -210 140 -225 q 105 -169 105 -195 q 124 -129 105 -144 q 178 -114 143 -114 z "},"ȑ":{"ha":573,"x_min":38,"x_max":563,"o":"m 122 753 l 219 753 l 228 655 l 236 655 q 347 733 280 704 q 485 761 415 761 q 563 754 525 761 l 563 648 q 481 653 528 653 q 349 627 417 653 q 239 551 282 601 l 239 0 l 122 0 l 122 753 m 168 870 l 38 1122 l 137 1122 l 260 870 l 168 870 m 425 870 l 294 1122 l 394 1122 l 517 870 l 425 870 z "},"ṛ":{"ha":573,"x_min":108,"x_max":563,"o":"m 122 753 l 219 753 l 228 655 l 236 655 q 347 733 280 704 q 485 761 415 761 q 563 754 525 761 l 563 648 q 481 653 528 653 q 349 627 417 653 q 239 551 282 601 l 239 0 l 122 0 l 122 753 m 181 -249 q 127 -231 146 -249 q 108 -182 108 -212 q 127 -132 108 -151 q 181 -114 146 -114 q 234 -132 215 -114 q 253 -182 253 -151 q 234 -231 253 -212 q 181 -249 215 -249 z "},"ȓ":{"ha":573,"x_min":105,"x_max":580,"o":"m 122 753 l 219 753 l 228 655 l 236 655 q 347 733 280 704 q 485 761 415 761 q 563 754 525 761 l 563 648 q 481 653 528 653 q 349 627 417 653 q 239 551 282 601 l 239 0 l 122 0 l 122 753 m 105 890 q 170 1056 110 994 q 342 1117 231 1117 q 468 1088 415 1117 q 548 1009 520 1060 q 580 890 576 958 l 501 890 q 456 1006 495 964 q 342 1047 417 1047 q 228 1006 266 1047 q 183 890 190 964 l 105 890 z "},"ṟ":{"ha":573,"x_min":-37,"x_max":563,"o":"m 122 753 l 219 753 l 228 655 l 236 655 q 347 733 280 704 q 485 761 415 761 q 563 754 525 761 l 563 648 q 481 653 528 653 q 349 627 417 653 q 239 551 282 601 l 239 0 l 122 0 l 122 753 m -37 -219 l -37 -144 l 399 -144 l 399 -219 l -37 -219 z "},"s":{"ha":725,"x_min":79,"x_max":665,"o":"m 338 -13 q 92 19 199 -13 l 92 108 q 215 82 155 90 q 339 74 274 74 q 501 107 451 74 q 551 201 551 139 q 540 257 551 235 q 499 294 528 279 q 421 318 471 309 l 293 339 q 130 408 180 358 q 79 544 79 459 q 162 706 79 646 q 413 765 244 765 q 622 738 524 765 l 622 649 q 414 677 522 677 q 244 643 294 677 q 193 549 193 609 q 221 474 193 503 q 319 432 249 444 l 447 411 q 613 345 561 392 q 665 209 665 297 q 583 45 665 104 q 338 -13 500 -13 z "},"ś":{"ha":725,"x_min":79,"x_max":665,"o":"m 338 -13 q 92 19 199 -13 l 92 108 q 215 82 155 90 q 339 74 274 74 q 501 107 451 74 q 551 201 551 139 q 540 257 551 235 q 499 294 528 279 q 421 318 471 309 l 293 339 q 130 408 180 358 q 79 544 79 459 q 162 706 79 646 q 413 765 244 765 q 622 738 524 765 l 622 649 q 414 677 522 677 q 244 643 294 677 q 193 549 193 609 q 221 474 193 503 q 319 432 249 444 l 447 411 q 613 345 561 392 q 665 209 665 297 q 583 45 665 104 q 338 -13 500 -13 m 310 870 l 494 1122 l 626 1122 l 424 870 l 310 870 z "},"ṥ":{"ha":725,"x_min":79,"x_max":665,"o":"m 338 -13 q 92 19 199 -13 l 92 108 q 215 82 155 90 q 339 74 274 74 q 501 107 451 74 q 551 201 551 139 q 540 257 551 235 q 499 294 528 279 q 421 318 471 309 l 293 339 q 130 408 180 358 q 79 544 79 459 q 162 706 79 646 q 413 765 244 765 q 622 738 524 765 l 622 649 q 414 677 522 677 q 244 643 294 677 q 193 549 193 609 q 221 474 193 503 q 319 432 249 444 l 447 411 q 613 345 561 392 q 665 209 665 297 q 583 45 665 104 q 338 -13 500 -13 m 303 1094 q 252 1110 270 1094 q 234 1152 234 1126 q 252 1194 234 1178 q 303 1210 270 1210 q 355 1194 337 1210 q 374 1152 374 1178 q 356 1110 374 1126 q 303 1094 338 1094 m 310 870 l 494 1122 l 626 1122 l 424 870 l 310 870 z "},"š":{"ha":725,"x_min":79,"x_max":665,"o":"m 338 -13 q 92 19 199 -13 l 92 108 q 215 82 155 90 q 339 74 274 74 q 501 107 451 74 q 551 201 551 139 q 540 257 551 235 q 499 294 528 279 q 421 318 471 309 l 293 339 q 130 408 180 358 q 79 544 79 459 q 162 706 79 646 q 413 765 244 765 q 622 738 524 765 l 622 649 q 414 677 522 677 q 244 643 294 677 q 193 549 193 609 q 221 474 193 503 q 319 432 249 444 l 447 411 q 613 345 561 392 q 665 209 665 297 q 583 45 665 104 q 338 -13 500 -13 m 508 1122 l 607 1122 l 417 870 l 316 870 l 126 1122 l 226 1122 l 367 931 l 508 1122 z "},"ṧ":{"ha":725,"x_min":79,"x_max":665,"o":"m 338 -13 q 92 19 199 -13 l 92 108 q 215 82 155 90 q 339 74 274 74 q 501 107 451 74 q 551 201 551 139 q 540 257 551 235 q 499 294 528 279 q 421 318 471 309 l 293 339 q 130 408 180 358 q 79 544 79 459 q 162 706 79 646 q 413 765 244 765 q 622 738 524 765 l 622 649 q 414 677 522 677 q 244 643 294 677 q 193 549 193 609 q 221 474 193 503 q 319 432 249 444 l 447 411 q 613 345 561 392 q 665 209 665 297 q 583 45 665 104 q 338 -13 500 -13 m 367 1128 q 315 1144 333 1128 q 297 1185 297 1159 q 315 1228 297 1213 q 367 1244 333 1244 q 418 1228 400 1244 q 436 1185 436 1213 q 418 1144 436 1159 q 367 1128 400 1128 m 508 1122 l 607 1122 l 417 870 l 316 870 l 126 1122 l 226 1122 l 367 931 l 508 1122 z "},"ş":{"ha":725,"x_min":79,"x_max":665,"o":"m 665 209 q 599 58 665 115 q 402 -10 533 1 l 402 -70 q 491 -103 460 -75 q 522 -180 522 -132 q 483 -260 522 -232 q 373 -288 444 -288 q 302 -281 338 -288 q 242 -262 267 -274 l 242 -206 q 369 -234 301 -234 q 432 -220 411 -234 q 453 -176 453 -206 q 432 -131 453 -145 q 368 -117 411 -117 l 338 -117 l 338 -13 q 92 19 199 -13 l 92 108 q 215 82 155 90 q 339 74 274 74 q 501 107 451 74 q 551 201 551 139 q 540 257 551 235 q 499 294 528 279 q 421 318 471 309 l 293 339 q 130 408 180 358 q 79 544 79 459 q 162 706 79 646 q 413 765 244 765 q 622 738 524 765 l 622 649 q 414 677 522 677 q 244 643 294 677 q 193 549 193 609 q 221 474 193 503 q 319 432 249 444 l 447 411 q 613 345 561 392 q 665 209 665 297 z "},"ŝ":{"ha":725,"x_min":79,"x_max":665,"o":"m 338 -13 q 92 19 199 -13 l 92 108 q 215 82 155 90 q 339 74 274 74 q 501 107 451 74 q 551 201 551 139 q 540 257 551 235 q 499 294 528 279 q 421 318 471 309 l 293 339 q 130 408 180 358 q 79 544 79 459 q 162 706 79 646 q 413 765 244 765 q 622 738 524 765 l 622 649 q 414 677 522 677 q 244 643 294 677 q 193 549 193 609 q 221 474 193 503 q 319 432 249 444 l 447 411 q 613 345 561 392 q 665 209 665 297 q 583 45 665 104 q 338 -13 500 -13 m 603 870 l 503 870 l 367 1060 l 230 870 l 131 870 l 316 1122 l 417 1122 l 603 870 z "},"ș":{"ha":725,"x_min":79,"x_max":665,"o":"m 338 -13 q 92 19 199 -13 l 92 108 q 215 82 155 90 q 339 74 274 74 q 501 107 451 74 q 551 201 551 139 q 540 257 551 235 q 499 294 528 279 q 421 318 471 309 l 293 339 q 130 408 180 358 q 79 544 79 459 q 162 706 79 646 q 413 765 244 765 q 622 738 524 765 l 622 649 q 414 677 522 677 q 244 643 294 677 q 193 549 193 609 q 221 474 193 503 q 319 432 249 444 l 447 411 q 613 345 561 392 q 665 209 665 297 q 583 45 665 104 q 338 -13 500 -13 m 365 -114 q 442 -190 442 -114 q 432 -256 442 -220 q 403 -324 422 -292 l 331 -324 q 360 -226 354 -272 q 308 -210 326 -225 q 291 -169 291 -195 q 310 -129 291 -144 q 365 -114 329 -114 z "},"ṡ":{"ha":725,"x_min":79,"x_max":665,"o":"m 338 -13 q 92 19 199 -13 l 92 108 q 215 82 155 90 q 339 74 274 74 q 501 107 451 74 q 551 201 551 139 q 540 257 551 235 q 499 294 528 279 q 421 318 471 309 l 293 339 q 130 408 180 358 q 79 544 79 459 q 162 706 79 646 q 413 765 244 765 q 622 738 524 765 l 622 649 q 414 677 522 677 q 244 643 294 677 q 193 549 193 609 q 221 474 193 503 q 319 432 249 444 l 447 411 q 613 345 561 392 q 665 209 665 297 q 583 45 665 104 q 338 -13 500 -13 m 367 917 q 307 935 328 917 q 286 987 286 953 q 307 1039 286 1020 q 367 1057 328 1057 q 426 1039 406 1057 q 447 987 447 1020 q 426 935 447 953 q 367 917 406 917 z "}}}
